<?xml version="1.0" encoding="UTF-8" standalone="no"?>
<!-- Created with Inkscape (http://www.inkscape.org/) -->
<svg
   xmlns:svg="http://www.w3.org/2000/svg"
   xmlns="http://www.w3.org/2000/svg"
   version="1.0"
   width="745"
   height="912"
   id="svg3040">
  <defs
     id="defs3042" />
  <g
     transform="translate(-0.486096,-1.098864)"
     style="display:inline"
     id="yellowbase">
    <path
       d="M 514.37278,911.96114 C 497.23007,906.21615 489.42344,889.82668 492.5633,866.17386 C 493.25639,860.95276 494.07507,855.60076 494.3826,854.28051 C 495.10401,851.18328 494.14632,850.64386 486.18371,849.66242 C 482.63197,849.22466 476.85397,848.48615 473.34371,848.0213 C 454.14139,845.47837 436.5934,846.07809 422.07738,849.77338 C 417.16094,851.02495 406.9476,851.58417 378.53837,852.15734 C 357.61897,852.5794 322.81976,855.32413 320.54228,856.7317 C 320.01548,857.05728 316.63869,857.69221 313.0383,858.14265 C 305.71164,859.05926 293.10057,861.83365 284.15409,864.49703 C 278.41743,866.20486 270.64052,867.3854 255.43374,868.8568 C 245.83696,869.78537 232.91142,869.37893 201.64007,867.16527 C 191.73167,866.46387 185.32613,866.47914 178.39026,867.22068 C 166.44082,868.49826 156.53277,868.01339 141.91997,865.43594 C 128.9202,863.14301 126.52704,863.28408 110.46435,867.29023 C 97.857508,870.43447 81.673579,871.70069 75.135362,870.05435 C 68.355651,868.3472 49.142153,867.70245 40.911661,868.90591 C 29.737985,870.53972 27.358204,868.29303 31.854181,860.35495 C 34.06203,856.45679 38.332591,853.1187 42.887073,851.73108 C 44.45046,851.25478 47.370758,850.24276 49.376624,849.48218 C 51.38249,848.72161 54.538029,848.08129 56.388933,848.05929 C 58.239838,848.03728 59.977652,847.65774 60.250744,847.21586 C 60.523837,846.77399 63.836718,846.12296 67.612705,845.76911 C 73.785523,845.19068 79.637818,843.85533 95.420367,839.42415 C 100.89865,837.88604 105.84503,833.52681 106.90525,829.30256 C 107.39866,827.33662 106.87379,826.25486 103.97058,823.25434 C 102.02603,821.24461 98.793869,818.76351 96.788,817.74079 C 90.61294,814.59235 75.890749,803.42732 63.580868,792.55713 C 55.48782,785.4106 37.42378,765.46275 34.542569,760.49058 C 33.234945,758.23398 31.245105,755.26159 30.120703,753.88526 C 28.996301,752.50893 27.79431,750.45748 27.449612,749.32648 C 27.104913,748.19547 26.30044,746.65466 25.661894,745.90246 C 22.932806,742.68762 9.7151866,713.98492 9.7151866,711.27341 C 9.7151866,710.73056 8.930183,707.94018 7.9707346,705.07256 C 7.0112855,702.20495 5.9581517,697.80727 5.6304366,695.29994 C 5.3027226,692.79261 4.4623471,688.27941 3.7629362,685.27061 C 2.3788928,679.31659 0.39241495,658.84441 0.48952565,651.5356 C 0.62022622,641.6986 2.5385467,613.86344 3.4398624,608.72569 C 3.9635776,605.74036 4.9383604,601.63746 5.6060466,599.60811 C 6.2737337,597.57878 7.3330582,593.45666 7.9601007,590.44787 C 8.5871444,587.43907 9.4980427,584.18474 9.984321,583.21604 C 10.470598,582.24734 11.400726,579.37531 12.05127,576.83374 C 14.837647,565.94786 20.908766,550.8608 24.02851,547.06967 C 25.288097,545.53901 27.97254,540.59762 33.142252,530.29353 C 34.897433,526.79516 41.114504,517.04505 46.957965,508.62662 C 52.801426,500.20818 58.608165,491.55066 59.861831,489.38768 C 61.115498,487.22472 63.931736,483.23008 66.120139,480.51073 C 68.308541,477.79138 70.332893,474.95102 70.6187,474.19882 C 70.904507,473.44662 73.25233,470.1643 75.836086,466.90477 C 78.41984,463.64523 81.071263,459.95262 81.728135,458.69895 C 82.385007,457.44529 84.60618,454.39426 86.664073,451.91889 C 88.721967,449.44353 92.04686,445.07804 94.052725,442.2178 C 96.058593,439.35756 99.546063,434.4921 101.80267,431.40564 C 104.05926,428.3192 108.48387,422.22228 111.63512,417.85693 C 122.34337,403.02311 124.64239,399.89435 127.58418,396.1518 C 129.20053,394.09544 132.16417,390.03785 134.17004,387.13494 C 136.1759,384.23201 138.45598,381.17266 139.23688,380.33637 C 140.01778,379.50007 142.60776,375.90784 144.99238,372.35361 C 147.377,368.7994 151.1487,363.90833 153.37394,361.48458 C 155.5992,359.06084 157.41984,356.7445 157.41984,356.33716 C 157.41984,355.30077 160.93596,350.34562 164.36271,346.55282 C 165.94845,344.79768 168.96364,340.28449 171.06313,336.52348 C 173.16263,332.76249 175.82327,328.65958 176.97566,327.40592 C 178.12805,326.15225 179.63577,324.0259 180.32616,322.68071 C 181.01655,321.33551 183.66184,317.2326 186.20459,313.56313 C 188.74734,309.89367 192.64511,303.66187 194.86628,299.71469 C 197.08746,295.76751 199.87006,290.84403 201.04984,288.77361 C 205.4819,280.99566 213.01413,265.59155 216.04241,258.11237 C 219.40362,249.81095 225.45645,236.61195 229.06059,229.72451 C 230.27696,227.40005 231.27217,224.91478 231.27217,224.20169 C 231.27217,222.73492 234.00219,217.2912 244.90145,197.02464 C 252.06001,183.71368 260.71136,170.17456 267.33166,161.92199 C 271.19946,157.10053 276.10826,148.25364 275.34125,147.48665 C 275.00649,147.15189 272.16849,146.878 269.0346,146.878 C 263.69446,146.878 263.10273,146.65993 259.61309,143.40591 C 257.56518,141.49625 255.88962,139.40554 255.88962,138.75986 C 255.88962,138.11417 255.21274,136.44002 254.38544,135.03952 C 251.66986,130.44242 252.97085,129.55461 262.42296,129.55461 C 267.05072,129.55461 275.47513,130.00749 281.14391,130.56101 L 291.45076,131.56743 L 297.52853,128.63616 C 300.87131,127.02398 305.11453,125.55964 306.9579,125.38208 C 308.80127,125.20453 311.42617,124.6347 312.79101,124.11578 C 314.15586,123.59688 316.63496,123.17231 318.30012,123.17231 C 321.45642,123.17231 323.15698,122.44587 329.36083,118.44748 C 331.4078,117.12819 336.53644,114.31326 340.75779,112.19208 C 355.9769,104.54465 361.82092,99.285168 373.5063,82.719222 C 376.26436,78.809204 379.8544,73.964066 381.48418,71.952228 C 383.11394,69.940389 384.44738,67.913706 384.44738,67.44848 C 384.44738,66.983255 386.01392,64.868048 387.92856,62.74802 C 389.84322,60.627992 392.25681,57.662551 393.2921,56.158152 C 397.1388,50.568456 406.35698,31.839685 407.27275,27.753407 C 408.10126,24.056424 408.00115,23.282843 406.47722,21.606046 C 402.47096,17.197917 401.55331,12.132339 404.10186,8.4937717 C 406.06626,5.6892081 407.61923,5.9605611 408.64833,9.2881818 C 409.12813,10.83962 410.59254,12.746696 411.90256,13.526129 C 414.09052,14.827924 414.57293,14.802408 417.82897,13.212665 L 421.37355,11.48205 L 421.19125,6.1820136 C 421.01988,1.1993124 421.12893,0.89906428 423.01262,1.1673489 C 425.19884,1.4787202 430.03524,9.8458071 430.03524,13.316627 C 430.03524,15.840671 426.34597,20.752292 422.47359,23.383641 C 419.52926,25.384361 419.34287,25.837339 418.79447,32.324942 C 417.72859,44.934331 407.39653,71.269084 399.41068,81.731127 C 397.80246,83.83801 396.0048,86.462156 395.41587,87.562555 C 394.82697,88.662964 392.32327,91.795883 389.85212,94.524611 C 387.38099,97.253334 385.35914,99.839415 385.35914,100.27147 C 385.35914,100.70352 381.24282,105.29896 376.21177,110.48357 C 371.15882,115.69074 367.18344,120.53819 367.33033,121.31328 C 367.51435,122.28414 368.89005,122.80049 371.79558,122.98929 C 375.26882,123.21497 376.50585,122.8322 378.95011,120.7755 C 382.53632,117.7579 384.66931,118.58678 385.36087,123.26673 C 385.87202,126.72592 385.85479,126.72249 394.93259,125.1727 C 403.79505,123.65965 418.72146,118.98102 428.66761,114.59856 C 430.17201,113.9357 441.66015,109.3766 454.19681,104.46724 C 466.73347,99.557873 477.81132,94.851362 478.81425,94.00834 C 479.81719,93.165303 482.60294,91.354816 485.00484,89.984992 C 492.42528,85.753102 495.68175,82.375643 495.68175,78.91144 C 495.68175,75.099748 496.77971,74.359718 498.92232,76.727281 C 501.20077,79.244942 508.03997,82.143231 511.70257,82.143231 C 516.12621,82.143231 519.59367,78.822939 519.86417,74.328036 C 520.21147,68.556773 522.6322,69.081833 524.44623,75.321894 C 525.91731,80.382231 525.90629,80.540826 523.80494,84.549837 C 521.02366,89.856029 517.6311,91.817976 509.85436,92.617561 C 504.54369,93.163601 502.91026,93.763067 499.80919,96.304159 C 490.26829,104.12222 481.63717,109.86322 472.43195,114.51421 C 458.87231,121.36527 453.02917,124.62684 449.52022,127.30325 C 447.8968,128.5415 446.09536,129.55461 445.51703,129.55461 C 443.95778,129.55461 432.77051,140.56936 432.77051,142.10457 C 432.77051,142.83047 433.82128,144.25094 435.10555,145.26114 L 437.44059,147.09788 L 435.55309,149.10703 C 433.27379,151.53323 433.8885,152.34854 437.99707,152.34854 C 442.30969,152.34854 444.62336,153.80232 444.62336,156.51214 C 444.62336,158.82164 444.29663,159.06242 439.83663,160.0397 C 436.78913,160.70745 436.70942,161.55552 439.4001,164.68363 C 441.14923,166.71712 442.56361,167.21363 448.50526,167.87995 C 454.86715,168.59342 461.05963,169.83068 471.52019,172.47839 C 475.32288,173.4409 503.05821,182.10456 512.54927,185.29461 C 515.55807,186.3059 519.90711,187.66432 522.21383,188.31333 C 529.59229,190.38931 538.53434,196.47838 538.53434,199.42674 C 538.53434,200.20736 537.76779,201.93512 536.8309,203.26619 C 535.894,204.59726 533.00356,209.4678 530.40771,214.08959 C 527.17497,219.84531 523.47459,224.72872 518.66274,229.58946 C 514.79886,233.4926 510.66579,237.78994 509.47813,239.13911 L 507.31876,241.59214 L 509.16014,244.60965 C 510.17291,246.26928 511.81614,249.06318 512.81177,250.81832 C 513.8074,252.57345 516.97798,258.11237 519.85751,263.12703 C 526.53107,274.74899 532.59334,286.84205 533.79799,290.93563 C 534.3145,292.69076 535.58021,296.44368 536.61071,299.27547 C 539.25018,306.5287 540.13521,320.37788 538.24685,324.87844 C 536.1425,329.89378 532.12408,334.59053 528.50502,336.26471 C 526.74989,337.07665 524.69843,338.23366 523.94623,338.83585 C 521.21306,341.02396 507.97991,342.14051 500.42712,340.82031 C 496.64393,340.15901 496.47783,340.23026 495.54154,342.9161 C 494.50586,345.88705 490.72369,348.38474 487.29329,348.36312 C 485.4071,348.35124 468.39037,344.16128 461.49087,342.00988 C 448.47598,337.95163 448.1514,337.89158 426.84409,335.6002 C 416.05969,334.44044 404.01655,334.41921 397.66786,335.54878 C 393.38642,336.31052 389.31315,337.3634 372.59454,342.02984 C 360.26876,345.47018 342.22645,356.41382 333.38898,365.81015 C 324.5692,375.18765 311.77437,398.76045 308.4449,411.76634 C 305.07131,424.94457 304.02545,434.2673 304.67176,445.40042 C 305.96248,467.63428 311.13653,479.35045 325.28996,492.08845 C 335.2873,501.08599 343.43045,503.56945 359.37406,502.4832 C 365.39166,502.07322 371.37853,501.93932 372.67824,502.18567 C 373.97795,502.43199 376.9669,501.9798 379.32035,501.18078 C 384.26656,499.5015 394.16119,499.28852 400.82615,500.71791 C 404.34347,501.47224 406.63224,502.79577 410.44447,506.27994 C 413.19593,508.79462 415.44713,511.21765 415.44713,511.66447 C 415.44713,512.11127 416.84206,514.30431 418.54698,516.53788 C 422.08341,521.17086 425.88177,532.16555 425.81159,537.56595 C 425.78551,539.57181 425.12624,542.44437 424.34653,543.94942 C 421.5981,549.25464 410.62195,550.20708 400.64071,546.00645 C 396.13536,544.11037 394.87049,544.17832 388.10258,546.68002 C 385.85047,547.51249 382.97844,547.98127 381.72028,547.72175 C 375.43697,546.42569 373.70014,545.72525 370.59428,543.23478 C 367.39798,540.67178 366.95668,540.57203 361.93259,541.27686 C 352.06624,542.66101 347.63515,541.50321 335.21249,534.29515 C 329.1784,530.79396 324.33071,529.55686 319.85149,530.37514 C 317.27811,530.84525 315.0195,532.5477 309.91123,537.86772 C 306.2756,541.65406 303.30099,545.07741 303.30099,545.47518 C 303.30099,545.87293 304.98637,545.31989 307.0463,544.24621 C 312.41577,541.44749 318.15283,541.17868 325.00561,543.40473 C 330.28455,545.11954 331.06712,545.16326 334.57906,543.93967 C 340.03405,542.0391 345.14469,542.25051 348.88885,544.53162 C 357.73374,549.92031 369.2932,565.65252 374.12709,578.88037 C 377.90304,589.21319 378.32499,591.77101 377.14149,597.15367 C 376.55108,599.83895 376.41479,602.33862 376.8386,602.70851 C 377.26244,603.07842 381.71211,603.88828 386.72678,604.50822 C 391.74144,605.12815 398.10095,606.01907 400.85901,606.48805 C 405.65403,607.30338 406.05308,607.21438 409.96951,604.45588 C 412.43295,602.7208 415.60672,601.39731 417.9328,601.13512 C 422.73315,600.59405 423.51619,599.67096 426.51839,591.0138 C 431.05272,577.93862 432.58542,574.02493 437.27351,563.55103 C 439.85474,557.78417 442.30239,552.24524 442.71271,551.2423 C 445.00652,545.63578 459.7578,517.21997 467.5617,503.37506 C 473.5372,492.77389 478.47397,485.00044 486.09098,474.19882 C 488.3895,470.93929 491.7534,466.01581 493.5663,463.25773 C 497.42048,457.39414 507.16149,447.07277 512.01657,443.70819 C 515.33066,441.41153 515.61055,441.37641 524.56379,442.13346 C 532.71684,442.82286 534.1603,443.2208 537.72341,445.7614 C 539.92456,447.33088 543.20663,449.62189 545.01691,450.85255 C 546.82719,452.0832 551.27678,455.89068 554.90489,459.31361 C 561.83961,465.85617 564.28104,467.299 567.14838,466.54917 C 569.15716,466.02386 574.72829,468.63629 577.03208,471.18386 C 579.04591,473.41077 581.38693,480.03063 581.38693,483.49833 C 581.38693,485.39655 582.79327,487.89036 586.17366,491.98646 C 590.96771,497.79553 594.96036,503.17324 598.11484,508.07016 L 599.79875,510.68422 L 596.97515,513.32186 C 595.42215,514.77257 594.15153,516.36315 594.15153,516.85647 C 594.15153,517.34981 593.12251,518.42768 591.86483,519.25175 C 588.87024,521.21388 567.71057,545.98941 567.71057,547.5336 C 567.71057,548.18871 566.17198,550.72875 564.29149,553.17814 C 560.25283,558.43859 560.01837,558.81642 554.07296,569.64619 C 551.54432,574.25219 549.47543,578.4434 549.47543,578.95996 C 549.47543,579.47655 548.24456,581.30108 546.74016,583.0145 C 545.23576,584.72792 544.00489,586.5437 544.00489,587.04958 C 544.00489,588.33371 541.24114,594.23156 538.35355,599.10956 C 537.01773,601.36615 535.05535,605.43385 533.99272,608.14887 C 531.59328,614.27942 531.73276,614.43502 542.63725,617.79329 C 547.15045,619.18321 551.4871,620.87841 552.27427,621.56039 C 553.97148,623.03082 563.6178,626.46227 566.05416,626.46227 C 568.2291,626.46227 581.62211,630.67386 586.4016,632.86076 C 588.40747,633.77855 591.00703,634.80466 592.17841,635.14097 C 595.91669,636.21427 603.60658,640.17634 607.37201,642.96919 C 609.37788,644.45696 612.6602,646.76436 614.66607,648.09673 C 616.67194,649.42911 618.72339,650.98396 619.22485,651.55197 C 619.72632,652.11997 621.92053,653.87177 624.10088,655.44483 C 631.18893,660.55868 641.83469,673.2857 643.03947,678.08593 C 644.40905,683.54282 646.76842,686.11186 652.49941,688.38658 C 656.90668,690.13589 659.15782,691.82939 663.40732,696.5924 C 672.81234,707.13392 674.06048,708.82617 678.25716,716.72623 C 688.41048,735.8394 691.21971,746.30947 692.21813,768.75908 C 692.83599,782.65165 691.46572,796.04256 688.57754,804.33672 C 687.80741,806.54833 687.17101,808.97326 687.16332,809.72547 C 687.15563,810.47766 685.91878,813.69425 684.41478,816.87345 C 681.01056,824.06933 681.00642,825.40802 684.37949,828.24628 C 688.71886,831.89763 694.02113,833.19286 708.71838,834.19184 C 716.3181,834.7084 723.29305,835.49292 724.21826,835.93523 C 738.17961,842.60961 738.49437,842.85594 742.06626,849.90331 C 745.07455,855.83868 745.32557,856.82763 744.23912,858.4639 C 743.13112,860.13265 737.49915,861.93721 733.65038,861.85669 C 721.9976,861.61287 693.7343,858.5653 687.15077,856.84273 C 681.7033,855.4174 637.66489,855.58999 630.16595,857.06605 C 612.50497,860.54237 608.50066,862.45331 596.98166,872.90225 C 593.66996,875.9063 589.31923,879.42072 587.31336,880.71205 C 583.15366,883.38999 575.53484,886.31307 572.71466,886.31307 C 571.66739,886.31307 570.42078,886.66757 569.94438,887.10087 C 569.46798,887.53415 567.17837,888.34829 564.85635,888.91007 C 556.26756,890.98798 552.70171,893.13508 549.2695,898.29545 C 545.51523,903.94004 538.71968,910.93048 536.98677,910.93048 C 536.33353,910.93048 535.79908,911.34078 535.79908,911.84224 C 535.79908,912.86141 517.36424,912.96361 514.37278,911.96114 z M 406.32955,630.97578 C 406.32955,629.94795 405.68206,627.85487 404.89068,626.32451 C 404.0993,624.79415 403.32904,621.7056 403.17899,619.46108 C 403.02893,617.21655 402.54812,615.04086 402.11052,614.62621 C 400.99189,613.56623 384.11398,611.56846 377.9445,611.76576 C 375.12011,611.8561 370.81207,611.45727 368.37105,610.87947 C 362.49956,609.48968 328.29226,608.87466 325.97067,610.11714 C 323.58547,611.39366 324.84111,613.06944 327.65382,612.3635 C 328.90328,612.04991 331.21768,612.20331 332.79696,612.70439 C 334.37624,613.20547 341.00215,613.84345 347.52121,614.12209 C 354.04028,614.40075 365.11813,615.03284 372.13866,615.52675 C 379.15919,616.02066 386.74957,616.47798 389.00617,616.54304 C 395.67182,616.73522 396.11824,617.07035 399.52186,624.43701 C 402.50322,630.88978 403.89312,632.79483 405.64574,632.83061 C 406.02184,632.83829 406.32955,632.00361 406.32955,630.97578 z M 416.71721,621.37304 C 417.0216,620.57983 417.27064,619.15824 417.27064,618.21397 C 417.27064,617.26969 418.09122,616.05794 419.09415,615.52119 C 421.26986,614.35678 421.50255,611.38194 419.47867,610.6053 C 417.31037,609.77325 412.71185,614.80117 412.71185,618.00397 C 412.71185,621.93138 415.57788,624.34211 416.71721,621.37304 z M 440.79397,619.89762 C 441.94938,618.74222 442.11912,612.88919 441.10231,609.26611 C 440.44657,606.92959 434.25004,602.79666 433.11077,603.93592 C 432.72562,604.32108 433.14879,605.88602 434.05113,607.4136 C 435.2738,609.4834 435.54376,611.17808 435.11077,614.06543 C 434.79122,616.19637 434.79327,618.62654 435.11532,619.46579 C 435.79417,621.23485 439.19791,621.49368 440.79397,619.89762 z M 454.66315,589.51327 C 456.16179,586.24118 457.38796,583.164 457.38796,582.6751 C 457.38796,581.35455 455.94323,581.5988 454.66838,583.13488 C 453.59454,584.42879 451.90733,585.42825 444.39542,589.22032 C 439.7815,591.54946 439.86385,593.63902 444.56955,593.63902 C 446.54581,593.63902 448.41634,594.04931 448.72627,594.55078 C 450.10114,596.77537 452.12264,595.0601 454.66315,589.51327 z M 485.75404,586.47495 C 489.45915,584.0391 493.92663,581.32274 495.68175,580.43858 C 497.43689,579.55441 499.48834,578.3059 500.24055,577.66411 C 500.99274,577.02231 504.27507,575.42032 507.5346,574.10411 C 510.79414,572.78791 514.24706,571.26508 515.20776,570.72004 C 516.16847,570.17501 520.67868,568.96606 525.23044,568.03351 C 530.52812,566.94812 533.92335,565.76771 534.66502,564.75342 C 538.31684,559.75925 531.58348,560.51352 515.87721,566.85803 C 507.40121,570.28188 505.43872,570.60501 505.87217,568.50537 C 506.36152,566.135 524.4066,557.40316 533.0638,555.34759 C 539.87755,553.72974 541.43014,552.54394 545.98482,545.4791 C 548.14409,542.1298 550.24583,538.87244 550.65534,538.24052 C 551.12061,537.52255 550.87387,536.88972 549.99753,536.55344 C 548.28551,535.89647 533.13351,541.98953 528.07272,545.37004 C 526.05388,546.71859 523.42796,548.1225 522.23735,548.48983 C 513.67763,551.13073 484.0082,577.41038 478.55908,587.17777 C 475.75857,592.19761 477.27464,592.04952 485.75404,586.47495 z M 452.39187,576.21116 C 455.56126,574.72136 456.78212,574.52273 457.76348,575.33719 C 459.50725,576.78438 461.73441,573.49453 465.99845,563.17291 C 469.0963,555.67419 490.04323,515.49914 492.37451,512.58506 C 492.9356,511.8837 494.62729,508.90441 496.1338,505.96443 C 501.15605,496.16339 511.7139,478.44955 520.65203,464.82804 C 525.51467,457.41753 529.24662,450.95545 528.94529,450.46787 C 528.64395,449.9803 527.39589,449.58138 526.17182,449.58138 C 524.39382,449.58138 523.94623,450.04915 523.94623,451.9073 C 523.94623,454.62168 521.08393,456.0855 510.86432,458.5976 C 501.88929,460.80376 501.46438,462.83305 510.14643,462.02613 C 515.37149,461.54051 516.65217,461.66999 516.65217,462.68385 C 516.65217,464.80232 514.66809,465.73039 507.5346,466.94868 C 503.7736,467.59099 499.74858,468.45854 498.59011,468.87657 C 494.91485,470.20276 497.38421,471.53046 502.81012,471.14551 C 505.65209,470.94389 508.49316,470.97686 509.1236,471.21878 C 512.1133,472.36604 508.91791,476.37403 504.34345,477.21457 C 499.94021,478.02363 491.35507,480.33006 490.28495,480.99143 C 487.68105,482.60073 489.74277,483.28792 495.55435,482.7478 C 499.99484,482.3351 502.00615,482.48507 502.48805,483.26481 C 503.44358,484.81087 499.73923,488.47691 496.58377,489.108 C 492.47803,489.92915 482.0054,494.94238 482.0054,496.08665 C 482.0054,496.77124 484.00942,497.04577 487.9611,496.90252 C 493.93318,496.68601 496.16557,497.48402 494.95997,499.40439 C 494.14957,500.69528 486.13928,505.19856 484.65351,505.19856 C 482.63925,505.19856 471.97607,510.64899 471.97607,511.67856 C 471.97607,512.27796 472.82768,512.47656 474.06562,512.16587 C 475.21487,511.87743 478.4972,511.36616 481.35968,511.02974 C 485.32368,510.56385 486.56419,510.6991 486.56419,511.59721 C 486.56419,514.0732 481.966,518.63928 477.33292,520.764 C 467.77192,525.14866 463.45261,527.57777 463.04555,528.799 C 462.58405,530.18349 465.38976,529.93466 473.13916,527.90387 C 476.24844,527.08907 477.77403,527.04345 478.47496,527.74439 C 480.47453,529.74395 475.73768,533.84627 465.10316,539.32492 C 459.33174,542.29824 454.75642,545.17027 454.9358,545.70722 C 455.39752,547.08939 460.78003,546.38508 465.48173,544.32729 C 467.67671,543.36662 469.83073,542.58061 470.26846,542.58061 C 471.70134,542.58061 471.10537,545.28708 468.90491,548.77284 C 466.73435,552.21122 464.99704,553.33208 455.3365,557.52675 C 448.81831,560.35697 448.33577,562.21635 454.33276,561.39438 C 456.66413,561.07482 459.14327,560.33894 459.84194,559.7591 C 461.87478,558.07199 463.41877,560.22358 462.35199,563.25693 C 461.49463,565.69486 452.55752,572.66419 450.28492,572.6671 C 448.85126,572.66893 443.7116,576.36868 443.7116,577.39885 C 443.7116,578.77409 448.26485,578.15108 452.39187,576.21116 z M 551.29894,495.56517 C 551.29894,494.78001 550.8886,493.37085 550.38706,492.43372 C 549.77658,491.29303 549.78305,489.92005 550.40665,488.27986 C 551.53584,485.30989 550.24068,483.31639 547.18194,483.31639 C 543.31426,483.31639 542.83058,489.3546 546.33068,493.94348 C 548.77907,497.15348 551.29894,497.97599 551.29894,495.56517 z M 511.40545,198.72836 C 513.26532,197.733 513.22325,197.63926 510.20581,196.0549 C 506.63131,194.17804 500.75183,192.954 499.38092,193.80127 C 497.33813,195.06379 500.58382,197.93639 504.05308,197.93639 C 505.90872,197.93639 507.68055,198.34668 507.99048,198.84815 C 508.70426,200.00308 509.04604,199.99108 511.40545,198.72836 z M 460.57911,191.20522 C 464.29761,189.94879 467.07683,188.46949 467.23796,187.66088 C 467.75573,185.06245 458.24912,180.60067 449.87679,179.51267 C 437.91442,177.95814 419.96181,177.59321 417.60118,178.85657 C 415.59391,179.93084 412.93374,184.78585 413.85025,185.70236 C 414.1099,185.962 416.72944,185.27632 419.67145,184.17864 C 424.722,182.29424 438.7171,180.34307 440.37194,181.29261 C 440.79173,181.53349 440.92256,182.54364 440.66269,183.53741 C 440.21389,185.25361 440.50823,185.31231 446.53022,184.70754 C 455.31683,183.82514 458.12207,186.4347 453.582,191.26739 C 451.01455,194.00031 452.34168,193.98852 460.57911,191.20522 z M 487.00135,191.09229 C 488.83796,189.59155 489.41833,188.57299 488.79307,187.94773 C 487.62391,186.77858 473.1505,183.69346 472.3922,184.45175 C 471.73228,185.11168 473.61783,188.97106 475.07577,189.94456 C 475.62754,190.31298 477.22015,190.6207 478.61493,190.62838 C 480.01763,190.6361 481.3854,191.2535 481.67568,192.00998 C 482.40841,193.91941 483.84426,193.67199 487.00135,191.09229 z M 396.63587,565.22604 C 393.61021,560.50853 392.86759,557.70734 394.39275,556.76475 C 395.45065,556.11092 411.95254,557.80573 416.53011,559.03835 C 423.24033,560.84522 420.05623,562.92513 408.4256,564.3323 C 404.51471,564.80549 400.43804,565.47444 399.36634,565.81889 C 398.14204,566.21238 397.12715,565.99202 396.63587,565.22604 z M 351.16825,495.86138 C 348.66091,495.38865 345.53873,494.43491 344.23007,493.74195 C 342.92139,493.04898 341.62875,492.70393 341.35751,492.97516 C 340.74558,493.5871 332.77714,489.60451 329.81612,487.20683 C 327.06041,484.97538 327.94888,482.7628 330.93698,484.41551 C 336.60236,487.54901 357.1377,490.93019 358.37219,488.93275 C 358.74653,488.32705 357.9831,487.709 356.44814,487.3751 C 352.63814,486.54629 349.71825,484.9311 350.07814,483.8514 C 350.48836,482.62078 364.41179,483.1308 365.99554,484.43445 C 367.35356,485.5523 365.88564,487.87518 363.82121,487.87518 C 363.1304,487.87518 362.5652,488.21757 362.5652,488.63604 C 362.5652,489.0545 365.12952,488.98814 368.26369,488.48856 C 376.76064,487.13417 387.59294,487.23572 389.34061,488.68615 C 391.36442,490.36577 390.36998,491.52207 386.90091,491.52296 C 383.7214,491.52377 371.67424,493.8202 368.03576,495.11904 C 364.37355,496.42634 356.09676,496.7906 351.16825,495.86138 z M 449.63802,487.73653 C 448.13362,487.23799 446.08217,486.47631 445.07923,486.04392 C 444.0763,485.61152 441.2616,484.41371 438.82433,483.3821 C 434.71209,481.64155 434.43746,481.32539 435.0111,478.99234 C 435.80596,475.75965 437.99728,472.37531 439.29555,472.37531 C 440.73917,472.37531 454.67701,487.09819 454.10681,488.02079 C 453.54176,488.93505 453.18647,488.91246 449.63802,487.73653 z M 569.9582,456.82404 C 569.62069,456.27795 570.78694,453.5018 572.54984,450.6548 C 575.90426,445.23759 579.08608,443.64646 581.89794,445.98011 C 584.12231,447.82618 583.40508,449.0864 577.96784,452.8856 C 570.84369,457.86351 570.65729,457.95517 569.9582,456.82404 z M 480.96983,445.63292 C 477.71764,443.69241 475.66161,442.25645 467.11646,435.95745 C 464.77459,434.23115 462.8585,432.28918 462.8585,431.64196 C 462.8585,430.12345 471.75549,425.59595 473.45669,426.24877 C 474.16949,426.52229 475.01535,427.4734 475.33637,428.36234 C 476.189,430.72344 481.95739,439.53051 484.94046,443.02572 C 489.01034,447.79431 486.90694,449.17543 480.96983,445.63292 z M 541.85829,438.85516 C 541.58503,438.41301 541.75844,435.24787 542.24369,431.82153 C 542.72891,428.39519 542.90414,424.89303 542.63306,424.03897 C 542.36199,423.1849 542.72815,421.99816 543.44675,421.40178 C 544.49628,420.53074 545.3971,420.8827 548.02613,423.19102 C 551.3281,426.09019 552.09265,428.36432 550.35092,430.10604 C 549.8295,430.62747 548.66724,432.42577 547.76813,434.10226 C 545.97588,437.4441 542.64287,440.12462 541.85829,438.85516 z M 501.05534,426.10363 C 498.80807,420.76365 497.2327,414.22478 497.82288,412.68677 C 498.50445,410.91063 504.17719,410.80697 505.61904,412.54431 C 506.35997,413.43708 506.3923,414.51049 505.73069,416.25069 C 505.21844,417.598 504.79933,421.13538 504.79933,424.11154 C 504.79933,430.50173 503.25258,431.32473 501.05534,426.10363 z "
       style="fill:#fcfc00"
       id="path3164" />
  </g>
  <g
     transform="translate(-0.486096,-1.098864)"
     style="display:inline"
     id="blackoutline">
    <path
       d="M 514.37278,911.96114 C 497.23007,906.21615 489.42344,889.82668 492.5633,866.17386 C 493.25639,860.95276 494.07507,855.60076 494.3826,854.28051 C 495.10401,851.18328 494.14632,850.64386 486.18371,849.66242 C 482.63197,849.22466 476.85397,848.48615 473.34371,848.0213 C 454.14139,845.47837 436.5934,846.07809 422.07738,849.77338 C 417.16094,851.02495 406.9476,851.58417 378.53837,852.15734 C 357.61897,852.5794 322.81976,855.32413 320.54228,856.7317 C 320.01548,857.05728 316.63869,857.69221 313.0383,858.14265 C 305.71164,859.05926 293.10057,861.83365 284.15409,864.49703 C 278.41743,866.20486 270.64052,867.3854 255.43374,868.8568 C 245.83696,869.78537 232.91142,869.37893 201.64007,867.16527 C 191.73167,866.46387 185.32613,866.47914 178.39026,867.22068 C 166.44082,868.49826 156.53277,868.01339 141.91997,865.43594 C 128.9202,863.14301 126.52704,863.28408 110.46435,867.29023 C 97.857508,870.43447 81.673579,871.70069 75.135362,870.05435 C 68.355651,868.3472 49.142153,867.70245 40.911661,868.90591 C 29.737985,870.53972 27.358204,868.29303 31.854181,860.35495 C 34.06203,856.45679 38.332591,853.1187 42.887073,851.73108 C 44.45046,851.25478 47.370758,850.24276 49.376624,849.48218 C 51.38249,848.72161 54.538029,848.08129 56.388933,848.05929 C 58.239838,848.03728 59.977652,847.65774 60.250744,847.21586 C 60.523837,846.77399 63.836718,846.12296 67.612705,845.76911 C 73.785523,845.19068 79.637818,843.85533 95.420367,839.42415 C 100.89865,837.88604 105.84503,833.52681 106.90525,829.30256 C 107.39866,827.33662 106.87379,826.25486 103.97058,823.25434 C 102.02603,821.24461 98.793869,818.76351 96.788,817.74079 C 90.61294,814.59235 75.890749,803.42732 63.580868,792.55713 C 55.48782,785.4106 37.42378,765.46275 34.542569,760.49058 C 33.234945,758.23398 31.245105,755.26159 30.120703,753.88526 C 28.996301,752.50893 27.79431,750.45748 27.449612,749.32648 C 27.104913,748.19547 26.30044,746.65466 25.661894,745.90246 C 22.932806,742.68762 9.7151866,713.98492 9.7151866,711.27341 C 9.7151866,710.73056 8.930183,707.94018 7.9707346,705.07256 C 7.0112855,702.20495 5.9581517,697.80727 5.6304366,695.29994 C 5.3027226,692.79261 4.4623471,688.27941 3.7629362,685.27061 C 2.3788928,679.31659 0.39241495,658.84441 0.48952565,651.5356 C 0.62022622,641.6986 2.5385467,613.86344 3.4398624,608.72569 C 3.9635776,605.74036 4.9383604,601.63746 5.6060466,599.60811 C 6.2737337,597.57878 7.3330582,593.45666 7.9601007,590.44787 C 8.5871444,587.43907 9.4980427,584.18474 9.984321,583.21604 C 10.470598,582.24734 11.400726,579.37531 12.05127,576.83374 C 14.837647,565.94786 20.908766,550.8608 24.02851,547.06967 C 25.288097,545.53901 27.97254,540.59762 33.142252,530.29353 C 34.897433,526.79516 41.114504,517.04505 46.957965,508.62662 C 52.801426,500.20818 58.608165,491.55066 59.861831,489.38768 C 61.115498,487.22472 63.931736,483.23008 66.120139,480.51073 C 68.308541,477.79138 70.332893,474.95102 70.6187,474.19882 C 70.904507,473.44662 73.25233,470.1643 75.836086,466.90477 C 78.41984,463.64523 81.071263,459.95262 81.728135,458.69895 C 82.385007,457.44529 84.60618,454.39426 86.664073,451.91889 C 88.721967,449.44353 92.04686,445.07804 94.052725,442.2178 C 96.058593,439.35756 99.546063,434.4921 101.80267,431.40564 C 104.05926,428.3192 108.48387,422.22228 111.63512,417.85693 C 122.34337,403.02311 124.64239,399.89435 127.58418,396.1518 C 129.20053,394.09544 132.16417,390.03785 134.17004,387.13494 C 136.1759,384.23201 138.45598,381.17266 139.23688,380.33637 C 140.01778,379.50007 142.60776,375.90784 144.99238,372.35361 C 147.377,368.7994 151.1487,363.90833 153.37394,361.48458 C 155.5992,359.06084 157.41984,356.7445 157.41984,356.33716 C 157.41984,355.30077 160.93596,350.34562 164.36271,346.55282 C 165.94845,344.79768 168.96364,340.28449 171.06313,336.52348 C 173.16263,332.76249 175.82327,328.65958 176.97566,327.40592 C 178.12805,326.15225 179.63577,324.0259 180.32616,322.68071 C 181.01655,321.33551 183.66184,317.2326 186.20459,313.56313 C 188.74734,309.89367 192.64511,303.66187 194.86628,299.71469 C 197.08746,295.76751 199.87006,290.84403 201.04984,288.77361 C 205.4819,280.99566 213.01413,265.59155 216.04241,258.11237 C 219.40362,249.81095 225.45645,236.61195 229.06059,229.72451 C 230.27696,227.40005 231.27217,224.91478 231.27217,224.20169 C 231.27217,222.73492 234.00219,217.2912 244.90145,197.02464 C 252.06001,183.71368 260.71136,170.17456 267.33166,161.92199 C 271.19946,157.10053 276.10826,148.25364 275.34125,147.48665 C 275.00649,147.15189 272.16849,146.878 269.0346,146.878 C 263.69446,146.878 263.10273,146.65993 259.61309,143.40591 C 257.56518,141.49625 255.88962,139.40554 255.88962,138.75986 C 255.88962,138.11417 255.21274,136.44002 254.38544,135.03952 C 251.66986,130.44242 252.97085,129.55461 262.42296,129.55461 C 267.05072,129.55461 275.47513,130.00749 281.14391,130.56101 L 291.45076,131.56743 L 297.52853,128.63616 C 300.87131,127.02398 305.11453,125.55964 306.9579,125.38208 C 308.80127,125.20453 311.42617,124.6347 312.79101,124.11578 C 314.15586,123.59688 316.63496,123.17231 318.30012,123.17231 C 321.45642,123.17231 323.15698,122.44587 329.36083,118.44748 C 331.4078,117.12819 336.53644,114.31326 340.75779,112.19208 C 355.9769,104.54465 361.82092,99.285168 373.5063,82.719222 C 376.26436,78.809204 379.8544,73.964066 381.48418,71.952228 C 383.11394,69.940389 384.44738,67.913706 384.44738,67.44848 C 384.44738,66.983255 386.01392,64.868048 387.92856,62.74802 C 389.84322,60.627992 392.25681,57.662551 393.2921,56.158152 C 397.1388,50.568456 406.35698,31.839685 407.27275,27.753407 C 408.10126,24.056424 408.00115,23.282843 406.47722,21.606046 C 402.47096,17.197917 401.55331,12.132339 404.10186,8.4937717 C 406.06626,5.6892081 407.61923,5.9605611 408.64833,9.2881818 C 409.12813,10.83962 410.59254,12.746696 411.90256,13.526129 C 414.09052,14.827924 414.57293,14.802408 417.82897,13.212665 L 421.37355,11.48205 L 421.19125,6.1820136 C 421.01988,1.1993124 421.12893,0.89906428 423.01262,1.1673489 C 425.19884,1.4787202 430.03524,9.8458071 430.03524,13.316627 C 430.03524,15.840671 426.34597,20.752292 422.47359,23.383641 C 419.52926,25.384361 419.34287,25.837339 418.79447,32.324942 C 417.72859,44.934331 407.39653,71.269084 399.41068,81.731127 C 397.80246,83.83801 396.0048,86.462156 395.41587,87.562555 C 394.82697,88.662964 392.32327,91.795883 389.85212,94.524611 C 387.38099,97.253334 385.35914,99.839415 385.35914,100.27147 C 385.35914,100.70352 381.24282,105.29896 376.21177,110.48357 C 371.15882,115.69074 367.18344,120.53819 367.33033,121.31328 C 367.51435,122.28414 368.89005,122.80049 371.79558,122.98929 C 375.26882,123.21497 376.50585,122.8322 378.95011,120.7755 C 382.53632,117.7579 384.66931,118.58678 385.36087,123.26673 C 385.87202,126.72592 385.85479,126.72249 394.93259,125.1727 C 403.79505,123.65965 418.72146,118.98102 428.66761,114.59856 C 430.17201,113.9357 441.66015,109.3766 454.19681,104.46724 C 466.73347,99.557873 477.81132,94.851362 478.81425,94.00834 C 479.81719,93.165303 482.60294,91.354816 485.00484,89.984992 C 492.42528,85.753102 495.68175,82.375643 495.68175,78.91144 C 495.68175,75.099748 496.77971,74.359718 498.92232,76.727281 C 501.20077,79.244942 508.03997,82.143231 511.70257,82.143231 C 516.12621,82.143231 519.59367,78.822939 519.86417,74.328036 C 520.21147,68.556773 522.6322,69.081833 524.44623,75.321894 C 525.91731,80.382231 525.90629,80.540826 523.80494,84.549837 C 521.02366,89.856029 517.6311,91.817976 509.85436,92.617561 C 504.54369,93.163601 502.91026,93.763067 499.80919,96.304159 C 490.26829,104.12222 481.63717,109.86322 472.43195,114.51421 C 458.87231,121.36527 453.02917,124.62684 449.52022,127.30325 C 447.8968,128.5415 446.09536,129.55461 445.51703,129.55461 C 443.95778,129.55461 432.77051,140.56936 432.77051,142.10457 C 432.77051,142.83047 433.82128,144.25094 435.10555,145.26114 L 437.44059,147.09788 L 435.55309,149.10703 C 433.27379,151.53323 433.8885,152.34854 437.99707,152.34854 C 442.30969,152.34854 444.62336,153.80232 444.62336,156.51214 C 444.62336,158.82164 444.29663,159.06242 439.83663,160.0397 C 436.78913,160.70745 436.70942,161.55552 439.4001,164.68363 C 441.14923,166.71712 442.56361,167.21363 448.50526,167.87995 C 454.86715,168.59342 461.05963,169.83068 471.52019,172.47839 C 475.32288,173.4409 503.05821,182.10456 512.54927,185.29461 C 515.55807,186.3059 519.90711,187.66432 522.21383,188.31333 C 529.59229,190.38931 538.53434,196.47838 538.53434,199.42674 C 538.53434,200.20736 537.76779,201.93512 536.8309,203.26619 C 535.894,204.59726 533.00356,209.4678 530.40771,214.08959 C 527.17497,219.84531 523.47459,224.72872 518.66274,229.58946 C 514.79886,233.4926 510.66579,237.78994 509.47813,239.13911 L 507.31876,241.59214 L 509.16014,244.60965 C 510.17291,246.26928 511.81614,249.06318 512.81177,250.81832 C 513.8074,252.57345 516.97798,258.11237 519.85751,263.12703 C 526.53107,274.74899 532.59334,286.84205 533.79799,290.93563 C 534.3145,292.69076 535.58021,296.44368 536.61071,299.27547 C 539.25018,306.5287 540.13521,320.37788 538.24685,324.87844 C 536.1425,329.89378 532.12408,334.59053 528.50502,336.26471 C 526.74989,337.07665 524.69843,338.23366 523.94623,338.83585 C 521.21306,341.02396 507.97991,342.14051 500.42712,340.82031 C 496.64393,340.15901 496.47783,340.23026 495.54154,342.9161 C 494.50586,345.88705 490.72369,348.38474 487.29329,348.36312 C 485.4071,348.35124 468.39037,344.16128 461.49087,342.00988 C 448.47598,337.95163 448.1514,337.89158 426.84409,335.6002 C 416.05969,334.44044 404.01655,334.41921 397.66786,335.54878 C 393.38642,336.31052 389.31315,337.3634 372.59454,342.02984 C 360.26876,345.47018 342.22645,356.41382 333.38898,365.81015 C 324.5692,375.18765 311.77437,398.76045 308.4449,411.76634 C 305.07131,424.94457 304.02545,434.2673 304.67176,445.40042 C 305.96248,467.63428 311.13653,479.35045 325.28996,492.08845 C 335.2873,501.08599 343.43045,503.56945 359.37406,502.4832 C 365.39166,502.07322 371.37853,501.93932 372.67824,502.18567 C 373.97795,502.43199 376.9669,501.9798 379.32035,501.18078 C 384.26656,499.5015 394.16119,499.28852 400.82615,500.71791 C 404.34347,501.47224 406.63224,502.79577 410.44447,506.27994 C 413.19593,508.79462 415.44713,511.21765 415.44713,511.66447 C 415.44713,512.11127 416.84206,514.30431 418.54698,516.53788 C 422.08341,521.17086 425.88177,532.16555 425.81159,537.56595 C 425.78551,539.57181 425.12624,542.44437 424.34653,543.94942 C 421.5981,549.25464 410.62195,550.20708 400.64071,546.00645 C 396.13536,544.11037 394.87049,544.17832 388.10258,546.68002 C 385.85047,547.51249 382.97844,547.98127 381.72028,547.72175 C 375.43697,546.42569 373.70014,545.72525 370.59428,543.23478 C 367.39798,540.67178 366.95668,540.57203 361.93259,541.27686 C 352.06624,542.66101 347.63515,541.50321 335.21249,534.29515 C 329.1784,530.79396 324.33071,529.55686 319.85149,530.37514 C 317.27811,530.84525 315.0195,532.5477 309.91123,537.86772 C 306.2756,541.65406 303.30099,545.07741 303.30099,545.47518 C 303.30099,545.87293 304.98637,545.31989 307.0463,544.24621 C 312.41577,541.44749 318.15283,541.17868 325.00561,543.40473 C 330.28455,545.11954 331.06712,545.16326 334.57906,543.93967 C 340.03405,542.0391 345.14469,542.25051 348.88885,544.53162 C 357.73374,549.92031 369.2932,565.65252 374.12709,578.88037 C 377.90304,589.21319 378.32499,591.77101 377.14149,597.15367 C 376.55108,599.83895 376.41479,602.33862 376.8386,602.70851 C 377.26244,603.07842 381.71211,603.88828 386.72678,604.50822 C 391.74144,605.12815 398.10095,606.01907 400.85901,606.48805 C 405.65403,607.30338 406.05308,607.21438 409.96951,604.45588 C 412.43295,602.7208 415.60672,601.39731 417.9328,601.13512 C 422.73315,600.59405 423.51619,599.67096 426.51839,591.0138 C 431.05272,577.93862 432.58542,574.02493 437.27351,563.55103 C 439.85474,557.78417 442.30239,552.24524 442.71271,551.2423 C 445.00652,545.63578 459.7578,517.21997 467.5617,503.37506 C 473.5372,492.77389 478.47397,485.00044 486.09098,474.19882 C 488.3895,470.93929 491.7534,466.01581 493.5663,463.25773 C 497.42048,457.39414 507.16149,447.07277 512.01657,443.70819 C 515.33066,441.41153 515.61055,441.37641 524.56379,442.13346 C 532.71684,442.82286 534.1603,443.2208 537.72341,445.7614 C 539.92456,447.33088 543.20663,449.62189 545.01691,450.85255 C 546.82719,452.0832 551.27678,455.89068 554.90489,459.31361 C 561.83961,465.85617 564.28104,467.299 567.14838,466.54917 C 569.15716,466.02386 574.72829,468.63629 577.03208,471.18386 C 579.04591,473.41077 581.38693,480.03063 581.38693,483.49833 C 581.38693,485.39655 582.79327,487.89036 586.17366,491.98646 C 590.96771,497.79553 594.96036,503.17324 598.11484,508.07016 L 599.79875,510.68422 L 596.97515,513.32186 C 595.42215,514.77257 594.15153,516.36315 594.15153,516.85647 C 594.15153,517.34981 593.12251,518.42768 591.86483,519.25175 C 588.87024,521.21388 567.71057,545.98941 567.71057,547.5336 C 567.71057,548.18871 566.17198,550.72875 564.29149,553.17814 C 560.25283,558.43859 560.01837,558.81642 554.07296,569.64619 C 551.54432,574.25219 549.47543,578.4434 549.47543,578.95996 C 549.47543,579.47655 548.24456,581.30108 546.74016,583.0145 C 545.23576,584.72792 544.00489,586.5437 544.00489,587.04958 C 544.00489,588.33371 541.24114,594.23156 538.35355,599.10956 C 537.01773,601.36615 535.05535,605.43385 533.99272,608.14887 C 531.59328,614.27942 531.73276,614.43502 542.63725,617.79329 C 547.15045,619.18321 551.4871,620.87841 552.27427,621.56039 C 553.97148,623.03082 563.6178,626.46227 566.05416,626.46227 C 568.2291,626.46227 581.62211,630.67386 586.4016,632.86076 C 588.40747,633.77855 591.00703,634.80466 592.17841,635.14097 C 595.91669,636.21427 603.60658,640.17634 607.37201,642.96919 C 609.37788,644.45696 612.6602,646.76436 614.66607,648.09673 C 616.67194,649.42911 618.72339,650.98396 619.22485,651.55197 C 619.72632,652.11997 621.92053,653.87177 624.10088,655.44483 C 631.18893,660.55868 641.83469,673.2857 643.03947,678.08593 C 644.40905,683.54282 646.76842,686.11186 652.49941,688.38658 C 656.90668,690.13589 659.15782,691.82939 663.40732,696.5924 C 672.81234,707.13392 674.06048,708.82617 678.25716,716.72623 C 688.41048,735.8394 691.21971,746.30947 692.21813,768.75908 C 692.83599,782.65165 691.46572,796.04256 688.57754,804.33672 C 687.80741,806.54833 687.17101,808.97326 687.16332,809.72547 C 687.15563,810.47766 685.91878,813.69425 684.41478,816.87345 C 681.01056,824.06933 681.00642,825.40802 684.37949,828.24628 C 688.71886,831.89763 694.02113,833.19286 708.71838,834.19184 C 716.3181,834.7084 723.29305,835.49292 724.21826,835.93523 C 738.17961,842.60961 738.49437,842.85594 742.06626,849.90331 C 745.07455,855.83868 745.32557,856.82763 744.23912,858.4639 C 743.13112,860.13265 737.49915,861.93721 733.65038,861.85669 C 721.9976,861.61287 693.7343,858.5653 687.15077,856.84273 C 681.7033,855.4174 637.66489,855.58999 630.16595,857.06605 C 612.50497,860.54237 608.50066,862.45331 596.98166,872.90225 C 593.66996,875.9063 589.31923,879.42072 587.31336,880.71205 C 583.15366,883.38999 575.53484,886.31307 572.71466,886.31307 C 571.66739,886.31307 570.42078,886.66757 569.94438,887.10087 C 569.46798,887.53415 567.17837,888.34829 564.85635,888.91007 C 556.26756,890.98798 552.70171,893.13508 549.2695,898.29545 C 545.51523,903.94004 538.71968,910.93048 536.98677,910.93048 C 536.33353,910.93048 535.79908,911.34078 535.79908,911.84224 C 535.79908,912.86141 517.36424,912.96361 514.37278,911.96114 z M 526.71683,906.28354 C 530.90362,905.35983 533.08183,903.66561 541.12414,895.07795 C 547.19491,888.5954 557.1839,883.61651 564.17665,883.58767 C 568.24391,883.57089 574.38884,879.36891 585.22744,869.19287 C 596.22888,858.86395 600.31811,856.60743 612.0231,854.40645 C 627.80009,851.4398 635.81127,849.54447 637.00412,848.4963 C 637.75632,847.83533 641.199,846.02111 644.6545,844.46472 C 658.87434,838.05995 669.20259,826.17155 676.28561,808.05553 C 680.65694,796.87507 683.11412,783.23322 681.39214,779.7048 C 679.49428,775.81598 678.12574,776.45081 675.32739,782.51813 C 672.23888,789.21457 669.88689,792.07957 664.81272,795.32628 C 661.03458,797.74373 658.4893,798.71628 644.91828,802.92788 C 635.75204,805.77252 631.71589,809.12863 629.06782,816.10777 C 625.89811,824.46173 623.17108,827.96646 617.65529,830.77497 C 613.6565,832.81107 611.19413,833.43115 607.10762,833.43115 C 595.9497,833.43115 589.51757,837.2302 583.88341,847.14818 C 579.25139,855.30209 572.11462,860.54549 565.41831,860.7145 C 561.47012,860.81415 553.82938,863.7989 549.95236,866.75605 C 545.73146,869.97549 543.27318,874.7813 542.33385,881.6499 C 541.92787,884.61842 540.89653,888.11431 540.04197,889.41858 C 538.0589,892.44507 532.68255,895.83233 524.71611,899.07436 C 517.08439,902.18007 513.9169,904.17327 513.9169,905.87005 C 513.9169,908.23469 517.36772,908.3462 526.71683,906.28354 z M 510.26987,903.53759 C 510.26987,901.39687 518.95967,894.47573 522.93805,893.44782 C 528.98178,891.88634 534.33029,886.28724 536.28569,879.47489 C 539.07414,869.7604 541.58354,865.85716 547.3658,862.24033 C 550.24985,860.43635 553.44294,858.94925 554.46157,858.93569 C 557.16722,858.89964 568.25403,853.98717 571.89189,851.21244 C 573.61544,849.89781 575.57265,847.51325 576.24123,845.91341 C 577.93089,841.87027 586.46631,832.75049 590.41625,830.76793 C 592.21992,829.86264 596.86371,828.8446 600.73579,828.50561 C 607.99248,827.87032 613.42378,826.14874 616.33183,823.56208 C 617.24802,822.74716 619.00649,819.8134 620.23958,817.04262 C 625.58318,805.03542 628.57103,802.17687 637.00412,801.00359 C 644.50359,799.96022 654.66996,796.31182 658.09831,793.43355 C 661.81696,790.31155 665.1936,784.78281 666.91009,779.00558 C 667.59267,776.70819 669.14596,774.34313 670.80237,773.07915 C 678.27791,767.37472 678.96525,766.49436 680.05058,761.23392 C 682.38267,749.93051 676.7284,724.87569 668.44948,709.82781 C 664.8499,703.28515 652.70879,690.28528 650.19792,690.28528 C 649.09562,690.28528 648.85697,692.14966 648.85697,700.7607 C 648.85697,709.02818 648.47271,712.24711 647.0339,716.03263 C 646.03123,718.67071 645.20552,721.85487 645.19898,723.10853 C 645.18327,726.12565 639.93491,735.20925 636.77618,737.68629 C 635.39715,738.76772 634.26885,740.24022 634.26885,740.95852 C 634.26885,742.30121 622.76696,756.08697 621.07888,756.76757 C 620.56064,756.97651 617.86524,759.45437 615.08912,762.27393 C 612.31299,765.09348 608.21009,768.29502 605.97154,769.38844 C 603.73301,770.48188 598.414,773.84924 594.15153,776.87147 C 589.88907,779.89371 584.75735,783.13122 582.74772,784.06593 C 580.73809,785.00066 577.79706,786.85661 576.2121,788.19026 C 574.62714,789.52392 571.46874,791.43857 569.19342,792.44505 C 566.91811,793.45153 563.90992,795.21363 562.50855,796.36081 C 559.35804,798.93992 552.0388,803.82151 548.7445,805.54082 C 546.64088,806.6387 538.30999,814.7138 528.04914,825.60073 C 519.41955,834.75686 513.22962,842.25122 511.53861,845.59059 C 510.48128,847.67856 508.94522,850.61777 508.12514,852.12217 C 507.30506,853.62657 506.63155,855.30727 506.62846,855.85706 C 506.62537,856.40685 505.90483,858.25316 505.02727,859.95997 C 502.69028,864.50527 502.76623,886.927 505.14897,895.88649 C 506.08251,899.39676 507.25656,902.78166 507.75797,903.40849 C 508.88704,904.81998 510.26987,904.89109 510.26987,903.53759 z M 549.47543,852.66812 C 549.47543,851.59426 554.34238,848.7488 559.63897,846.72602 C 565.8152,844.3673 569.99467,840.47644 573.21898,834.08374 C 576.97055,826.64572 579.69164,823.90182 586.77387,820.41525 C 591.6341,818.02257 593.73585,817.52322 599.09127,817.48883 C 604.45466,817.45437 606.04857,817.07457 608.50049,815.24675 C 611.84634,812.75255 613.15364,813.24333 611.69451,816.44582 C 611.10776,817.73358 609.6582,818.8127 608.12731,819.10136 C 602.52415,820.15795 594.48571,822.42513 592.29644,823.56636 C 587.91581,825.8499 581.31179,831.89625 575.42034,839.01738 C 568.97017,846.81385 567.24728,847.96773 557.12075,851.27336 C 549.4099,853.79043 549.47543,853.77848 549.47543,852.66812 z M 647.03608,792.17414 C 647.03751,791.54731 648.28782,790.21387 649.81453,789.21093 C 651.34125,788.208 653.42497,786.05397 654.44506,784.42421 C 655.46514,782.79444 656.88172,781.461 657.59302,781.461 C 661.01701,781.461 656.89091,790.90751 652.78507,792.46853 C 649.66516,793.65473 647.03297,793.51994 647.03608,792.17414 z M 175.88292,857.33162 C 180.94623,855.81399 183.8608,854.47674 183.8608,853.67124 C 183.8608,852.67561 182.8291,852.52493 179.07407,852.97216 C 176.44138,853.28572 170.50212,853.83818 165.87575,854.19986 C 158.84822,854.74924 157.12293,855.19994 155.39054,856.93891 C 153.61943,858.71674 153.51645,859.14519 154.68457,859.87598 C 156.80641,861.20339 167.0791,859.97041 175.88292,857.33162 z M 101.62686,858.82876 C 103.98015,858.25492 106.3854,857.41152 106.97186,856.95453 C 108.90922,855.44488 125.53979,855.76971 133.49661,857.47261 L 141.02899,859.08467 L 144.89356,855.79676 C 147.27083,853.77423 149.14556,851.2063 149.7648,849.12436 C 150.6544,846.13341 151.07845,845.76796 153.41182,845.98144 C 163.17212,846.87441 171.74672,846.40982 175.12391,844.80503 C 177.08842,843.87152 180.0639,843.14653 181.73608,843.19392 C 183.40827,843.24133 185.00492,842.9104 185.28417,842.45853 C 185.56344,842.00668 190.10125,841.63697 195.3682,841.63697 C 209.37766,841.63697 212.6498,840.33522 221.77634,831.13109 C 228.6008,824.2486 229.68372,823.52247 236.36445,821.34927 C 241.67917,819.62045 245.70321,818.97099 251.63437,818.8848 C 260.54399,818.75533 264.42971,817.57419 272.1966,812.63446 C 281.78183,806.53828 285.53864,805.34413 296.87153,804.79127 L 307.30956,804.28206 L 313.63055,799.93765 C 326.64261,790.99445 330.84277,788.94685 338.03441,788.04066 C 341.74775,787.57276 348.88885,787.42185 353.90351,787.7053 C 370.11828,788.62182 377.44899,788.19466 381.56808,786.09326 C 383.61321,785.0499 385.74178,784.19626 386.29824,784.19626 C 386.85469,784.19626 389.02507,783.0313 391.12128,781.60744 C 393.66344,779.88069 397.51328,778.51422 402.68253,777.50383 C 412.24893,775.63399 415.94727,775.60443 420.91767,777.35809 C 426.73562,779.41078 430.14181,779.05019 438.80363,775.46462 C 448.34062,771.51678 454.71714,771.14617 464.22613,773.98709 C 470.25831,775.78925 470.90854,775.81716 476.07898,774.49555 C 487.75841,771.5102 490.80018,771.40018 499.46161,773.64984 C 505.32991,775.17403 508.69019,776.64681 511.76489,779.0423 C 517.05313,783.16234 520.19345,783.75905 530.157,782.53712 C 538.71804,781.48721 545.88663,781.74672 549.8397,783.24968 C 553.61201,784.68391 556.26816,784.39717 558.98156,782.2628 L 561.43956,780.32935 L 559.52782,778.29439 C 558.47636,777.17516 555.17932,775.52164 552.20106,774.6199 C 547.50802,773.19895 545.93904,773.12024 540.43311,774.02952 C 536.939,774.60657 530.61999,775.0787 526.39087,775.0787 C 518.76172,775.0787 518.61684,775.035 507.87547,769.49461 C 497.40955,764.09629 496.80674,763.90672 489.75534,763.79613 C 485.7436,763.73321 481.2662,763.88687 479.80556,764.1376 C 475.62534,764.85518 475.94678,762.65129 480.35017,760.40364 C 483.68425,758.7018 485.7798,758.39565 494.07967,758.39776 L 503.87456,758.40024 L 509.12367,761.95274 C 512.01069,763.90662 515.19337,765.87723 516.19629,766.33189 C 517.19922,766.78654 524.7896,767.41545 533.0638,767.72944 C 546.58453,768.24254 548.61611,768.53579 553.12801,770.62551 C 555.88912,771.90435 559.47816,774.28061 561.10365,775.9061 C 563.9115,778.71395 564.18437,778.79624 566.56863,777.55408 C 574.13921,773.60996 592.17166,762.27798 596.88681,758.50148 C 623.12142,737.48942 629.98876,729.8986 638.80479,712.16745 C 643.87503,701.96997 641.04478,687.04434 631.11664,671.62305 C 627.76637,666.4191 615.97339,653.81499 614.4546,653.81499 C 613.90385,653.81499 608.78561,650.6152 603.08076,646.70433 C 597.3759,642.79347 589.85326,638.44235 586.3638,637.03518 C 582.87431,635.62801 578.99357,633.9517 577.73991,633.31004 C 576.48623,632.66837 574.02449,631.85268 572.26936,631.49739 C 570.51423,631.1421 565.59074,629.61398 561.32827,628.10155 C 548.17433,623.43421 537.09657,621.90325 515.28454,621.73831 C 496.71498,621.59789 469.74701,622.70182 465.57244,623.77325 C 463.80559,624.22675 461.13869,624.56672 459.64603,624.52879 C 456.18294,624.44078 449.26652,625.47171 446.90275,626.42826 C 445.89982,626.83411 443.23293,627.67109 440.97632,628.28823 C 438.71973,628.90535 435.6839,629.77271 434.23004,630.21567 C 432.77617,630.65864 429.96,631.02106 427.97187,631.02106 C 425.98375,631.02106 422.86522,631.79609 421.04181,632.74337 C 419.2184,633.69064 414.85449,634.98346 411.34422,635.61629 C 407.83395,636.24912 403.12554,637.55066 400.88108,638.5086 C 398.63662,639.46655 394.11074,640.81608 390.82358,641.50755 C 387.5364,642.19902 381.58662,644.02021 377.60182,645.55462 C 373.61703,647.08901 369.64868,648.34445 368.78327,648.34445 C 367.91787,648.34445 366.26734,648.70163 365.11544,649.13818 C 363.96354,649.57474 360.76449,650.58232 358.00642,651.37725 C 355.24836,652.1722 349.70786,653.86652 345.69421,655.14243 C 337.66206,657.6958 323.1072,659.42243 314.88478,658.79732 C 301.61165,657.78825 293.21789,655.38836 295.38435,653.2219 C 295.73443,652.87181 300.83865,652.53468 306.72705,652.47272 C 316.16044,652.37343 321.33686,651.65767 329.74195,649.29036 C 330.99561,648.93726 332.02134,648.06712 332.02134,647.35671 C 332.02134,646.03334 329.97769,645.54109 317.43322,643.843 C 313.92297,643.36783 306.84815,642.33995 301.71142,641.55883 C 296.57468,640.77773 290.01003,640.13226 287.1233,640.12447 C 284.23657,640.11669 278.38722,639.14868 274.12476,637.97335 L 266.37483,635.83638 L 266.52917,631.83315 C 266.8674,623.06086 267.96554,616.86002 269.3776,615.74913 C 270.42575,614.92453 275.81713,614.60943 288.87828,614.60943 L 306.93031,614.60943 L 313.09352,610.38992 C 319.55942,605.9632 320.87459,603.42927 316.97735,602.90701 C 315.72369,602.73899 313.57477,601.53884 312.202,600.23998 C 309.76185,597.93123 309.57596,597.90238 303.89106,598.94986 C 296.5808,600.29683 293.70968,600.29773 289.99431,598.95423 C 287.53369,598.06446 286.65717,598.14021 284.71905,599.41012 C 282.1676,601.08189 273.81674,601.49066 270.2927,600.11627 C 269.1408,599.66702 266.35203,598.7751 264.09544,598.13421 C 261.83883,597.49333 259.60275,596.63003 259.12636,596.21575 C 257.69929,594.97477 254.50279,595.35474 250.2907,597.26602 C 243.16634,600.49878 233.64429,598.89651 229.00365,593.68408 C 225.5572,589.81295 216.91304,586.65416 205.74297,585.18404 C 199.97611,584.42504 193.82175,583.28848 192.06662,582.65835 C 190.31148,582.02821 187.64459,581.07869 186.14019,580.54831 C 183.37525,579.57352 173.83147,571.24046 173.83147,569.80106 C 173.83147,568.48163 176.20879,568.93553 178.49524,570.69152 C 179.69116,571.60998 182.51596,573.30274 184.77256,574.45317 C 187.02915,575.60361 189.67284,576.95663 190.64742,577.45988 C 195.1067,579.76259 210.83606,579.59811 216.22818,577.19239 C 217.23111,576.74491 220.10315,575.97503 222.61048,575.48151 C 225.11781,574.98799 232.70819,573.34914 239.47799,571.83962 C 254.54865,568.47919 256.3126,568.43775 263.30737,571.27999 C 266.36426,572.52211 271.17721,573.95762 274.00279,574.47 C 278.40066,575.26748 279.82487,575.14145 283.89601,573.59455 C 293.38189,569.99019 300.0326,570.97273 309.39169,577.36111 C 312.56212,579.5252 314.14366,579.96266 318.79714,579.96266 C 321.87392,579.96266 325.20767,579.52574 326.20546,578.99174 C 327.20325,578.45773 330.56118,577.9762 333.66752,577.92166 C 342.27064,577.77061 348.2268,580.87365 356.77456,589.95996 C 362.05676,595.57498 364.23574,597.28604 366.10409,597.28604 C 369.72456,597.28604 372.59454,594.89487 372.59454,591.87843 C 372.59454,587.01487 365.98316,571.6589 362.5525,568.5542 C 361.55656,567.65287 360.7417,566.35467 360.7417,565.66928 C 360.7417,564.9839 358.51896,562.2004 355.80229,559.48373 C 350.65847,554.33992 348.95924,553.648 340.22716,553.14156 C 335.26906,552.854 328.40792,551.27728 325.85564,549.8389 C 324.27214,548.94649 320.67602,549.74484 311.05093,553.12559 C 307.66625,554.31444 302.15661,555.65127 295.55106,556.88639 C 294.04666,557.16766 292.28862,557.81867 291.64432,558.33303 C 290.04666,559.6085 281.25072,557.66095 275.94828,554.85771 C 273.69168,553.66471 269.38363,551.38217 266.37483,549.78538 C 258.27674,545.48767 257.54187,545.31176 236.69779,542.68126 C 233.1628,542.23514 229.57276,541.25795 228.71991,540.50971 C 227.86706,539.76147 226.24614,538.86795 225.11787,538.52413 C 223.9896,538.1803 221.22015,535.63241 218.9635,532.86215 C 215.50108,528.61167 214.86055,527.206 214.86055,523.85812 C 214.86055,519.57197 218.00484,513.05791 219.75999,513.70788 C 220.32483,513.91706 220.64557,514.65235 220.47275,515.34187 C 220.29994,516.03138 219.69361,518.79136 219.12535,521.47513 C 218.09436,526.34444 218.09838,526.36027 221.03103,528.98059 L 223.96988,531.60646 L 236.51066,531.42461 L 249.05144,531.24278 L 259.79955,537.34784 C 265.71102,540.70562 271.86538,544.42964 273.47591,545.62343 C 275.08645,546.81724 278.51449,548.53261 281.09377,549.4354 C 285.26135,550.89409 286.40107,550.94573 291.33212,549.89929 C 295.96521,548.91608 297.1632,548.25269 298.59194,545.87913 C 299.53303,544.31567 303.43931,539.48163 307.27255,535.13681 C 311.10579,530.79199 314.24208,527.0176 314.24208,526.74927 C 314.24208,526.48095 312.95617,525.05962 311.38449,523.59076 C 307.69069,520.1386 308.54971,518.49433 313.06204,520.3797 C 315.5471,521.41802 318.63142,521.67434 325.12291,521.38198 C 329.91998,521.16592 338.27497,521.39679 343.68954,521.89501 C 352.84574,522.7375 353.70656,522.67541 355.99827,521.0071 C 361.63087,516.9067 365.03752,516.27342 374.41805,517.58296 C 379.18199,518.24801 384.57205,519.16741 386.39598,519.62607 C 389.2763,520.35038 390.26196,520.11784 393.89437,517.85698 C 398.25156,515.14499 398.56757,513.77784 395.30778,511.74207 C 393.17788,510.41193 379.62804,508.65862 376.76842,509.34313 C 375.72645,509.59256 368.30928,509.93099 360.28581,510.09523 C 347.88941,510.34897 344.73883,510.12248 339.3154,508.58768 C 335.80514,507.59429 332.11252,506.09521 331.10958,505.2564 C 330.10665,504.41759 327.64491,502.67418 325.63904,501.38217 C 318.22898,496.60921 309.27103,485.96701 305.97575,478.02183 C 304.99968,475.66844 303.59354,472.66284 302.85099,471.34271 C 297.22495,461.34049 296.67094,428.24697 301.84853,411.46086 C 302.57396,409.10895 304.2767,403.49205 305.63239,398.97885 C 309.20784,387.07596 317.99161,371.57948 328.58355,358.488 C 335.67295,349.72562 348.44383,339.00512 359.06302,332.90207 C 365.67017,329.10482 372.65153,325.5824 373.57044,325.5824 C 374.13579,325.5824 375.89122,325.00235 377.4714,324.2934 C 386.46081,320.2603 403.26848,319.11674 419.09415,321.46148 C 424.86102,322.3159 430.03338,323.3889 430.58829,323.84591 C 431.14319,324.30293 433.39978,325.06203 435.60295,325.53279 C 437.80611,326.00355 442.48072,327.28306 445.99099,328.37612 C 449.50126,329.4692 456.06591,331.24947 460.57911,332.33229 C 465.0923,333.41512 469.6811,334.8011 470.77644,335.41227 C 472.94894,336.62447 475.88224,336.87218 476.83087,335.92356 C 477.84063,334.9138 475.52222,332.87646 473.36339,332.87646 C 471.58734,332.87646 451.9718,323.5672 448.93222,321.28177 C 448.31747,320.81954 445.14762,319.28829 441.88808,317.87899 C 438.62855,316.46967 435.34623,314.8209 434.59403,314.21504 C 432.66344,312.66006 417.65831,307.68269 405.75194,304.64779 C 403.67913,304.11944 401.59004,303.17723 401.10954,302.55399 C 399.55265,300.53465 397.03618,293.3303 396.25506,288.65624 C 394.90719,280.59095 393.85074,276.94424 390.84019,269.96521 C 389.21781,266.20421 386.85364,260.3511 385.58647,256.95828 C 383.8138,252.21194 382.78613,250.66495 381.12969,250.24921 C 377.95877,249.45335 378.49829,247.77603 382.68141,245.42499 C 388.42036,242.19951 395.75353,244.15347 392.28663,247.98434 C 391.48531,248.86979 390.82968,250.18065 390.82968,250.89736 C 390.82968,253.51949 397.6053,264.55884 408.68862,279.99454 C 414.20775,287.68102 429.24307,301.13635 442.24788,310.02725 C 443.30366,310.74904 444.98806,312.0301 445.99099,312.87404 C 448.04857,314.60543 474.51904,328.31768 475.80378,328.31768 C 476.2609,328.31768 478.39346,329.11879 480.5428,330.09792 C 488.42931,333.69064 501.7595,334.71052 512.22135,332.52161 C 525.62684,329.71683 531.83639,321.05478 531.01994,306.29847 C 530.64556,299.53181 527.77556,287.31268 525.37712,282.27394 C 524.66103,280.76954 523.22295,277.69236 522.18139,275.43575 C 521.13982,273.17916 518.19984,268.05701 515.64809,264.05322 C 513.09634,260.04942 509.69043,254.30534 508.07938,251.28861 C 506.46835,248.27189 504.02068,244.02869 502.64013,241.85929 C 501.25959,239.68989 499.87137,237.22815 499.55518,236.38874 C 499.23901,235.54934 497.41864,232.87822 495.50993,230.45289 C 492.87826,227.10893 492.17304,225.5114 492.59186,223.84266 C 493.00792,222.18496 492.77449,221.64208 491.64561,221.64208 C 490.82141,221.64208 489.12856,220.97474 487.88375,220.15911 C 486.15002,219.02313 484.52059,218.82203 480.91995,219.29967 C 475.26638,220.04964 473.78145,220.77383 467.87316,225.66249 C 465.36584,227.73711 461.72968,230.60932 459.79282,232.04515 L 456.27127,234.65579 L 450.08892,233.1636 C 446.68862,232.34289 442.45982,231.67141 440.69158,231.67141 C 436.30143,231.67141 427.01599,229.24999 420.72212,226.46384 C 414.88838,223.88138 412.71185,224.15913 412.71185,227.48608 C 412.71185,228.72589 412.32,229.98246 411.84107,230.27846 C 411.36214,230.57445 404.07947,230.95877 395.65738,231.13251 C 381.28069,231.42908 379.99468,231.60246 374.62313,233.96839 C 371.47639,235.35439 368.65624,236.24284 368.35612,235.94274 C 364.95538,232.54199 383.24877,224.57016 396.68386,223.59816 C 401.15732,223.27452 404.95146,222.59943 405.11525,222.09796 C 405.27905,221.5965 403.14708,220.00213 400.37753,218.55493 C 393.93344,215.18763 391.47152,212.19823 389.10188,204.86342 C 387.65513,200.38524 387.12615,196.07988 386.92481,187.14438 C 386.74486,179.15799 386.27624,174.87988 385.47575,173.91534 C 383.08032,171.02901 376.39482,167.84841 372.72334,167.84841 C 368.71515,167.84841 362.98965,164.78217 362.08092,162.14896 C 361.31767,159.93728 358.25119,158.47173 355.71742,159.10766 C 352.53389,159.90667 349.74792,164.99375 350.37559,168.86165 C 351.23485,174.15664 349.18455,174.89343 342.90921,171.54473 C 340.03924,170.01322 336.77334,168.76016 335.65167,168.76016 C 333.24748,168.76016 331.15796,166.57841 331.8457,164.78619 C 332.11203,164.09213 333.48951,163.23324 334.90675,162.87754 C 339.11636,161.82099 344.93996,156.41356 346.49039,152.12169 C 347.26051,149.98986 348.37131,143.73243 348.95884,138.2163 C 350.6004,122.80401 351.68015,120.96932 369.30847,103.63863 C 377.50838,95.577168 386.42317,86.479256 389.11911,83.421056 C 399.78052,71.327098 410.80285,51.974739 413.53901,40.546083 C 415.17237,33.723696 415.27548,25.158407 413.72425,25.158407 C 413.0274,25.158407 411.96742,26.79957 411.36875,28.805436 C 409.70581,34.377109 402.60457,48.111827 398.89005,52.940825 C 397.91465,54.208888 389.73668,65.298517 380.71679,77.584439 C 363.75891,100.68269 358.10303,106.73972 348.20506,112.40215 C 345.57238,113.90826 343.189,115.51166 342.90865,115.96527 C 342.62831,116.41887 341.76331,116.79001 340.98645,116.79001 C 339.36126,116.79001 328.72449,124.84577 324.84104,129.01772 C 319.14171,135.14051 316.43241,141.3113 318.80087,142.77509 C 319.30233,143.08501 319.71263,144.08472 319.71263,144.99665 C 319.71263,145.90858 320.32805,147.16548 321.08026,147.78975 C 323.24523,149.58653 322.70106,151.10728 319.14165,153.2074 C 316.14889,154.97315 315.68823,155.02493 314.28314,153.75332 C 313.16336,152.73994 310.71856,152.3447 305.5086,152.3348 C 301.53635,152.32725 296.64516,151.72983 294.6393,151.00719 C 292.63343,150.28455 289.07685,149.67529 286.73579,149.65328 C 282.86009,149.61685 282.30786,149.89065 280.56297,152.71395 C 279.509,154.41932 278.05874,156.04024 277.34018,156.31597 C 276.62163,156.5917 275.04115,158.37615 273.828,160.2814 C 272.61485,162.18666 268.56406,168.46384 264.82624,174.23071 C 258.88862,183.39148 248.59556,202.70423 248.59556,204.68412 C 248.59556,205.06723 247.3395,208.2425 245.80431,211.74029 C 242.88876,218.38313 239.15251,228.28091 235.18308,239.87722 C 233.8957,243.63823 232.53646,247.1257 232.16256,247.62717 C 231.78866,248.12863 231.20824,249.97494 230.87271,251.73007 C 230.25234,254.97543 229.08283,258.26096 225.35548,267.22994 C 224.20928,269.98801 222.44518,274.29606 221.43528,276.80339 C 216.5332,288.97403 214.01927,294.31623 206.84747,307.80314 C 202.58093,315.8266 198.12526,323.92104 196.94599,325.79079 C 195.76674,327.66055 194.80188,329.54263 194.80188,329.97322 C 194.80188,330.40379 193.16073,333.04795 191.15486,335.84911 C 189.14899,338.65027 187.50783,341.2264 187.50783,341.57386 C 187.50783,342.37106 182.71048,348.99872 173.67444,360.68505 C 161.1377,376.89885 159.66112,378.86014 157.02876,382.79517 C 155.60306,384.9264 154.15085,386.67013 153.80165,386.67013 C 153.45245,386.67013 149.84551,390.87561 145.78624,396.01564 C 141.72696,401.15567 136.52955,407.31723 134.23643,409.70801 C 131.94331,412.09878 130.06713,414.37747 130.06713,414.77176 C 130.06713,415.16605 128.63111,416.88049 126.87598,418.58164 C 125.12085,420.28277 123.68483,422.05727 123.68483,422.52495 C 123.68483,422.99264 122.35138,424.91526 120.72162,426.79744 C 114.08605,434.46072 105.59193,444.98176 93.502581,460.51163 C 91.194131,463.47704 86.846047,468.69294 83.840171,472.10251 C 80.834296,475.51208 77.208325,480.14804 75.782459,482.40464 C 74.356592,484.66124 72.113308,487.73842 70.797383,489.24282 C 68.102204,492.32402 67.331969,493.41539 60.180143,504.28681 C 57.376056,508.54928 53.957896,513.67791 52.584232,515.68377 C 51.210567,517.68964 48.607425,522.08468 46.799471,525.45054 C 44.991518,528.8164 41.857152,534.29469 39.834214,537.62451 C 37.811276,540.95434 36.156145,544.08636 36.156145,544.58457 C 36.156145,545.08278 35.594836,546.57944 34.908792,547.91048 C 31.00504,555.48439 27.775988,563.22659 25.153275,571.30096 C 23.524416,576.31563 21.223106,583.11427 20.039254,586.40905 C 18.855402,589.70384 17.250216,596.04662 16.472173,600.50412 C 15.694131,604.96161 14.894904,608.87183 14.696114,609.19347 C 14.497324,609.51512 13.722494,615.89136 12.97427,623.36289 C 11.411436,638.96885 11.790614,659.81843 13.868004,672.50601 C 15.500915,682.47896 19.925266,699.86517 22.568716,706.6969 C 23.635914,709.45497 24.715227,712.84489 24.96719,714.23006 C 25.219152,715.61523 25.788288,716.97289 26.231938,717.24709 C 26.675587,717.52127 27.038573,718.3444 27.038573,719.07626 C 27.038573,721.3878 41.360852,747.524 46.638071,754.84267 C 55.739244,767.46455 79.255801,789.32486 91.852966,796.87313 C 93.564298,797.89857 96.400499,799.58256 98.155633,800.61535 C 99.910767,801.64815 103.1931,803.6953 105.44969,805.16461 C 107.70628,806.6339 110.72796,808.50119 112.16451,809.31415 C 116.84767,811.96433 128.01863,821.49404 132.70678,826.83831 C 141.49459,836.85603 147.64553,852.12217 142.894,852.12217 C 142.17605,852.12217 138.86703,848.6347 135.5406,844.37224 C 126.16143,832.35376 119.99861,829.72907 116.00659,836.05285 C 112.49951,841.60842 108.05173,844.408 98.611517,847.00188 C 80.125465,852.08126 77.641097,853.17702 77.641097,856.25108 C 77.641097,857.99714 78.239949,858.61462 80.376368,859.07146 C 85.020308,860.0645 97.126164,859.92625 101.62686,858.82876 z M 162.55835,828.42911 C 156.44108,825.94286 153.77281,823.81928 153.77281,821.43699 C 153.77281,819.61149 155.60526,819.25888 158.11604,820.60123 C 158.9868,821.06677 161.54554,822.28636 163.80214,823.31141 C 172.60287,827.30913 171.45216,832.04382 162.55835,828.42911 z M 186.14019,825.22534 C 185.13726,824.79436 182.77252,824.41291 180.88522,824.37767 C 178.99791,824.34242 176.74132,823.96977 175.87055,823.54954 C 174.99979,823.12933 172.03075,821.72504 169.27269,820.42889 C 161.35223,816.70669 157.17622,814.65888 154.2287,813.05168 C 152.7243,812.23138 150.76984,811.55769 149.88548,811.5546 C 149.0011,811.5515 147.56509,811.18081 146.69432,810.73082 C 145.82356,810.28083 143.3413,809.18103 141.17817,808.28681 C 136.68408,806.42898 124.08342,794.39611 120.80172,788.82852 C 119.62937,786.83955 117.09317,782.71269 115.16573,779.65776 C 108.71764,769.43766 113.38269,768.29685 123.11736,777.71323 C 132.86565,787.14281 136.04126,789.70889 146.17867,796.34823 C 154.82702,802.01235 159.06661,804.25493 161.12623,804.25493 C 162.87676,804.25493 161.88943,801.60669 159.33869,799.4604 C 156.52532,797.09309 153.77281,792.4977 153.77281,790.16796 C 153.77281,786.33653 160.81392,790.66931 167.40375,798.55585 C 169.90014,801.54346 174.3165,805.58497 177.21791,807.53697 C 180.1193,809.48897 184.25966,812.59542 186.41871,814.4402 C 192.91319,819.98934 201.46256,822.00271 208.19455,819.56839 C 210.79401,818.62841 211.45531,818.69407 212.78551,820.02426 C 216.35657,823.59535 209.30877,826.07606 195.71364,826.0333 C 191.45118,826.0199 187.14313,825.65631 186.14019,825.22534 z M 231.65038,815.98207 C 230.71964,814.47613 233.9158,810.69999 237.32784,809.27435 C 241.87267,807.37539 253.15435,807.38809 253.15435,809.29216 C 253.15435,811.11405 250.40732,812.0766 242.96976,812.86081 C 239.35781,813.24166 236.70478,813.97976 236.43669,814.6784 C 235.86289,816.1737 232.35869,817.12815 231.65038,815.98207 z M 258.9836,808.6565 C 258.1757,807.34927 263.53799,802.59644 270.47774,798.46874 C 276.671,794.78505 283.84812,792.74442 295.02356,791.48975 C 302.84647,790.61147 304.1086,790.18747 309.15579,786.74218 C 312.20398,784.66145 317.76379,781.3911 321.51094,779.47474 C 327.73564,776.29132 328.95644,775.99045 335.6492,775.99045 C 339.6781,775.99045 344.40777,776.43483 346.1596,776.97796 C 350.82868,778.42555 371.70431,778.66262 373.96217,777.2937 C 376.57561,775.70919 384.44738,774.71033 384.44738,775.9632 C 384.44738,776.51113 383.72938,777.17204 382.85181,777.4319 C 381.97424,777.69175 379.61507,778.80718 377.6092,779.91062 C 374.15594,781.81028 372.87225,781.91687 353.44764,781.91687 C 330.3344,781.91687 328.50625,782.27682 318.02692,788.89073 C 308.44082,794.94089 304.72834,796.17845 293.72754,796.99093 C 283.08739,797.77678 276.95067,799.66818 270.02185,804.29723 C 266.33008,806.76366 260.91185,809.72547 260.09162,809.72547 C 259.84557,809.72547 259.34696,809.24443 258.9836,808.6565 z M 100.075,764.6642 C 96.649523,762.13695 89.461028,752.608 87.575262,748.09473 C 86.064287,744.47845 85.939956,741.67554 87.254486,740.86312 C 88.555425,740.0591 90.484783,741.81306 94.802428,747.72489 C 96.817181,750.48356 100.44733,755.05295 102.86941,757.87912 C 107.74564,763.56883 108.59116,766.87288 105.17095,766.87288 C 104.0147,766.87288 101.72153,765.87897 100.075,764.6642 z M 78.300063,734.32584 C 76.64701,731.99614 74.622251,727.82144 71.843816,721.01418 C 70.428883,717.54754 70.53545,713.79012 72.109174,711.6579 C 73.848977,709.30065 74.527765,710.19844 77.664466,719.00562 C 79.093255,723.01736 81.036662,727.6165 81.983147,729.22594 C 85.314402,734.89054 81.978401,739.50983 78.300063,734.32584 z M 68.703392,702.36605 C 67.77563,700.71233 67.204407,696.69028 67.71013,695.37239 C 68.014067,694.58034 68.994539,693.9323 69.888957,693.9323 C 71.08597,693.9323 71.625521,694.83469 71.933276,697.3514 C 72.163233,699.23189 72.164225,701.28335 71.93548,701.91018 C 71.481113,703.15528 69.317373,703.46047 68.703392,702.36605 z M 229.63534,521.58843 C 228.14812,520.20287 227.62515,518.66637 227.62515,515.68246 C 227.62515,510.49253 230.91498,501.55154 232.82461,501.55154 C 233.9859,501.55154 234.11572,502.17727 233.53397,504.97063 C 232.83751,508.31472 232.79855,510.64404 233.3028,518.79107 C 233.58908,523.41627 232.49393,524.2516 229.63534,521.58843 z M 235.3504,495.1293 C 234.49593,493.74676 236.8119,491.22669 237.91925,492.33404 C 238.94179,493.35658 238.14627,496.081 236.82514,496.081 C 236.33753,496.081 235.6739,495.65273 235.3504,495.1293 z M 206.65473,338.19213 C 206.65473,337.5219 208.04149,335.02303 209.73641,332.6391 C 211.43132,330.25515 213.70267,326.35871 214.78384,323.98033 C 215.86501,321.60193 217.48502,318.42511 218.38386,316.92071 C 220.45722,313.45048 228.93149,293.62178 230.65818,288.20035 C 231.37689,285.94376 232.90961,281.12284 234.06423,277.48721 C 235.27077,273.68809 236.67442,270.87697 237.36488,270.87697 C 238.02562,270.87697 238.56623,271.65326 238.56623,272.60204 C 238.56623,276.55668 232.72586,296.40095 229.83486,302.26929 C 228.11805,305.75418 226.71115,309.04037 226.70843,309.57193 C 226.69779,311.6443 218.33583,326.36185 213.75835,332.36482 C 208.97602,338.63639 206.65473,340.54063 206.65473,338.19213 z M 232.03235,313.27406 C 231.72578,312.96749 232.42731,310.17509 233.59132,307.06875 C 234.75533,303.96239 235.93768,300.67682 236.21877,299.76748 C 236.84427,297.74392 238.56623,298.60634 238.56623,300.94318 C 238.56623,304.44667 233.24581,314.4875 232.03235,313.27406 z M 387.18265,312.28597 C 385.92899,311.59033 384.24884,311.01512 383.449,311.00773 C 381.16841,310.98664 378.86647,307.81806 378.35354,303.9939 C 377.98555,301.25029 378.2838,300.13789 379.74099,298.81915 C 381.71177,297.03562 383.53562,297.45092 383.53562,299.68321 C 383.53562,301.34416 385.71941,304.74054 389.14577,308.40846 C 393.37383,312.93461 392.27238,315.11018 387.18265,312.28597 z M 381.3731,294.77175 C 380.29731,293.03109 379.72538,286.58533 380.59882,286.04552 C 382.02472,285.16426 383.33801,287.41989 383.66904,291.31869 C 383.95386,294.67333 382.58482,296.73235 381.3731,294.77175 z M 282.78645,857.13987 C 284.29085,856.71793 287.57318,856.10878 290.08051,855.78619 C 292.58785,855.46362 296.8959,854.35738 299.65396,853.3279 C 304.61919,851.47458 306.91532,850.82666 321.08026,847.28196 C 341.48989,842.17453 350.31874,841.53399 378.06508,843.14754 C 402.68574,844.57933 427.26859,843.0982 436.41754,839.63179 C 439.81793,838.34344 454.22234,835.21824 461.49087,834.19185 C 465.00113,833.69617 469.30918,832.88449 471.06431,832.38813 C 474.39771,831.44542 496.45912,831.85104 502.15475,832.95976 C 505.38436,833.58844 505.49892,833.50658 509.35192,827.8164 C 516.13947,817.79245 526.38701,806.90792 537.86134,797.53485 C 543.7441,792.72938 543.37746,790.74899 536.71084,791.32025 C 535.95863,791.38471 529.66208,791.47172 522.71849,791.51361 L 510.09381,791.58979 L 504.48335,787.96266 C 493.62915,780.94547 493.32367,780.87227 481.72144,782.50846 C 473.36742,783.68658 469.42751,783.77554 459.96344,782.99972 L 448.40668,782.05236 L 445.05613,784.60795 C 442.31935,786.6954 440.26091,787.3223 433.81929,788.03012 C 426.05467,788.88333 425.12019,788.77564 415.83827,785.95799 C 414.29827,785.49051 410.44618,785.10802 407.27806,785.10802 C 402.43318,785.10802 400.30932,785.68756 393.91263,788.75505 C 389.72978,790.76091 385.46545,792.40208 384.43637,792.40208 C 383.40728,792.40208 381.24503,792.94035 379.63137,793.59824 C 377.42449,794.49799 374.77698,794.59792 368.94751,794.0015 C 357.58903,792.83939 350.08171,793.21439 344.84303,795.20552 C 342.3043,796.17045 339.64403,796.96015 338.93131,796.96041 C 338.2186,796.96065 336.98773,797.53039 336.19604,798.22647 C 335.40436,798.92256 332.50001,800.65354 329.74195,802.07307 C 326.98389,803.49261 323.40616,805.54276 321.79146,806.62896 C 317.73973,809.35451 308.66708,811.28691 294.47719,812.44667 C 281.70595,813.49047 279.8158,814.16261 265.72768,822.67004 C 262.5254,824.60381 259.75857,825.32343 252.78115,826.03727 C 246.76646,826.65262 242.88316,827.54938 240.72877,828.8205 C 238.98058,829.85196 237.06083,830.70732 236.46267,830.7213 C 235.8645,830.73528 232.09276,833.5963 228.08102,837.07911 C 224.0693,840.56192 219.36596,844.0536 217.62919,844.8384 C 215.89241,845.6232 213.84095,846.81322 213.0704,847.48289 C 212.29985,848.15256 210.02823,849.21221 208.02237,849.83766 C 204.02579,851.08382 202.35814,852.23242 203.25022,853.1245 C 203.56747,853.44175 211.33564,854.29274 220.51283,855.01558 C 241.49264,856.66807 243.95685,856.89839 251.78671,857.93879 C 258.77403,858.86724 278.43414,858.36055 282.78645,857.13987 z M 713.40937,850.57219 C 715.49917,848.48239 714.4746,847.39192 709.26088,846.15687 C 706.37744,845.47384 701.35138,843.93597 698.09185,842.73939 C 694.83232,841.5428 690.93456,840.33863 689.43016,840.06346 C 687.92576,839.78829 685.88559,839.00403 684.89644,838.32067 C 683.74072,837.52221 680.45949,837.07818 675.71504,837.07818 C 668.56239,837.07818 668.21301,837.18011 664.51448,840.34592 C 662.41479,842.14317 660.89564,843.93529 661.13859,844.32839 C 661.38154,844.72151 665.79508,845.23556 670.94645,845.47073 C 678.29821,845.80637 681.17554,846.34157 684.32499,847.9592 C 690.38893,851.07379 711.05142,852.93013 713.40937,850.57219 z M 406.32955,630.97578 C 406.32955,629.94795 405.68206,627.85487 404.89068,626.32451 C 404.0993,624.79415 403.32904,621.7056 403.17899,619.46108 C 403.02893,617.21655 402.54812,615.04086 402.11052,614.62621 C 400.99189,613.56623 384.11398,611.56846 377.9445,611.76576 C 375.12011,611.8561 370.81207,611.45727 368.37105,610.87947 C 362.49956,609.48968 328.29226,608.87466 325.97067,610.11714 C 323.58547,611.39366 324.84111,613.06944 327.65382,612.3635 C 328.90328,612.04991 331.21768,612.20331 332.79696,612.70439 C 334.37624,613.20547 341.00215,613.84345 347.52121,614.12209 C 354.04028,614.40075 365.11813,615.03284 372.13866,615.52675 C 379.15919,616.02066 386.74957,616.47798 389.00617,616.54304 C 395.67182,616.73522 396.11824,617.07035 399.52186,624.43701 C 402.50322,630.88978 403.89312,632.79483 405.64574,632.83061 C 406.02184,632.83829 406.32955,632.00361 406.32955,630.97578 z M 416.71721,621.37304 C 417.0216,620.57983 417.27064,619.15824 417.27064,618.21397 C 417.27064,617.26969 418.09122,616.05794 419.09415,615.52119 C 421.26986,614.35678 421.50255,611.38194 419.47867,610.6053 C 417.31037,609.77325 412.71185,614.80117 412.71185,618.00397 C 412.71185,621.93138 415.57788,624.34211 416.71721,621.37304 z M 440.79397,619.89762 C 441.94938,618.74222 442.11912,612.88919 441.10231,609.26611 C 440.44657,606.92959 434.25004,602.79666 433.11077,603.93592 C 432.72562,604.32108 433.14879,605.88602 434.05113,607.4136 C 435.2738,609.4834 435.54376,611.17808 435.11077,614.06543 C 434.79122,616.19637 434.79327,618.62654 435.11532,619.46579 C 435.79417,621.23485 439.19791,621.49368 440.79397,619.89762 z M 333.25157,595.04632 C 336.937,594.3055 340.39092,593.78836 340.92697,593.89713 C 341.46301,594.00589 342.43249,593.073 343.08136,591.82403 C 344.04997,589.95957 344.04542,589.22529 343.05592,587.72112 C 341.05807,584.68419 336.20739,584.02156 328.4507,585.72597 C 319.56055,587.67943 314.34731,586.98664 307.61376,582.95693 C 302.75671,580.05022 301.91724,579.84282 296.67267,580.25378 C 290.03599,580.77383 283.21228,582.04538 281.55214,583.0714 C 279.96391,584.05299 268.98359,581.93185 264.81558,579.83828 C 260.27088,577.55551 255.77346,577.69911 249.12298,580.33933 C 246.07484,581.54943 241.11915,582.83153 238.11036,583.18845 C 231.46034,583.97729 230.8545,584.28601 232.3676,586.11475 C 235.90818,590.39392 246.53527,592.17001 252.8391,589.53611 C 257.56606,587.56106 262.75207,587.87669 270.02185,590.58187 C 278.45142,593.71863 282.33524,594.15492 285.8142,592.35588 C 289.61439,590.39073 293.11174,590.53515 296.84559,592.81142 C 298.96815,594.10541 300.78747,594.54096 302.54407,594.17566 C 303.96331,593.8805 306.38172,593.38343 307.91832,593.07106 C 309.58004,592.73325 312.07387,593.05601 314.07268,593.86758 C 320.06647,596.30123 322.86852,597.05113 324.72728,596.71906 C 325.73022,596.53988 329.56615,595.78715 333.25157,595.04632 z M 454.66315,589.51327 C 456.16179,586.24118 457.38796,583.164 457.38796,582.6751 C 457.38796,581.35455 455.94323,581.5988 454.66838,583.13488 C 453.59454,584.42879 451.90733,585.42825 444.39542,589.22032 C 439.7815,591.54946 439.86385,593.63902 444.56955,593.63902 C 446.54581,593.63902 448.41634,594.04931 448.72627,594.55078 C 450.10114,596.77537 452.12264,595.0601 454.66315,589.51327 z M 485.75404,586.47495 C 489.45915,584.0391 493.92663,581.32274 495.68175,580.43858 C 497.43689,579.55441 499.48834,578.3059 500.24055,577.66411 C 500.99274,577.02231 504.27507,575.42032 507.5346,574.10411 C 510.79414,572.78791 514.24706,571.26508 515.20776,570.72004 C 516.16847,570.17501 520.67868,568.96606 525.23044,568.03351 C 530.52812,566.94812 533.92335,565.76771 534.66502,564.75342 C 538.31684,559.75925 531.58348,560.51352 515.87721,566.85803 C 507.40121,570.28188 505.43872,570.60501 505.87217,568.50537 C 506.36152,566.135 524.4066,557.40316 533.0638,555.34759 C 539.87755,553.72974 541.43014,552.54394 545.98482,545.4791 C 548.14409,542.1298 550.24583,538.87244 550.65534,538.24052 C 551.12061,537.52255 550.87387,536.88972 549.99753,536.55344 C 548.28551,535.89647 533.13351,541.98953 528.07272,545.37004 C 526.05388,546.71859 523.42796,548.1225 522.23735,548.48983 C 513.67763,551.13073 484.0082,577.41038 478.55908,587.17777 C 475.75857,592.19761 477.27464,592.04952 485.75404,586.47495 z M 452.39187,576.21116 C 455.56126,574.72136 456.78212,574.52273 457.76348,575.33719 C 459.50725,576.78438 461.73441,573.49453 465.99845,563.17291 C 469.0963,555.67419 490.04323,515.49914 492.37451,512.58506 C 492.9356,511.8837 494.62729,508.90441 496.1338,505.96443 C 501.15605,496.16339 511.7139,478.44955 520.65203,464.82804 C 525.51467,457.41753 529.24662,450.95545 528.94529,450.46787 C 528.64395,449.9803 527.39589,449.58138 526.17182,449.58138 C 524.39382,449.58138 523.94623,450.04915 523.94623,451.9073 C 523.94623,454.62168 521.08393,456.0855 510.86432,458.5976 C 501.88929,460.80376 501.46438,462.83305 510.14643,462.02613 C 515.37149,461.54051 516.65217,461.66999 516.65217,462.68385 C 516.65217,464.80232 514.66809,465.73039 507.5346,466.94868 C 503.7736,467.59099 499.74858,468.45854 498.59011,468.87657 C 494.91485,470.20276 497.38421,471.53046 502.81012,471.14551 C 505.65209,470.94389 508.49316,470.97686 509.1236,471.21878 C 512.1133,472.36604 508.91791,476.37403 504.34345,477.21457 C 499.94021,478.02363 491.35507,480.33006 490.28495,480.99143 C 487.68105,482.60073 489.74277,483.28792 495.55435,482.7478 C 499.99484,482.3351 502.00615,482.48507 502.48805,483.26481 C 503.44358,484.81087 499.73923,488.47691 496.58377,489.108 C 492.47803,489.92915 482.0054,494.94238 482.0054,496.08665 C 482.0054,496.77124 484.00942,497.04577 487.9611,496.90252 C 493.93318,496.68601 496.16557,497.48402 494.95997,499.40439 C 494.14957,500.69528 486.13928,505.19856 484.65351,505.19856 C 482.63925,505.19856 471.97607,510.64899 471.97607,511.67856 C 471.97607,512.27796 472.82768,512.47656 474.06562,512.16587 C 475.21487,511.87743 478.4972,511.36616 481.35968,511.02974 C 485.32368,510.56385 486.56419,510.6991 486.56419,511.59721 C 486.56419,514.0732 481.966,518.63928 477.33292,520.764 C 467.77192,525.14866 463.45261,527.57777 463.04555,528.799 C 462.58405,530.18349 465.38976,529.93466 473.13916,527.90387 C 476.24844,527.08907 477.77403,527.04345 478.47496,527.74439 C 480.47453,529.74395 475.73768,533.84627 465.10316,539.32492 C 459.33174,542.29824 454.75642,545.17027 454.9358,545.70722 C 455.39752,547.08939 460.78003,546.38508 465.48173,544.32729 C 467.67671,543.36662 469.83073,542.58061 470.26846,542.58061 C 471.70134,542.58061 471.10537,545.28708 468.90491,548.77284 C 466.73435,552.21122 464.99704,553.33208 455.3365,557.52675 C 448.81831,560.35697 448.33577,562.21635 454.33276,561.39438 C 456.66413,561.07482 459.14327,560.33894 459.84194,559.7591 C 461.87478,558.07199 463.41877,560.22358 462.35199,563.25693 C 461.49463,565.69486 452.55752,572.66419 450.28492,572.6671 C 448.85126,572.66893 443.7116,576.36868 443.7116,577.39885 C 443.7116,578.77409 448.26485,578.15108 452.39187,576.21116 z M 387.56598,537.43855 C 392.52079,534.07168 396.61714,533.32888 402.17244,534.78995 C 404.70958,535.45725 407.89525,536.51483 409.25168,537.14014 C 411.22165,538.0483 412.27053,538.04819 414.46406,537.13961 C 418.65401,535.40407 419.38637,534.03098 418.67001,529.25394 C 417.41011,520.85234 410.742,518.32068 401.90514,522.8889 C 392.36754,527.81938 393.24117,527.71827 384.9646,524.8493 C 378.44331,522.58878 376.5851,522.31132 371.28279,522.80647 C 366.20865,523.2803 364.60287,523.85732 362.00095,526.14184 C 359.10745,528.68236 357.19267,529.42541 354.81527,528.93032 C 340.93213,526.03916 335.88471,527.6896 342.73449,532.88058 C 345.48138,534.96227 346.39658,535.11615 355.27116,534.98839 C 363.10879,534.87557 365.42214,535.16315 368.02985,536.57444 C 375.53007,540.63357 382.41589,540.93814 387.56598,537.43855 z M 551.29894,495.56517 C 551.29894,494.78001 550.8886,493.37085 550.38706,492.43372 C 549.77658,491.29303 549.78305,489.92005 550.40665,488.27986 C 551.53584,485.30989 550.24068,483.31639 547.18194,483.31639 C 543.31426,483.31639 542.83058,489.3546 546.33068,493.94348 C 548.77907,497.15348 551.29894,497.97599 551.29894,495.56517 z M 511.40545,198.72836 C 513.26532,197.733 513.22325,197.63926 510.20581,196.0549 C 506.63131,194.17804 500.75183,192.954 499.38092,193.80127 C 497.33813,195.06379 500.58382,197.93639 504.05308,197.93639 C 505.90872,197.93639 507.68055,198.34668 507.99048,198.84815 C 508.70426,200.00308 509.04604,199.99108 511.40545,198.72836 z M 460.57911,191.20522 C 464.29761,189.94879 467.07683,188.46949 467.23796,187.66088 C 467.75573,185.06245 458.24912,180.60067 449.87679,179.51267 C 437.91442,177.95814 419.96181,177.59321 417.60118,178.85657 C 415.59391,179.93084 412.93374,184.78585 413.85025,185.70236 C 414.1099,185.962 416.72944,185.27632 419.67145,184.17864 C 424.722,182.29424 438.7171,180.34307 440.37194,181.29261 C 440.79173,181.53349 440.92256,182.54364 440.66269,183.53741 C 440.21389,185.25361 440.50823,185.31231 446.53022,184.70754 C 455.31683,183.82514 458.12207,186.4347 453.582,191.26739 C 451.01455,194.00031 452.34168,193.98852 460.57911,191.20522 z M 487.00135,191.09229 C 488.83796,189.59155 489.41833,188.57299 488.79307,187.94773 C 487.62391,186.77858 473.1505,183.69346 472.3922,184.45175 C 471.73228,185.11168 473.61783,188.97106 475.07577,189.94456 C 475.62754,190.31298 477.22015,190.6207 478.61493,190.62838 C 480.01763,190.6361 481.3854,191.2535 481.67568,192.00998 C 482.40841,193.91941 483.84426,193.67199 487.00135,191.09229 z M 435.94564,166.05081 C 436.64266,164.92301 425.31594,153.92801 419.09415,149.69286 C 414.64753,146.66606 397.9798,137.7734 393.10908,135.82914 C 392.10614,135.4288 389.43925,134.65672 387.18265,134.11339 C 384.92605,133.57007 382.25917,132.76394 381.25623,132.32199 C 378.79425,131.2371 363.78221,129.4947 362.1833,130.10826 C 360.56863,130.72786 360.12364,132.66641 359.34279,142.48231 L 358.7133,150.39535 L 364.51423,153.38122 C 367.70473,155.02345 375.03349,157.95948 380.80035,159.90574 C 386.56722,161.85198 392.02997,164.16536 392.9398,165.04657 C 394.40976,166.47027 396.86876,166.66195 415.01198,166.76703 C 426.52202,166.83369 435.65491,166.52122 435.94564,166.05081 z M 415.28764,133.16297 C 421.32666,128.60095 438.15117,119.83042 445.00116,117.67347 C 446.96409,117.05538 451.68244,115.12963 455.48636,113.39401 C 459.29031,111.6584 464.24893,109.61967 466.50553,108.86348 C 470.36229,107.57109 492.79509,96.226328 497.27733,93.301486 C 498.40564,92.565235 499.32879,91.394591 499.32879,90.700062 C 499.32879,89.295079 497.43089,89.011817 496.09205,90.216972 C 495.02537,91.177146 471.61708,101.29013 470.46126,101.29013 C 468.13652,101.29013 428.11962,118.1212 421.8598,121.73185 C 417.87809,124.02851 414.25645,125.90758 413.81172,125.90758 C 412.61533,125.90758 401.8768,131.38067 401.32666,132.27084 C 400.71498,133.26056 406.05041,137.76042 407.83561,137.76042 C 408.58697,137.76042 411.94039,135.69157 415.28764,133.16297 z M 313.10281,132.51782 C 313.34106,131.80224 312.60576,131.37812 311.1269,131.37812 C 308.82577,131.37812 308.1288,132.25499 309.4109,133.53707 C 310.34889,134.47507 312.66393,133.83594 313.10281,132.51782 z M 396.63587,565.22604 C 393.61021,560.50853 392.86759,557.70734 394.39275,556.76475 C 395.45065,556.11092 411.95254,557.80573 416.53011,559.03835 C 423.24033,560.84522 420.05623,562.92513 408.4256,564.3323 C 404.51471,564.80549 400.43804,565.47444 399.36634,565.81889 C 398.14204,566.21238 397.12715,565.99202 396.63587,565.22604 z M 351.16825,495.86138 C 348.66091,495.38865 345.53873,494.43491 344.23007,493.74195 C 342.92139,493.04898 341.62875,492.70393 341.35751,492.97516 C 340.74558,493.5871 332.77714,489.60451 329.81612,487.20683 C 327.06041,484.97538 327.94888,482.7628 330.93698,484.41551 C 336.60236,487.54901 357.1377,490.93019 358.37219,488.93275 C 358.74653,488.32705 357.9831,487.709 356.44814,487.3751 C 352.63814,486.54629 349.71825,484.9311 350.07814,483.8514 C 350.48836,482.62078 364.41179,483.1308 365.99554,484.43445 C 367.35356,485.5523 365.88564,487.87518 363.82121,487.87518 C 363.1304,487.87518 362.5652,488.21757 362.5652,488.63604 C 362.5652,489.0545 365.12952,488.98814 368.26369,488.48856 C 376.76064,487.13417 387.59294,487.23572 389.34061,488.68615 C 391.36442,490.36577 390.36998,491.52207 386.90091,491.52296 C 383.7214,491.52377 371.67424,493.8202 368.03576,495.11904 C 364.37355,496.42634 356.09676,496.7906 351.16825,495.86138 z M 449.63802,487.73653 C 448.13362,487.23799 446.08217,486.47631 445.07923,486.04392 C 444.0763,485.61152 441.2616,484.41371 438.82433,483.3821 C 434.71209,481.64155 434.43746,481.32539 435.0111,478.99234 C 435.80596,475.75965 437.99728,472.37531 439.29555,472.37531 C 440.73917,472.37531 454.67701,487.09819 454.10681,488.02079 C 453.54176,488.93505 453.18647,488.91246 449.63802,487.73653 z M 569.9582,456.82404 C 569.62069,456.27795 570.78694,453.5018 572.54984,450.6548 C 575.90426,445.23759 579.08608,443.64646 581.89794,445.98011 C 584.12231,447.82618 583.40508,449.0864 577.96784,452.8856 C 570.84369,457.86351 570.65729,457.95517 569.9582,456.82404 z M 480.96983,445.63292 C 477.71764,443.69241 475.66161,442.25645 467.11646,435.95745 C 464.77459,434.23115 462.8585,432.28918 462.8585,431.64196 C 462.8585,430.12345 471.75549,425.59595 473.45669,426.24877 C 474.16949,426.52229 475.01535,427.4734 475.33637,428.36234 C 476.189,430.72344 481.95739,439.53051 484.94046,443.02572 C 489.01034,447.79431 486.90694,449.17543 480.96983,445.63292 z M 541.85829,438.85516 C 541.58503,438.41301 541.75844,435.24787 542.24369,431.82153 C 542.72891,428.39519 542.90414,424.89303 542.63306,424.03897 C 542.36199,423.1849 542.72815,421.99816 543.44675,421.40178 C 544.49628,420.53074 545.3971,420.8827 548.02613,423.19102 C 551.3281,426.09019 552.09265,428.36432 550.35092,430.10604 C 549.8295,430.62747 548.66724,432.42577 547.76813,434.10226 C 545.97588,437.4441 542.64287,440.12462 541.85829,438.85516 z M 501.05534,426.10363 C 498.80807,420.76365 497.2327,414.22478 497.82288,412.68677 C 498.50445,410.91063 504.17719,410.80697 505.61904,412.54431 C 506.35997,413.43708 506.3923,414.51049 505.73069,416.25069 C 505.21844,417.598 504.79933,421.13538 504.79933,424.11154 C 504.79933,430.50173 503.25258,431.32473 501.05534,426.10363 z "
       style="fill:#070703"
       id="path3162" />
  </g>
</svg>
