<?xml version="1.0" encoding="UTF-8" standalone="no"?>
<svg
   xmlns:dc="http://purl.org/dc/elements/1.1/"
   xmlns:cc="http://creativecommons.org/ns#"
   xmlns:rdf="http://www.w3.org/1999/02/22-rdf-syntax-ns#"
   xmlns:svg="http://www.w3.org/2000/svg"
   xmlns="http://www.w3.org/2000/svg"
   xmlns:sodipodi="http://sodipodi.sourceforge.net/DTD/sodipodi-0.dtd"
   xmlns:inkscape="http://www.inkscape.org/namespaces/inkscape"
   width="29.851999"
   height="32.582985"
   id="svg2"
   version="1.1"
   inkscape:version="0.48.3.1 r9886"
   sodipodi:docname="inflate.svg">
  <defs
     id="defs21">
    <marker
       inkscape:stockid="Arrow1Send"
       orient="auto"
       refY="0"
       refX="0"
       id="Arrow1Send"
       style="overflow:visible">
      <path
         id="path3801"
         d="M 0,0 5,-5 -12.5,0 5,5 0,0 z"
         style="fill-rule:evenodd;stroke:#000000;stroke-width:1pt"
         transform="matrix(-0.2,0,0,-0.2,-1.2,0)"
         inkscape:connector-curvature="0" />
    </marker>
    <marker
       inkscape:stockid="Arrow1Send"
       orient="auto"
       refY="0"
       refX="0"
       id="Arrow1Send-4"
       style="overflow:visible">
      <path
         inkscape:connector-curvature="0"
         id="path3801-6"
         d="M 0,0 5,-5 -12.5,0 5,5 0,0 z"
         style="fill-rule:evenodd;stroke:#000000;stroke-width:1pt"
         transform="matrix(-0.2,0,0,-0.2,-1.2,0)" />
    </marker>
    <marker
       inkscape:stockid="Arrow1Send"
       orient="auto"
       refY="0"
       refX="0"
       id="Arrow1Send-2"
       style="overflow:visible">
      <path
         inkscape:connector-curvature="0"
         id="path3801-9"
         d="M 0,0 5,-5 -12.5,0 5,5 0,0 z"
         style="fill-rule:evenodd;stroke:#000000;stroke-width:1pt"
         transform="matrix(-0.2,0,0,-0.2,-1.2,0)" />
    </marker>
    <marker
       inkscape:stockid="Arrow1Send"
       orient="auto"
       refY="0"
       refX="0"
       id="Arrow1Send-8"
       style="overflow:visible">
      <path
         inkscape:connector-curvature="0"
         id="path3801-3"
         d="M 0,0 5,-5 -12.5,0 5,5 0,0 z"
         style="fill-rule:evenodd;stroke:#000000;stroke-width:1pt"
         transform="matrix(-0.2,0,0,-0.2,-1.2,0)" />
    </marker>
  </defs>
  <sodipodi:namedview
     pagecolor="#ffffff"
     bordercolor="#666666"
     borderopacity="1"
     objecttolerance="10"
     gridtolerance="10"
     guidetolerance="10"
     inkscape:pageopacity="0"
     inkscape:pageshadow="2"
     inkscape:window-width="1301"
     inkscape:window-height="704"
     id="namedview19"
     showgrid="false"
     fit-margin-top="0"
     fit-margin-left="0"
     fit-margin-right="0"
     fit-margin-bottom="0"
     inkscape:zoom="2.5041624"
     inkscape:cx="120.51589"
     inkscape:cy="48.987443"
     inkscape:window-x="65"
     inkscape:window-y="24"
     inkscape:window-maximized="1"
     inkscape:current-layer="svg2" />
  <g
     id="g4"
     transform="matrix(0.03970783,0,0,0.03959906,7.8677399,8.123235)">
    <title
       id="title6">Layer 1</title>
    <g
       transform="translate(-1.26562,-1.26172)"
       id="imagebot_119">
      <path
         id="imagebot_120"
         d="m 187.07201,461.681 c 0,0 -9.594,-11.483 -9.594,-33.191 l -8.296,0 c 0,21.708 -9.596,33.191 -9.596,33.191"
         inkscape:connector-curvature="0"
         style="fill:#bed63a;stroke:#515c19;stroke-width:2.52600002" />
      <path
         id="imagebot_121"
         d="m 345.39499,185.959 c 0,129.11999 -97.513,242.795 -172.065,242.795 -71.68901,0 -172.066,-103.295 -172.066,-242.795 C 1.263,83.955 71.325,1.263 173.33,1.263 c 102.00301,0 172.06499,82.692 172.06499,184.696 z"
         inkscape:connector-curvature="0"
         style="fill:#bed63a;stroke:#515c19;stroke-width:2.52600002" />
      <ellipse
         id="imagebot_122"
         ry="3.8180001"
         rx="13.743"
         cy="461.681"
         cx="173.32899"
         d="m 187.07199,461.681 c 0,2.10862 -6.15295,3.818 -13.743,3.818 -7.59004,0 -13.743,-1.70938 -13.743,-3.818 0,-2.10862 6.15296,-3.818 13.743,-3.818 7.59005,0 13.743,1.70938 13.743,3.818 z"
         sodipodi:cx="173.32899"
         sodipodi:cy="461.681"
         sodipodi:rx="13.743"
         sodipodi:ry="3.8180001"
         style="fill:#bed63a;stroke:#515c19;stroke-width:2.52600002" />
    </g>
  </g>
  <g
     id="g12"
     transform="matrix(0.03970783,0,0,0.03959906,7.8677399,8.123235)">
    <title
       id="title14">Layer 2</title>
    <path
       id="imagebot_123"
       d="m 179.307,28.2213 c 0,0 125.037,65.676 95.988,286.7007 0,0 63.527,-103.315 32.838,-188.187 C 274.6,33.9963 179.307,28.2213 179.307,28.2213 z"
       inkscape:connector-curvature="0"
       style="fill:#d6e584" />
  </g>
  <metadata
     id="metadata17">image/svg+xmlOpen Clip Art LibraryBalloon2010-07-21T15:06:35Simple balloon illustration.http://openclipart.org/detail/74221/balloon-by-jgm104jgm104balloonchildcircusclip artclipartfloatingrubbertoy<rdf:RDF>
  <cc:Work
     rdf:about="">
    <dc:format>image/svg+xml</dc:format>
    <dc:type
       rdf:resource="http://purl.org/dc/dcmitype/StillImage" />
    <dc:title />
  </cc:Work>
</rdf:RDF>
</metadata>
  <path
     style="fill:none;stroke:#000000;stroke-width:1.72656119;stroke-linecap:butt;stroke-linejoin:miter;stroke-miterlimit:4;stroke-opacity:1;stroke-dasharray:none;marker-end:url(#Arrow1Send)"
     d="M 14.855292,9.3428471 14.51008,2.4575339"
     id="path5690"
     inkscape:connector-curvature="0" />
  <path
     style="fill:none;stroke:#000000;stroke-width:1.72656119;stroke-linecap:butt;stroke-linejoin:miter;stroke-miterlimit:4;stroke-opacity:1;stroke-dasharray:none;marker-end:url(#Arrow1Send)"
     d="m 20.47967,17.357859 6.912193,-0.09543"
     id="path5690-7"
     inkscape:connector-curvature="0"
     inkscape:transform-center-x="-20.021171"
     inkscape:transform-center-y="-1.9396242" />
  <path
     style="fill:none;stroke:#000000;stroke-width:1.72656119;stroke-linecap:butt;stroke-linejoin:miter;stroke-miterlimit:4;stroke-opacity:1;stroke-dasharray:none;marker-end:url(#Arrow1Send)"
     d="m 14.67395,23.229042 0.05797,6.893672"
     id="path5690-7-8"
     inkscape:connector-curvature="0"
     inkscape:transform-center-x="-1.8418242"
     inkscape:transform-center-y="19.978895" />
  <path
     style="fill:none;stroke:#000000;stroke-width:1.72656119;stroke-linecap:butt;stroke-linejoin:miter;stroke-miterlimit:4;stroke-opacity:1;stroke-dasharray:none;marker-end:url(#Arrow1Send)"
     d="M 9.3659788,17.191706 2.458586,17.465695"
     id="path5690-7-88"
     inkscape:connector-curvature="0"
     inkscape:transform-center-x="19.96343"
     inkscape:transform-center-y="2.4268093" />
</svg>
