<?xml version="1.0" encoding="UTF-8" standalone="no"?>
<!-- Created with Inkscape (http://www.inkscape.org/) -->

<svg
   xmlns:dc="http://purl.org/dc/elements/1.1/"
   xmlns:cc="http://creativecommons.org/ns#"
   xmlns:rdf="http://www.w3.org/1999/02/22-rdf-syntax-ns#"
   xmlns:svg="http://www.w3.org/2000/svg"
   xmlns="http://www.w3.org/2000/svg"
   xmlns:sodipodi="http://sodipodi.sourceforge.net/DTD/sodipodi-0.dtd"
   xmlns:inkscape="http://www.inkscape.org/namespaces/inkscape"
   width="19"
   height="19"
   id="svg2"
   version="1.1"
   inkscape:version="0.48.3.1 r9886"
   sodipodi:docname="mutual.svg">
  <defs
     id="defs4" />
  <sodipodi:namedview
     id="base"
     pagecolor="#ffffff"
     bordercolor="#666666"
     borderopacity="1.0"
     inkscape:pageopacity="0.0"
     inkscape:pageshadow="2"
     inkscape:zoom="15.839192"
     inkscape:cx="-2.4172623"
     inkscape:cy="5.0090696"
     inkscape:document-units="px"
     inkscape:current-layer="layer1"
     showgrid="false"
     fit-margin-top="0"
     fit-margin-left="0"
     fit-margin-right="0"
     fit-margin-bottom="0"
     inkscape:window-width="1301"
     inkscape:window-height="704"
     inkscape:window-x="65"
     inkscape:window-y="24"
     inkscape:window-maximized="1" />
  <metadata
     id="metadata7">
    <rdf:RDF>
      <cc:Work
         rdf:about="">
        <dc:format>image/svg+xml</dc:format>
        <dc:type
           rdf:resource="http://purl.org/dc/dcmitype/StillImage" />
        <dc:title />
      </cc:Work>
    </rdf:RDF>
  </metadata>
  <g
     inkscape:label="Layer 1"
     inkscape:groupmode="layer"
     id="layer1"
     transform="translate(-199.8125,-125.75)">
    <path
       style="fill:none;stroke:#000000;stroke-width:1.20139623px;stroke-linecap:butt;stroke-linejoin:miter;stroke-opacity:1"
       d="m 210.51914,127.29935 c -0.33416,0.16603 -0.7132,0.18716 -1.06189,0.30339 -0.12917,0.0431 -0.25129,0.10522 -0.37925,0.1517 -0.92704,0.33711 0.0632,-0.0632 -1.13774,0.37925 -0.25552,0.0941 -0.50016,0.21729 -0.7585,0.3034 -1.559,0.51967 -0.15477,-0.11439 -1.51699,0.60679 -0.19986,0.10585 -0.40453,0.20227 -0.6068,0.30341 -0.20226,0.10108 -0.40187,0.20776 -0.60679,0.30339 -0.17449,0.0814 -0.35612,0.14687 -0.53095,0.22755 -0.15399,0.071 -0.29679,0.16666 -0.4551,0.22755 -0.17179,0.0661 -0.35633,0.0935 -0.53095,0.1517 -0.29053,0.0968 -0.41831,0.17123 -0.68264,0.30339 -0.10119,0.0506 -0.21139,0.0859 -0.3034,0.15171 -0.0873,0.0623 -0.15169,0.1517 -0.22754,0.22755 -0.15974,0.15974 -0.29383,0.31739 -0.37926,0.53095 -0.0725,0.18135 -0.10373,0.33915 -0.15169,0.53093 -0.0253,0.1012 -0.0644,0.1998 -0.0759,0.30341 -0.014,0.12564 0,0.25283 0,0.37924 0,0.15171 0,0.30341 0,0.4551 0,0.12642 0,0.25283 0,0.37925 0,0.1517 -0.0138,0.30403 0,0.4551 0.0117,0.12839 0.0506,0.25283 0.0759,0.37925 0.0253,0.12641 0.035,0.25695 0.0759,0.37924 0.0642,0.19247 0.19242,0.36449 0.3034,0.53095 0.0506,0.0759 0.0934,0.15752 0.1517,0.22756 0.0687,0.0824 0.15169,0.15169 0.22754,0.22754 0.0759,0.0759 0.14515,0.15888 0.22755,0.22755 0.0701,0.0583 0.1517,0.10109 0.22755,0.15169 0.36171,0.24115 0.666,0.41347 0.83435,0.83436 0.0296,0.0742 0.0506,0.15169 0.0759,0.22754 0.0253,0.0759 0.0627,0.14868 0.0759,0.22755 0.0125,0.0748 -0.0107,0.15247 0,0.22755 0.0147,0.1032 0.0629,0.19995 0.0759,0.3034 0.0205,0.16421 -0.0186,0.53336 0,0.68264 0.01,0.0794 0.0646,0.14841 0.0759,0.22755 0.0143,0.10014 -0.0246,0.20529 0,0.3034 0.0274,0.1097 0.12064,0.19469 0.15171,0.3034 0.0208,0.0729 -0.024,0.15559 0,0.22755 0.16621,0.24931 0.14903,0.18032 0.22754,0.4551 0.0857,0.29995 0.15189,0.60754 0.22755,0.9102 0.0253,0.10108 0.0429,0.2045 0.0759,0.30339 0.0431,0.12917 0.10864,0.25008 0.1517,0.37924 0.3496,1.04882 -0.23796,-0.47936 0.22754,0.6068 0.0925,0.21592 0.0453,0.27289 0.22756,0.4551 0.11709,0.1171 0.43974,0.27556 0.60678,0.3034 0.0748,0.0125 0.15229,-0.01 0.22756,0 0.12793,0.016 0.25096,0.063 0.37924,0.0759 0.12579,0.0126 0.25283,0 0.37925,0 0.12642,0 0.25284,0 0.37925,0 0.32869,0 0.65737,0 0.98605,0 1.1293,0 -0.27595,-0.0307 0.68264,0.0758 0.12564,0.014 0.25284,0 0.37925,0 0.20649,0 0.4003,0 0.60679,0 0.10109,0 0.20227,0 0.30341,0 0.0506,0 0.10479,0.0187 0.1517,0 0.0777,-0.0311 0.40831,-0.28568 0.4551,-0.37925 0.0466,-0.0933 0.0472,-0.20317 0.0759,-0.30339 0.0219,-0.0769 0.0506,-0.15171 0.0759,-0.22756 0.1836,-0.55079 -0.02,0.13992 0.0759,-0.53094 0.0113,-0.0792 0.0601,-0.14916 0.0759,-0.22755 0.01,-0.0496 0,-0.10119 0,-0.1517 0,-0.10119 0,-0.20227 0,-0.30339 0,-0.0881 0.0172,-0.3105 0,-0.37926 -0.0451,-0.18041 -0.28333,-0.43893 -0.37925,-0.60679 -0.0561,-0.0982 -0.10716,-0.19947 -0.1517,-0.3034 -0.0315,-0.0735 -0.0347,-0.15899 -0.0759,-0.22755 -0.0368,-0.0613 -0.1149,-0.0904 -0.15169,-0.1517 -0.0919,-0.15307 -0.0759,-0.22504 -0.0759,-0.37924 0,-0.0253 -0.014,-0.0548 0,-0.0759 0.0397,-0.0595 0.10109,-0.10108 0.15171,-0.1517 0.0506,-0.0506 0.0959,-0.10701 0.15169,-0.15169 0.0712,-0.057 0.1517,-0.10119 0.22755,-0.1517 0.18008,-0.12006 0.3663,-0.23813 0.53095,-0.37925 0.16288,-0.13961 0.28052,-0.33041 0.45509,-0.4551 0.092,-0.0657 0.20523,-0.0956 0.3034,-0.1517 0.28007,-0.16004 0.19756,-0.17837 0.53095,-0.30339 0.19442,-0.0729 0.34757,-0.06 0.53094,-0.1517 0.0815,-0.0408 0.14107,-0.12287 0.22756,-0.15171 0.072,-0.024 0.15273,0.0125 0.22754,0 0.21563,-0.036 0.20239,-0.081 0.37926,-0.1517 0.14846,-0.0594 0.30662,-0.0923 0.45509,-0.15169 0.10501,-0.042 0.19842,-0.10971 0.3034,-0.1517 0.0742,-0.0296 0.15899,-0.0347 0.22755,-0.0759 0.0613,-0.0368 0.0945,-0.10879 0.15169,-0.15169 0.0905,-0.0678 0.21295,-0.0838 0.30341,-0.1517 0.0572,-0.0429 0.0904,-0.11491 0.15169,-0.1517 0.0686,-0.0412 0.15899,-0.0347 0.22755,-0.0759 0.12264,-0.0736 0.19172,-0.21404 0.3034,-0.30339 0.0712,-0.057 0.15637,-0.0947 0.22755,-0.1517 0.0559,-0.0447 0.10109,-0.10109 0.1517,-0.15171 0.0506,-0.0506 0.1149,-0.0904 0.15169,-0.15169 0.0412,-0.0686 0.0194,-0.17102 0.0759,-0.22755 0.0565,-0.0565 0.17101,-0.0193 0.22754,-0.0759 0.0565,-0.0565 0.0401,-0.15604 0.0759,-0.22755 0.10707,-0.21411 0.28914,-0.3815 0.37926,-0.6068 0.0889,-0.22231 0.13862,-0.46032 0.22754,-0.68265 0.021,-0.0525 0.0548,-0.0992 0.0759,-0.15169 0.0884,-0.22097 0.15227,-0.45683 0.22754,-0.68265 0.0253,-0.0759 0.0461,-0.15331 0.0759,-0.22755 0.0809,-0.20227 0.10141,-0.12769 0.1517,-0.37925 0.01,-0.0495 0,-0.10108 0,-0.1517 0.0253,-0.0759 0.0564,-0.14998 0.0759,-0.22754 0.0179,-0.0714 -0.0179,-0.15616 0,-0.22756 0.0138,-0.0548 0.058,-0.098 0.0759,-0.15169 0.016,-0.0479 0,-0.10108 0,-0.1517 0,-0.0506 0,-0.10119 0,-0.1517 0,-0.0253 0.0113,-0.0532 0,-0.0759 -0.016,-0.032 -0.0506,-0.0506 -0.0759,-0.0759 -0.0253,-0.0253 -0.046,-0.056 -0.0759,-0.0759 -0.047,-0.0313 -0.10469,-0.0445 -0.1517,-0.0759 -0.0595,-0.0397 -0.0922,-0.11203 -0.1517,-0.1517 -0.047,-0.0313 -0.10468,-0.0445 -0.1517,-0.0759 -0.0694,-0.0463 -0.13328,-0.15386 -0.15169,-0.22755 -0.006,-0.0251 -0.005,-0.43838 0,-0.45509 0.0352,-0.10589 0.17561,-0.31001 0.22754,-0.37926 0.0215,-0.0286 0.0646,-0.0419 0.0759,-0.0759 0.0115,-0.0347 0,-0.33691 0,-0.37925 0,-0.0253 0,-0.0506 0,-0.0759 0,-0.0253 0.0179,-0.058 0,-0.0759 -0.251,-0.25101 -0.16938,-0.10405 -0.45509,-0.15171 -0.0789,-0.0131 -0.15169,-0.0506 -0.22755,-0.0759 -0.0759,-0.0253 -0.15332,-0.0461 -0.22755,-0.0759 -0.20227,-0.0809 -0.12768,-0.10141 -0.37924,-0.15171 -0.0495,-0.01 -0.1012,0 -0.15171,0 -0.10108,0 -0.20226,0 -0.30339,0 -0.25283,0 -0.50566,0 -0.7585,0 -0.20227,0 -0.40454,0 -0.6068,0 -0.0423,0 -0.33448,0.0149 -0.37925,0 -0.5494,-0.18312 0.11959,0.0219 -0.22754,-0.15169 -0.0226,-0.0113 -0.0532,0.0113 -0.0759,0 -0.032,-0.016 -0.0438,-0.0598 -0.0759,-0.0759 -0.0606,-0.0304 -0.16687,0.0304 -0.22755,0 -0.032,-0.016 -0.0419,-0.0646 -0.0759,-0.0759 -0.0479,-0.016 -0.10109,0 -0.15171,0 -0.0253,0 -0.0532,0.0113 -0.0759,0 -0.032,-0.016 -0.0438,-0.0599 -0.0759,-0.0759 -0.0607,-0.0304 -0.16687,0.0304 -0.22755,0 -0.032,-0.016 -0.0438,-0.0599 -0.0758,-0.0759 -0.0227,-0.0113 -0.0506,0 -0.0759,0 -0.0253,0 -0.0506,0 -0.0759,0 -0.12642,0 -0.25283,0 -0.37926,0 -0.0759,0 -0.15558,0.024 -0.22754,0 -0.034,-0.0113 -0.0439,-0.0598 -0.0759,-0.0759 -0.0226,-0.0113 -0.0506,0 -0.0759,0 -0.0253,0 -0.0506,0 -0.0759,0 -0.12642,0 -0.25283,0 -0.37925,0 -0.10119,0 -0.20226,0 -0.3034,0 -0.0253,0 -0.0759,0.0253 -0.0759,0 0,-0.0253 0.0506,0 0.0759,0 -0.15168,-0.10109 -0.30338,-0.20226 -0.45509,-0.30339 z"
       id="path3001"
       inkscape:connector-curvature="0" />
    <path
       sodipodi:type="arc"
       style="fill:#800000;fill-opacity:1;stroke:#ff0000;stroke-width:1.49907899;stroke-linecap:butt;stroke-miterlimit:4;stroke-opacity:0.97969546;stroke-dasharray:none;stroke-dashoffset:0"
       id="path3003"
       sodipodi:cx="-22.611374"
       sodipodi:cy="5.2998061"
       sodipodi:rx="0.30646145"
       sodipodi:ry="0.18940359"
       d="m -22.304912,5.2998061 a 0.30646145,0.18940359 0 1 1 -0.612923,0 0.30646145,0.18940359 0 1 1 0.612923,0 z"
       transform="matrix(-0.48966942,0,0,-0.48966942,196.10966,134.14207)" />
    <path
       sodipodi:type="arc"
       style="fill:#800000;fill-opacity:1;stroke:#ff0000;stroke-width:1.49907899;stroke-linecap:butt;stroke-miterlimit:4;stroke-opacity:0.97969546;stroke-dasharray:none;stroke-dashoffset:0"
       id="path3003-3"
       sodipodi:cx="-22.611374"
       sodipodi:cy="5.2998061"
       sodipodi:rx="0.30646145"
       sodipodi:ry="0.18940359"
       d="m -22.304912,5.2998061 a 0.30646145,0.18940359 0 1 1 -0.612923,0 0.30646145,0.18940359 0 1 1 0.612923,0 z"
       transform="matrix(-0.48966942,0,0,-0.48966942,199.75044,133.68698)" />
    <path
       sodipodi:type="arc"
       style="fill:#800000;fill-opacity:1;stroke:#ff0000;stroke-width:1.49907899;stroke-linecap:butt;stroke-miterlimit:4;stroke-opacity:0.97969546;stroke-dasharray:none;stroke-dashoffset:0"
       id="path3003-8"
       sodipodi:cx="-22.611374"
       sodipodi:cy="5.2998061"
       sodipodi:rx="0.30646145"
       sodipodi:ry="0.18940359"
       d="m -22.304912,5.2998061 a 0.30646145,0.18940359 0 1 1 -0.612923,0 0.30646145,0.18940359 0 1 1 0.612923,0 z"
       transform="matrix(-0.48966942,0,0,-0.48966942,198.15761,134.14207)" />
    <path
       sodipodi:type="arc"
       style="fill:#800000;fill-opacity:1;stroke:#ff0000;stroke-width:1.49907899;stroke-linecap:butt;stroke-miterlimit:4;stroke-opacity:0.97969546;stroke-dasharray:none;stroke-dashoffset:0"
       id="path3003-1"
       sodipodi:cx="-22.611374"
       sodipodi:cy="5.2998061"
       sodipodi:rx="0.30646145"
       sodipodi:ry="0.18940359"
       d="m -22.304912,5.2998061 a 0.30646145,0.18940359 0 1 1 -0.612923,0 0.30646145,0.18940359 0 1 1 0.612923,0 z"
       transform="matrix(-0.48966942,0,0,-0.48966942,193.83418,134.59718)" />
    <path
       sodipodi:type="arc"
       style="fill:#800000;fill-opacity:1;stroke:#ff0000;stroke-width:1.49907899;stroke-linecap:butt;stroke-miterlimit:4;stroke-opacity:0.97969546;stroke-dasharray:none;stroke-dashoffset:0"
       id="path3003-0"
       sodipodi:cx="-22.611374"
       sodipodi:cy="5.2998061"
       sodipodi:rx="0.30646145"
       sodipodi:ry="0.18940359"
       d="m -22.304912,5.2998061 a 0.30646145,0.18940359 0 1 1 -0.612923,0 0.30646145,0.18940359 0 1 1 0.612923,0 z"
       transform="matrix(-0.48966942,0,0,-0.48966942,194.66853,136.94852)" />
    <path
       sodipodi:type="arc"
       style="fill:#800000;fill-opacity:1;stroke:#ff0000;stroke-width:1.49907899;stroke-linecap:butt;stroke-miterlimit:4;stroke-opacity:0.97969546;stroke-dasharray:none;stroke-dashoffset:0"
       id="path3003-4"
       sodipodi:cx="-22.611374"
       sodipodi:cy="5.2998061"
       sodipodi:rx="0.30646145"
       sodipodi:ry="0.18940359"
       d="m -22.304912,5.2998061 a 0.30646145,0.18940359 0 1 1 -0.612923,0 0.30646145,0.18940359 0 1 1 0.612923,0 z"
       transform="matrix(-0.48966942,0,0,-0.48966942,192.77227,135.81077)" />
    <path
       sodipodi:type="arc"
       style="fill:#800000;fill-opacity:1;stroke:#ff0000;stroke-width:1.49907899;stroke-linecap:butt;stroke-miterlimit:4;stroke-opacity:0.97969546;stroke-dasharray:none;stroke-dashoffset:0"
       id="path3003-03"
       sodipodi:cx="-22.611374"
       sodipodi:cy="5.2998061"
       sodipodi:rx="0.30646145"
       sodipodi:ry="0.18940359"
       d="m -22.304912,5.2998061 a 0.30646145,0.18940359 0 1 1 -0.612923,0 0.30646145,0.18940359 0 1 1 0.612923,0 z"
       transform="matrix(-0.48966942,0,0,-0.48966942,192.54473,137.32776)" />
    <path
       sodipodi:type="arc"
       style="fill:#800000;fill-opacity:1;stroke:#ff0000;stroke-width:1.49907899;stroke-linecap:butt;stroke-miterlimit:4;stroke-opacity:0.97969546;stroke-dasharray:none;stroke-dashoffset:0"
       id="path3003-6"
       sodipodi:cx="-22.611374"
       sodipodi:cy="5.2998061"
       sodipodi:rx="0.30646145"
       sodipodi:ry="0.18940359"
       d="m -22.304912,5.2998061 a 0.30646145,0.18940359 0 1 1 -0.612923,0 0.30646145,0.18940359 0 1 1 0.612923,0 z"
       transform="matrix(-0.48966942,0,0,-0.48966942,193.60663,139.29985)" />
    <path
       sodipodi:type="arc"
       style="fill:#800000;fill-opacity:1;stroke:#ff0000;stroke-width:1.49907899;stroke-linecap:butt;stroke-miterlimit:4;stroke-opacity:0.97969546;stroke-dasharray:none;stroke-dashoffset:0"
       id="path3003-85"
       sodipodi:cx="-22.611374"
       sodipodi:cy="5.2998061"
       sodipodi:rx="0.30646145"
       sodipodi:ry="0.18940359"
       d="m -22.304912,5.2998061 a 0.30646145,0.18940359 0 1 1 -0.612923,0 0.30646145,0.18940359 0 1 1 0.612923,0 z"
       transform="matrix(-0.48966942,0,0,-0.48966942,194.59267,141.27195)" />
    <path
       sodipodi:type="arc"
       style="fill:#800000;fill-opacity:1;stroke:#ff0000;stroke-width:1.49907899;stroke-linecap:butt;stroke-miterlimit:4;stroke-opacity:0.97969546;stroke-dasharray:none;stroke-dashoffset:0"
       id="path3003-81"
       sodipodi:cx="-22.611374"
       sodipodi:cy="5.2998061"
       sodipodi:rx="0.30646145"
       sodipodi:ry="0.18940359"
       d="m -22.304912,5.2998061 a 0.30646145,0.18940359 0 1 1 -0.612923,0 0.30646145,0.18940359 0 1 1 0.612923,0 z"
       transform="matrix(-0.48966942,0,0,-0.48966942,194.82022,142.56138)" />
    <path
       sodipodi:type="arc"
       style="fill:#800000;fill-opacity:1;stroke:#ff0000;stroke-width:1.49907899;stroke-linecap:butt;stroke-miterlimit:4;stroke-opacity:0.97969546;stroke-dasharray:none;stroke-dashoffset:0"
       id="path3003-854"
       sodipodi:cx="-22.611374"
       sodipodi:cy="5.2998061"
       sodipodi:rx="0.30646145"
       sodipodi:ry="0.18940359"
       d="m -22.304912,5.2998061 a 0.30646145,0.18940359 0 1 1 -0.612923,0 0.30646145,0.18940359 0 1 1 0.612923,0 z"
       transform="matrix(-0.48966942,0,0,-0.48966942,196.64061,141.72703)" />
    <path
       sodipodi:type="arc"
       style="fill:#800000;fill-opacity:1;stroke:#ff0000;stroke-width:1.49907899;stroke-linecap:butt;stroke-miterlimit:4;stroke-opacity:0.97969546;stroke-dasharray:none;stroke-dashoffset:0"
       id="path3003-63"
       sodipodi:cx="-22.611374"
       sodipodi:cy="5.2998061"
       sodipodi:rx="0.30646145"
       sodipodi:ry="0.18940359"
       d="m -22.304912,5.2998061 a 0.30646145,0.18940359 0 1 1 -0.612923,0 0.30646145,0.18940359 0 1 1 0.612923,0 z"
       transform="matrix(-0.48966942,0,0,-0.48966942,194.97193,139.3757)" />
    <path
       sodipodi:type="arc"
       style="fill:#800000;fill-opacity:1;stroke:#ff0000;stroke-width:1.49907899;stroke-linecap:butt;stroke-miterlimit:4;stroke-opacity:0.97969546;stroke-dasharray:none;stroke-dashoffset:0"
       id="path3003-38"
       sodipodi:cx="-22.611374"
       sodipodi:cy="5.2998061"
       sodipodi:rx="0.30646145"
       sodipodi:ry="0.18940359"
       d="m -22.304912,5.2998061 a 0.30646145,0.18940359 0 1 1 -0.612923,0 0.30646145,0.18940359 0 1 1 0.612923,0 z"
       transform="matrix(-0.48966942,0,0,-0.48966942,197.47495,138.92059)" />
    <path
       sodipodi:type="arc"
       style="fill:#800000;fill-opacity:1;stroke:#ff0000;stroke-width:1.49907899;stroke-linecap:butt;stroke-miterlimit:4;stroke-opacity:0.97969546;stroke-dasharray:none;stroke-dashoffset:0"
       id="path3003-17"
       sodipodi:cx="-22.611374"
       sodipodi:cy="5.2998061"
       sodipodi:rx="0.30646145"
       sodipodi:ry="0.18940359"
       d="m -22.304912,5.2998061 a 0.30646145,0.18940359 0 1 1 -0.612923,0 0.30646145,0.18940359 0 1 1 0.612923,0 z"
       transform="matrix(-0.48966942,0,0,-0.48966942,196.56476,137.47946)" />
    <path
       sodipodi:type="arc"
       style="fill:#800000;fill-opacity:1;stroke:#ff0000;stroke-width:1.49907899;stroke-linecap:butt;stroke-miterlimit:4;stroke-opacity:0.97969546;stroke-dasharray:none;stroke-dashoffset:0"
       id="path3003-88"
       sodipodi:cx="-22.611374"
       sodipodi:cy="5.2998061"
       sodipodi:rx="0.30646145"
       sodipodi:ry="0.18940359"
       d="m -22.304912,5.2998061 a 0.30646145,0.18940359 0 1 1 -0.612923,0 0.30646145,0.18940359 0 1 1 0.612923,0 z"
       transform="matrix(-0.48966942,0,0,-0.48966942,196.41307,136.26587)" />
    <path
       sodipodi:type="arc"
       style="fill:#800000;fill-opacity:1;stroke:#ff0000;stroke-width:1.49907899;stroke-linecap:butt;stroke-miterlimit:4;stroke-opacity:0.97969546;stroke-dasharray:none;stroke-dashoffset:0"
       id="path3003-9"
       sodipodi:cx="-22.611374"
       sodipodi:cy="5.2998061"
       sodipodi:rx="0.30646145"
       sodipodi:ry="0.18940359"
       d="m -22.304912,5.2998061 a 0.30646145,0.18940359 0 1 1 -0.612923,0 0.30646145,0.18940359 0 1 1 0.612923,0 z"
       transform="matrix(-0.48966942,0,0,-0.48966942,203.84633,132.85263)" />
    <path
       sodipodi:type="arc"
       style="fill:#800000;fill-opacity:1;stroke:#ff0000;stroke-width:1.49907899;stroke-linecap:butt;stroke-miterlimit:4;stroke-opacity:0.97969546;stroke-dasharray:none;stroke-dashoffset:0"
       id="path3003-08"
       sodipodi:cx="-22.611374"
       sodipodi:cy="5.2998061"
       sodipodi:rx="0.30646145"
       sodipodi:ry="0.18940359"
       d="m -22.304912,5.2998061 a 0.30646145,0.18940359 0 1 1 -0.612923,0 0.30646145,0.18940359 0 1 1 0.612923,0 z"
       transform="matrix(-0.48966942,0,0,-0.48966942,200.81234,131.79074)" />
    <path
       sodipodi:type="arc"
       style="fill:#800000;fill-opacity:1;stroke:#ff0000;stroke-width:1.49907899;stroke-linecap:butt;stroke-miterlimit:4;stroke-opacity:0.97969546;stroke-dasharray:none;stroke-dashoffset:0"
       id="path3003-13"
       sodipodi:cx="-22.611374"
       sodipodi:cy="5.2998061"
       sodipodi:rx="0.30646145"
       sodipodi:ry="0.18940359"
       d="m -22.304912,5.2998061 a 0.30646145,0.18940359 0 1 1 -0.612923,0 0.30646145,0.18940359 0 1 1 0.612923,0 z"
       transform="matrix(-0.48966942,0,0,-0.48966942,198.7644,131.5632)" />
    <path
       sodipodi:type="arc"
       style="fill:#800000;fill-opacity:1;stroke:#ff0000;stroke-width:1.49907899;stroke-linecap:butt;stroke-miterlimit:4;stroke-opacity:0.97969546;stroke-dasharray:none;stroke-dashoffset:0"
       id="path3003-98"
       sodipodi:cx="-22.611374"
       sodipodi:cy="5.2998061"
       sodipodi:rx="0.30646145"
       sodipodi:ry="0.18940359"
       d="m -22.304912,5.2998061 a 0.30646145,0.18940359 0 1 1 -0.612923,0 0.30646145,0.18940359 0 1 1 0.612923,0 z"
       transform="matrix(-0.48966942,0,0,-0.48966942,197.55081,132.32169)" />
    <path
       sodipodi:type="arc"
       style="fill:#800000;fill-opacity:1;stroke:#ff0000;stroke-width:1.49907899;stroke-linecap:butt;stroke-miterlimit:4;stroke-opacity:0.97969546;stroke-dasharray:none;stroke-dashoffset:0"
       id="path3003-19"
       sodipodi:cx="-22.611374"
       sodipodi:cy="5.2998061"
       sodipodi:rx="0.30646145"
       sodipodi:ry="0.18940359"
       d="m -22.304912,5.2998061 a 0.30646145,0.18940359 0 1 1 -0.612923,0 0.30646145,0.18940359 0 1 1 0.612923,0 z"
       transform="matrix(-0.48966942,0,0,-0.48966942,191.40698,134.52132)" />
    <path
       sodipodi:type="arc"
       style="fill:#800000;fill-opacity:1;stroke:#ff0000;stroke-width:1.49907899;stroke-linecap:butt;stroke-miterlimit:4;stroke-opacity:0.97969546;stroke-dasharray:none;stroke-dashoffset:0"
       id="path3003-2"
       sodipodi:cx="-22.611374"
       sodipodi:cy="5.2998061"
       sodipodi:rx="0.30646145"
       sodipodi:ry="0.18940359"
       d="m -22.304912,5.2998061 a 0.30646145,0.18940359 0 1 1 -0.612923,0 0.30646145,0.18940359 0 1 1 0.612923,0 z"
       transform="matrix(-0.48966942,0,0,-0.48966942,196.71646,144.00253)" />
    <path
       sodipodi:type="arc"
       style="fill:#800000;fill-opacity:1;stroke:#0000ff;stroke-width:1.49907899;stroke-linecap:butt;stroke-miterlimit:4;stroke-opacity:0.97969546;stroke-dasharray:none;stroke-dashoffset:0"
       id="path3003-033-3"
       sodipodi:cx="-22.611374"
       sodipodi:cy="5.2998061"
       sodipodi:rx="0.30646145"
       sodipodi:ry="0.18940359"
       d="m -22.304912,5.2998061 a 0.30646145,0.18940359 0 1 1 -0.612923,0 0.30646145,0.18940359 0 1 1 0.612923,0 z"
       transform="matrix(-0.48966942,0,0,-0.48966942,200.66065,135.50736)" />
    <path
       sodipodi:type="arc"
       style="fill:#800000;fill-opacity:1;stroke:#0000ff;stroke-width:1.49907899;stroke-linecap:butt;stroke-miterlimit:4;stroke-opacity:0.97969546;stroke-dasharray:none;stroke-dashoffset:0"
       id="path3003-033-5"
       sodipodi:cx="-22.611374"
       sodipodi:cy="5.2998061"
       sodipodi:rx="0.30646145"
       sodipodi:ry="0.18940359"
       d="m -22.304912,5.2998061 a 0.30646145,0.18940359 0 1 1 -0.612923,0 0.30646145,0.18940359 0 1 1 0.612923,0 z"
       transform="matrix(-0.48966942,0,0,-0.48966942,203.46707,134.82472)" />
    <path
       sodipodi:type="arc"
       style="fill:#800000;fill-opacity:1;stroke:#0000ff;stroke-width:1.49907899;stroke-linecap:butt;stroke-miterlimit:4;stroke-opacity:0.97969546;stroke-dasharray:none;stroke-dashoffset:0"
       id="path3003-033-2"
       sodipodi:cx="-22.611374"
       sodipodi:cy="5.2998061"
       sodipodi:rx="0.30646145"
       sodipodi:ry="0.18940359"
       d="m -22.304912,5.2998061 a 0.30646145,0.18940359 0 1 1 -0.612923,0 0.30646145,0.18940359 0 1 1 0.612923,0 z"
       transform="matrix(-0.48966942,0,0,-0.48966942,202.48102,136.56926)" />
    <path
       sodipodi:type="arc"
       style="fill:#800000;fill-opacity:1;stroke:#0000ff;stroke-width:1.49907899;stroke-linecap:butt;stroke-miterlimit:4;stroke-opacity:0.97969546;stroke-dasharray:none;stroke-dashoffset:0"
       id="path3003-033-51"
       sodipodi:cx="-22.611374"
       sodipodi:cy="5.2998061"
       sodipodi:rx="0.30646145"
       sodipodi:ry="0.18940359"
       d="m -22.304912,5.2998061 a 0.30646145,0.18940359 0 1 1 -0.612923,0 0.30646145,0.18940359 0 1 1 0.612923,0 z"
       transform="matrix(-0.48966942,0,0,-0.48966942,199.59874,136.94852)" />
    <path
       sodipodi:type="arc"
       style="fill:#800000;fill-opacity:1;stroke:#0000ff;stroke-width:1.49907899;stroke-linecap:butt;stroke-miterlimit:4;stroke-opacity:0.97969546;stroke-dasharray:none;stroke-dashoffset:0"
       id="path3003-033-0"
       sodipodi:cx="-22.611374"
       sodipodi:cy="5.2998061"
       sodipodi:rx="0.30646145"
       sodipodi:ry="0.18940359"
       d="m -22.304912,5.2998061 a 0.30646145,0.18940359 0 1 1 -0.612923,0 0.30646145,0.18940359 0 1 1 0.612923,0 z"
       transform="matrix(-0.48966942,0,0,-0.48966942,196.56476,134.97643)" />
    <path
       sodipodi:type="arc"
       style="fill:#800000;fill-opacity:1;stroke:#0000ff;stroke-width:1.49907899;stroke-linecap:butt;stroke-miterlimit:4;stroke-opacity:0.97969546;stroke-dasharray:none;stroke-dashoffset:0"
       id="path3003-033-8"
       sodipodi:cx="-22.611374"
       sodipodi:cy="5.2998061"
       sodipodi:rx="0.30646145"
       sodipodi:ry="0.18940359"
       d="m -22.304912,5.2998061 a 0.30646145,0.18940359 0 1 1 -0.612923,0 0.30646145,0.18940359 0 1 1 0.612923,0 z"
       transform="matrix(-0.48966942,0,0,-0.48966942,194.82022,133.30773)" />
    <path
       sodipodi:type="arc"
       style="fill:#800000;fill-opacity:1;stroke:#0000ff;stroke-width:1.49907899;stroke-linecap:butt;stroke-miterlimit:4;stroke-opacity:0.97969546;stroke-dasharray:none;stroke-dashoffset:0"
       id="path3003-033-56"
       sodipodi:cx="-22.611374"
       sodipodi:cy="5.2998061"
       sodipodi:rx="0.30646145"
       sodipodi:ry="0.18940359"
       d="m -22.304912,5.2998061 a 0.30646145,0.18940359 0 1 1 -0.612923,0 0.30646145,0.18940359 0 1 1 0.612923,0 z"
       transform="matrix(-0.48966942,0,0,-0.48966942,196.79231,140.21004)" />
    <path
       sodipodi:type="arc"
       style="fill:#800000;fill-opacity:1;stroke:#0000ff;stroke-width:1.49907899;stroke-linecap:butt;stroke-miterlimit:4;stroke-opacity:0.97969546;stroke-dasharray:none;stroke-dashoffset:0"
       id="path3003-033-6"
       sodipodi:cx="-22.611374"
       sodipodi:cy="5.2998061"
       sodipodi:rx="0.30646145"
       sodipodi:ry="0.18940359"
       d="m -22.304912,5.2998061 a 0.30646145,0.18940359 0 1 1 -0.612923,0 0.30646145,0.18940359 0 1 1 0.612923,0 z"
       transform="matrix(-0.48966942,0,0,-0.48966942,193.83417,138.1621)" />
    <path
       sodipodi:type="arc"
       style="fill:#800000;fill-opacity:1;stroke:#0000ff;stroke-width:1.49907899;stroke-linecap:butt;stroke-miterlimit:4;stroke-opacity:0.97969546;stroke-dasharray:none;stroke-dashoffset:0"
       id="path3003-033-68"
       sodipodi:cx="-22.611374"
       sodipodi:cy="5.2998061"
       sodipodi:rx="0.30646145"
       sodipodi:ry="0.18940359"
       d="m -22.304912,5.2998061 a 0.30646145,0.18940359 0 1 1 -0.612923,0 0.30646145,0.18940359 0 1 1 0.612923,0 z"
       transform="matrix(-0.48966942,0,0,-0.48966942,194.82021,135.50736)" />
    <path
       sodipodi:type="arc"
       style="fill:#800000;fill-opacity:1;stroke:#0000ff;stroke-width:1.49907899;stroke-linecap:butt;stroke-miterlimit:4;stroke-opacity:0.97969546;stroke-dasharray:none;stroke-dashoffset:0"
       id="path3003-033-9"
       sodipodi:cx="-22.611374"
       sodipodi:cy="5.2998061"
       sodipodi:rx="0.30646145"
       sodipodi:ry="0.18940359"
       d="m -22.304912,5.2998061 a 0.30646145,0.18940359 0 1 1 -0.612923,0 0.30646145,0.18940359 0 1 1 0.612923,0 z"
       transform="matrix(-0.48966942,0,0,-0.48966942,195.65458,138.46551)" />
    <path
       sodipodi:type="arc"
       style="fill:#800000;fill-opacity:1;stroke:#0000ff;stroke-width:1.49907899;stroke-linecap:butt;stroke-miterlimit:4;stroke-opacity:0.97969546;stroke-dasharray:none;stroke-dashoffset:0"
       id="path3003-033-69"
       sodipodi:cx="-22.611374"
       sodipodi:cy="5.2998061"
       sodipodi:rx="0.30646145"
       sodipodi:ry="0.18940359"
       d="m -22.304912,5.2998061 a 0.30646145,0.18940359 0 1 1 -0.612923,0 0.30646145,0.18940359 0 1 1 0.612923,0 z"
       transform="matrix(-0.48966942,0,0,-0.48966942,194.97193,143.77498)" />
    <path
       sodipodi:type="arc"
       style="fill:#800000;fill-opacity:1;stroke:#0000ff;stroke-width:1.49907899;stroke-linecap:butt;stroke-miterlimit:4;stroke-opacity:0.97969546;stroke-dasharray:none;stroke-dashoffset:0"
       id="path3003-033-7"
       sodipodi:cx="-22.611374"
       sodipodi:cy="5.2998061"
       sodipodi:rx="0.30646145"
       sodipodi:ry="0.18940359"
       d="m -22.304912,5.2998061 a 0.30646145,0.18940359 0 1 1 -0.612923,0 0.30646145,0.18940359 0 1 1 0.612923,0 z"
       transform="matrix(-0.48966942,0,0,-0.48966942,191.40698,136.19001)" />
    <path
       sodipodi:type="arc"
       style="fill:#800000;fill-opacity:1;stroke:#0000ff;stroke-width:1.49907899;stroke-linecap:butt;stroke-miterlimit:4;stroke-opacity:0.97969546;stroke-dasharray:none;stroke-dashoffset:0"
       id="path3003-033-67"
       sodipodi:cx="-22.611374"
       sodipodi:cy="5.2998061"
       sodipodi:rx="0.30646145"
       sodipodi:ry="0.18940359"
       d="m -22.304912,5.2998061 a 0.30646145,0.18940359 0 1 1 -0.612923,0 0.30646145,0.18940359 0 1 1 0.612923,0 z"
       transform="matrix(-0.48966942,0,0,-0.48966942,192.46889,134.06622)" />
    <path
       sodipodi:type="arc"
       style="fill:#800000;fill-opacity:1;stroke:#0000ff;stroke-width:1.49907899;stroke-linecap:butt;stroke-miterlimit:4;stroke-opacity:0.97969546;stroke-dasharray:none;stroke-dashoffset:0"
       id="path3003-033-97"
       sodipodi:cx="-22.611374"
       sodipodi:cy="5.2998061"
       sodipodi:rx="0.30646145"
       sodipodi:ry="0.18940359"
       d="m -22.304912,5.2998061 a 0.30646145,0.18940359 0 1 1 -0.612923,0 0.30646145,0.18940359 0 1 1 0.612923,0 z"
       transform="matrix(-0.48966942,0,0,-0.48966942,196.03382,132.39754)" />
    <path
       sodipodi:type="arc"
       style="fill:#800000;fill-opacity:1;stroke:#0000ff;stroke-width:1.49907899;stroke-linecap:butt;stroke-miterlimit:4;stroke-opacity:0.97969546;stroke-dasharray:none;stroke-dashoffset:0"
       id="path3003-033-680"
       sodipodi:cx="-22.611374"
       sodipodi:cy="5.2998061"
       sodipodi:rx="0.30646145"
       sodipodi:ry="0.18940359"
       d="m -22.304912,5.2998061 a 0.30646145,0.18940359 0 1 1 -0.612923,0 0.30646145,0.18940359 0 1 1 0.612923,0 z"
       transform="matrix(-0.48966942,0,0,-0.48966942,202.78444,132.24583)" />
    <path
       sodipodi:type="arc"
       style="fill:#800000;fill-opacity:1;stroke:#0000ff;stroke-width:1.49907899;stroke-linecap:butt;stroke-miterlimit:4;stroke-opacity:0.97969546;stroke-dasharray:none;stroke-dashoffset:0"
       id="path3003-033-83"
       sodipodi:cx="-22.611374"
       sodipodi:cy="5.2998061"
       sodipodi:rx="0.30646145"
       sodipodi:ry="0.18940359"
       d="m -22.304912,5.2998061 a 0.30646145,0.18940359 0 1 1 -0.612923,0 0.30646145,0.18940359 0 1 1 0.612923,0 z"
       transform="matrix(-0.48966942,0,0,-0.48966942,193.60663,140.4376)" />
    <path
       sodipodi:type="arc"
       style="fill:#800000;fill-opacity:1;stroke:#ff0000;stroke-width:1.49907899;stroke-linecap:butt;stroke-miterlimit:4;stroke-opacity:0.97969546;stroke-dasharray:none;stroke-dashoffset:0"
       id="path3003-2-6"
       sodipodi:cx="-22.611374"
       sodipodi:cy="5.2998061"
       sodipodi:rx="0.30646145"
       sodipodi:ry="0.18940359"
       d="m -22.304912,5.2998061 a 0.30646145,0.18940359 0 1 1 -0.612923,0 0.30646145,0.18940359 0 1 1 0.612923,0 z"
       transform="matrix(-0.48966942,0,0,-0.48966942,198.1576,136.87265)" />
    <path
       sodipodi:type="arc"
       style="fill:#800000;fill-opacity:1;stroke:#ff0000;stroke-width:1.49907899;stroke-linecap:butt;stroke-miterlimit:4;stroke-opacity:0.97969546;stroke-dasharray:none;stroke-dashoffset:0"
       id="path3003-2-8"
       sodipodi:cx="-22.611374"
       sodipodi:cy="5.2998061"
       sodipodi:rx="0.30646145"
       sodipodi:ry="0.18940359"
       d="m -22.304912,5.2998061 a 0.30646145,0.18940359 0 1 1 -0.612923,0 0.30646145,0.18940359 0 1 1 0.612923,0 z"
       transform="matrix(-0.48966942,0,0,-0.48966942,198.84025,135.81077)" />
    <path
       sodipodi:type="arc"
       style="fill:#800000;fill-opacity:1;stroke:#ff0000;stroke-width:1.49907899;stroke-linecap:butt;stroke-miterlimit:4;stroke-opacity:0.97969546;stroke-dasharray:none;stroke-dashoffset:0"
       id="path3003-2-5"
       sodipodi:cx="-22.611374"
       sodipodi:cy="5.2998061"
       sodipodi:rx="0.30646145"
       sodipodi:ry="0.18940359"
       d="m -22.304912,5.2998061 a 0.30646145,0.18940359 0 1 1 -0.612923,0 0.30646145,0.18940359 0 1 1 0.612923,0 z"
       transform="matrix(-0.48966942,0,0,-0.48966942,199.3712,138.84475)" />
    <path
       sodipodi:type="arc"
       style="fill:#800000;fill-opacity:1;stroke:#0000ff;stroke-width:1.49907899;stroke-linecap:butt;stroke-miterlimit:4;stroke-opacity:0.97969546;stroke-dasharray:none;stroke-dashoffset:0"
       id="path3003-033-30"
       sodipodi:cx="-22.611374"
       sodipodi:cy="5.2998061"
       sodipodi:rx="0.30646145"
       sodipodi:ry="0.18940359"
       d="m -22.304912,5.2998061 a 0.30646145,0.18940359 0 1 1 -0.612923,0 0.30646145,0.18940359 0 1 1 0.612923,0 z"
       transform="matrix(-0.48966942,0,0,-0.48966942,197.77836,142.94063)" />
    <path
       sodipodi:type="arc"
       style="fill:#800000;fill-opacity:1;stroke:#0000ff;stroke-width:1.49907899;stroke-linecap:butt;stroke-miterlimit:4;stroke-opacity:0.97969546;stroke-dasharray:none;stroke-dashoffset:0"
       id="path3003-033"
       sodipodi:cx="-22.611374"
       sodipodi:cy="5.2998061"
       sodipodi:rx="0.30646145"
       sodipodi:ry="0.18940359"
       d="m -22.304912,5.2998061 a 0.30646145,0.18940359 0 1 1 -0.612923,0 0.30646145,0.18940359 0 1 1 0.612923,0 z"
       transform="matrix(-0.48966942,0,0,-0.48966942,198.68854,133.00433)" />
    <path
       sodipodi:type="arc"
       style="fill:#800000;fill-opacity:1;stroke:#0000ff;stroke-width:1.49907899;stroke-linecap:butt;stroke-miterlimit:4;stroke-opacity:0.97969546;stroke-dasharray:none;stroke-dashoffset:0"
       id="path3003-033-76"
       sodipodi:cx="-22.611374"
       sodipodi:cy="5.2998061"
       sodipodi:rx="0.30646145"
       sodipodi:ry="0.18940359"
       d="m -22.304912,5.2998061 a 0.30646145,0.18940359 0 1 1 -0.612923,0 0.30646145,0.18940359 0 1 1 0.612923,0 z"
       transform="matrix(-0.48966942,0,0,-0.48966942,201.11573,133.00433)" />
    <path
       sodipodi:type="arc"
       style="fill:#800000;fill-opacity:1;stroke:#ff0000;stroke-width:1.49907899;stroke-linecap:butt;stroke-miterlimit:4;stroke-opacity:0.97969546;stroke-dasharray:none;stroke-dashoffset:0"
       id="path3003-8-6"
       sodipodi:cx="-22.611374"
       sodipodi:cy="5.2998061"
       sodipodi:rx="0.30646145"
       sodipodi:ry="0.18940359"
       d="m -22.304912,5.2998061 a 0.30646145,0.18940359 0 1 1 -0.612923,0 0.30646145,0.18940359 0 1 1 0.612923,0 z"
       transform="matrix(-0.48966942,0,0,-0.48966942,201.79838,134.36962)" />
    <path
       sodipodi:type="arc"
       style="fill:#800000;fill-opacity:1;stroke:#ff0000;stroke-width:1.49907899;stroke-linecap:butt;stroke-miterlimit:4;stroke-opacity:0.97969546;stroke-dasharray:none;stroke-dashoffset:0"
       id="path3003-8-0"
       sodipodi:cx="-22.611374"
       sodipodi:cy="5.2998061"
       sodipodi:rx="0.30646145"
       sodipodi:ry="0.18940359"
       d="m -22.304912,5.2998061 a 0.30646145,0.18940359 0 1 1 -0.612923,0 0.30646145,0.18940359 0 1 1 0.612923,0 z"
       transform="matrix(-0.48966942,0,0,-0.48966942,201.11573,137.78285)" />
    <path
       sodipodi:type="arc"
       style="fill:#800000;fill-opacity:1;stroke:#ff0000;stroke-width:1.49907899;stroke-linecap:butt;stroke-miterlimit:4;stroke-opacity:0.97969546;stroke-dasharray:none;stroke-dashoffset:0"
       id="path3003-8-1"
       sodipodi:cx="-22.611374"
       sodipodi:cy="5.2998061"
       sodipodi:rx="0.30646145"
       sodipodi:ry="0.18940359"
       d="m -22.304912,5.2998061 a 0.30646145,0.18940359 0 1 1 -0.612923,0 0.30646145,0.18940359 0 1 1 0.612923,0 z"
       transform="matrix(-0.48966942,0,0,-0.48966942,203.92218,136.11415)" />
    <path
       sodipodi:type="arc"
       style="fill:#800000;fill-opacity:1;stroke:#0000ff;stroke-width:1.49907899;stroke-linecap:butt;stroke-miterlimit:4;stroke-opacity:0.97969546;stroke-dasharray:none;stroke-dashoffset:0"
       id="path3003-033-9-0"
       sodipodi:cx="-22.611374"
       sodipodi:cy="5.2998061"
       sodipodi:rx="0.30646145"
       sodipodi:ry="0.18940359"
       d="m -22.304912,5.2998061 a 0.30646145,0.18940359 0 1 1 -0.612923,0 0.30646145,0.18940359 0 1 1 0.612923,0 z"
       transform="matrix(-0.48966942,0,0,-0.48966942,196.18551,142.86478)" />
    <path
       sodipodi:type="arc"
       style="fill:#800000;fill-opacity:1;stroke:#0000ff;stroke-width:1.49907899;stroke-linecap:butt;stroke-miterlimit:4;stroke-opacity:0.97969546;stroke-dasharray:none;stroke-dashoffset:0"
       id="path3003-033-9-05"
       sodipodi:cx="-22.611374"
       sodipodi:cy="5.2998061"
       sodipodi:rx="0.30646145"
       sodipodi:ry="0.18940359"
       d="m -22.304912,5.2998061 a 0.30646145,0.18940359 0 1 1 -0.612923,0 0.30646145,0.18940359 0 1 1 0.612923,0 z"
       transform="matrix(-0.48966942,0,0,-0.48966942,204.90822,134.44548)" />
    <path
       sodipodi:type="arc"
       style="fill:#800000;fill-opacity:1;stroke:#0000ff;stroke-width:1.49907899;stroke-linecap:butt;stroke-miterlimit:4;stroke-opacity:0.97969546;stroke-dasharray:none;stroke-dashoffset:0"
       id="path3003-033-9-9"
       sodipodi:cx="-22.611374"
       sodipodi:cy="5.2998061"
       sodipodi:rx="0.30646145"
       sodipodi:ry="0.18940359"
       d="m -22.304912,5.2998061 a 0.30646145,0.18940359 0 1 1 -0.612923,0 0.30646145,0.18940359 0 1 1 0.612923,0 z"
       transform="matrix(-0.48966942,0,0,-0.48966942,199.29535,134.82472)" />
    <path
       sodipodi:type="arc"
       style="fill:#800000;fill-opacity:1;stroke:#0000ff;stroke-width:1.49907899;stroke-linecap:butt;stroke-miterlimit:4;stroke-opacity:0.97969546;stroke-dasharray:none;stroke-dashoffset:0"
       id="path3003-033-9-96"
       sodipodi:cx="-22.611374"
       sodipodi:cy="5.2998061"
       sodipodi:rx="0.30646145"
       sodipodi:ry="0.18940359"
       d="m -22.304912,5.2998061 a 0.30646145,0.18940359 0 1 1 -0.612923,0 0.30646145,0.18940359 0 1 1 0.612923,0 z"
       transform="matrix(-0.48966942,0,0,-0.48966942,193.83417,136.34172)" />
    <path
       sodipodi:type="arc"
       style="fill:#800000;fill-opacity:1;stroke:#0000ff;stroke-width:1.49907899;stroke-linecap:butt;stroke-miterlimit:4;stroke-opacity:0.97969546;stroke-dasharray:none;stroke-dashoffset:0"
       id="path3003-033-9-4"
       sodipodi:cx="-22.611374"
       sodipodi:cy="5.2998061"
       sodipodi:rx="0.30646145"
       sodipodi:ry="0.18940359"
       d="m -22.304912,5.2998061 a 0.30646145,0.18940359 0 1 1 -0.612923,0 0.30646145,0.18940359 0 1 1 0.612923,0 z"
       transform="matrix(-0.48966942,0,0,-0.48966942,198.38516,137.93455)" />
    <path
       sodipodi:type="arc"
       style="fill:#800000;fill-opacity:1;stroke:#0000ff;stroke-width:1.49907899;stroke-linecap:butt;stroke-miterlimit:4;stroke-opacity:0.97969546;stroke-dasharray:none;stroke-dashoffset:0"
       id="path3003-033-9-2"
       sodipodi:cx="-22.611374"
       sodipodi:cy="5.2998061"
       sodipodi:rx="0.30646145"
       sodipodi:ry="0.18940359"
       d="m -22.304912,5.2998061 a 0.30646145,0.18940359 0 1 1 -0.612923,0 0.30646145,0.18940359 0 1 1 0.612923,0 z"
       transform="matrix(-0.48966942,0,0,-0.48966942,198.0059,135.58322)" />
    <path
       sodipodi:type="arc"
       style="fill:#800000;fill-opacity:1;stroke:#0000ff;stroke-width:1.49907899;stroke-linecap:butt;stroke-miterlimit:4;stroke-opacity:0.97969546;stroke-dasharray:none;stroke-dashoffset:0"
       id="path3003-033-9-5"
       sodipodi:cx="-22.611374"
       sodipodi:cy="5.2998061"
       sodipodi:rx="0.30646145"
       sodipodi:ry="0.18940359"
       d="m -22.304912,5.2998061 a 0.30646145,0.18940359 0 1 1 -0.612923,0 0.30646145,0.18940359 0 1 1 0.612923,0 z"
       transform="matrix(-0.48966942,0,0,-0.48966942,195.57871,140.36174)" />
    <path
       sodipodi:type="arc"
       style="fill:#800000;fill-opacity:1;stroke:#0000ff;stroke-width:1.49907899;stroke-linecap:butt;stroke-miterlimit:4;stroke-opacity:0.97969546;stroke-dasharray:none;stroke-dashoffset:0"
       id="path3003-033-9-7"
       sodipodi:cx="-22.611374"
       sodipodi:cy="5.2998061"
       sodipodi:rx="0.30646145"
       sodipodi:ry="0.18940359"
       d="m -22.304912,5.2998061 a 0.30646145,0.18940359 0 1 1 -0.612923,0 0.30646145,0.18940359 0 1 1 0.612923,0 z"
       transform="matrix(-0.48966942,0,0,-0.48966942,195.57871,141.80287)" />
    <path
       sodipodi:type="arc"
       style="fill:#800000;fill-opacity:1;stroke:#0000ff;stroke-width:1.49907899;stroke-linecap:butt;stroke-miterlimit:4;stroke-opacity:0.97969546;stroke-dasharray:none;stroke-dashoffset:0"
       id="path3003-033-9-09"
       sodipodi:cx="-22.611374"
       sodipodi:cy="5.2998061"
       sodipodi:rx="0.30646145"
       sodipodi:ry="0.18940359"
       d="m -22.304912,5.2998061 a 0.30646145,0.18940359 0 1 1 -0.612923,0 0.30646145,0.18940359 0 1 1 0.612923,0 z"
       transform="matrix(-0.48966942,0,0,-0.48966942,195.80627,136.87267)" />
  </g>
</svg>
