<?xml version="1.0" encoding="UTF-8" standalone="no"?>
<!-- Created with Inkscape (http://www.inkscape.org/) -->

<svg
   xmlns:dc="http://purl.org/dc/elements/1.1/"
   xmlns:cc="http://creativecommons.org/ns#"
   xmlns:rdf="http://www.w3.org/1999/02/22-rdf-syntax-ns#"
   xmlns:svg="http://www.w3.org/2000/svg"
   xmlns="http://www.w3.org/2000/svg"
   xmlns:sodipodi="http://sodipodi.sourceforge.net/DTD/sodipodi-0.dtd"
   xmlns:inkscape="http://www.inkscape.org/namespaces/inkscape"
   width="19"
   height="19"
   id="svg2"
   version="1.1"
   inkscape:version="0.48.3.1 r9886"
   sodipodi:docname="sort.svg">
  <defs
     id="defs4" />
  <sodipodi:namedview
     id="base"
     pagecolor="#ffffff"
     bordercolor="#666666"
     borderopacity="1.0"
     inkscape:pageopacity="0.0"
     inkscape:pageshadow="2"
     inkscape:zoom="31.678384"
     inkscape:cx="5.6359836"
     inkscape:cy="12.819631"
     inkscape:document-units="px"
     inkscape:current-layer="layer1"
     showgrid="false"
     fit-margin-top="0"
     fit-margin-left="0"
     fit-margin-right="0"
     fit-margin-bottom="0"
     inkscape:window-width="1301"
     inkscape:window-height="704"
     inkscape:window-x="65"
     inkscape:window-y="24"
     inkscape:window-maximized="1" />
  <metadata
     id="metadata7">
    <rdf:RDF>
      <cc:Work
         rdf:about="">
        <dc:format>image/svg+xml</dc:format>
        <dc:type
           rdf:resource="http://purl.org/dc/dcmitype/StillImage" />
        <dc:title />
      </cc:Work>
    </rdf:RDF>
  </metadata>
  <g
     inkscape:label="Layer 1"
     inkscape:groupmode="layer"
     id="layer1"
     transform="translate(-199.8125,-125.75)">
    <path
       style="fill:none;stroke:#000000;stroke-width:1.59762847;stroke-linecap:butt;stroke-linejoin:miter;stroke-miterlimit:4;stroke-opacity:1;stroke-dasharray:none"
       d="m 202.17821,142.77539 c 15.0393,-15.08576 14.76892,-15.62271 14.76892,-15.62271"
       id="path2996"
       inkscape:connector-curvature="0" />
    <path
       transform="matrix(2.4285714,0,0,2.4285714,197.905,127.73573)"
       sodipodi:type="arc"
       style="fill:#ff0000;fill-opacity:1;stroke:#ffffff;stroke-width:0;stroke-linecap:butt;stroke-miterlimit:4;stroke-opacity:1;stroke-dasharray:none;stroke-dashoffset:0"
       id="path4007-2"
       sodipodi:cx="3.4375"
       sodipodi:cy="5.9910717"
       sodipodi:rx="0.3125"
       sodipodi:ry="0.3125"
       d="m 3.75,5.9910717 c 0,0.172589 -0.139911,0.3125 -0.3125,0.3125 -0.172589,0 -0.3125,-0.139911 -0.3125,-0.3125 0,-0.172589 0.139911,-0.3125 0.3125,-0.3125 0.172589,0 0.3125,0.139911 0.3125,0.3125 z" />
    <path
       transform="matrix(2.1428571,0,0,2.1428571,203.17286,126.05461)"
       sodipodi:type="arc"
       style="fill:#ff0000;fill-opacity:1;stroke:#ffffff;stroke-width:0;stroke-linecap:butt;stroke-miterlimit:4;stroke-opacity:1;stroke-dasharray:none;stroke-dashoffset:0"
       id="path4007-9"
       sodipodi:cx="3.4375"
       sodipodi:cy="5.9910717"
       sodipodi:rx="0.3125"
       sodipodi:ry="0.3125"
       d="m 3.75,5.9910717 c 0,0.172589 -0.139911,0.3125 -0.3125,0.3125 -0.172589,0 -0.3125,-0.139911 -0.3125,-0.3125 0,-0.172589 0.139911,-0.3125 0.3125,-0.3125 0.172589,0 0.3125,0.139911 0.3125,0.3125 z" />
    <rect
       style="fill:none;stroke:#000000;stroke-width:0.36074385;stroke-linecap:butt;stroke-miterlimit:4;stroke-opacity:0.97969546;stroke-dasharray:none;stroke-dashoffset:0"
       id="rect3799"
       width="18.064257"
       height="17.796398"
       x="200.30144"
       y="126.24442" />
    <path
       transform="matrix(2.1428571,0,0,2.1428571,196.20857,122.21532)"
       sodipodi:type="arc"
       style="fill:#ff0000;fill-opacity:1;stroke:#ffffff;stroke-width:0;stroke-linecap:butt;stroke-miterlimit:4;stroke-opacity:1;stroke-dasharray:none;stroke-dashoffset:0"
       id="path4007-9-1"
       sodipodi:cx="3.4375"
       sodipodi:cy="5.9910717"
       sodipodi:rx="0.3125"
       sodipodi:ry="0.3125"
       d="m 3.75,5.9910717 c 0,0.172589 -0.139911,0.3125 -0.3125,0.3125 -0.172589,0 -0.3125,-0.139911 -0.3125,-0.3125 0,-0.172589 0.139911,-0.3125 0.3125,-0.3125 0.172589,0 0.3125,0.139911 0.3125,0.3125 z" />
    <path
       transform="matrix(2.1428571,0,0,2.1428571,198.79786,121.94747)"
       sodipodi:type="arc"
       style="fill:#ff0000;fill-opacity:1;stroke:#ffffff;stroke-width:0;stroke-linecap:butt;stroke-miterlimit:4;stroke-opacity:1;stroke-dasharray:none;stroke-dashoffset:0"
       id="path4007-9-0"
       sodipodi:cx="3.4375"
       sodipodi:cy="5.9910717"
       sodipodi:rx="0.3125"
       sodipodi:ry="0.3125"
       d="m 3.75,5.9910717 c 0,0.172589 -0.139911,0.3125 -0.3125,0.3125 -0.172589,0 -0.3125,-0.139911 -0.3125,-0.3125 0,-0.172589 0.139911,-0.3125 0.3125,-0.3125 0.172589,0 0.3125,0.139911 0.3125,0.3125 z" />
    <path
       transform="matrix(2.1428571,0,0,2.1428571,196.03,125.07247)"
       sodipodi:type="arc"
       style="fill:#ff0000;fill-opacity:1;stroke:#ffffff;stroke-width:0;stroke-linecap:butt;stroke-miterlimit:4;stroke-opacity:1;stroke-dasharray:none;stroke-dashoffset:0"
       id="path4007-9-4"
       sodipodi:cx="3.4375"
       sodipodi:cy="5.9910717"
       sodipodi:rx="0.3125"
       sodipodi:ry="0.3125"
       d="m 3.75,5.9910717 c 0,0.172589 -0.139911,0.3125 -0.3125,0.3125 -0.172589,0 -0.3125,-0.139911 -0.3125,-0.3125 0,-0.172589 0.139911,-0.3125 0.3125,-0.3125 0.172589,0 0.3125,0.139911 0.3125,0.3125 z" />
    <path
       transform="matrix(2.1428571,0,0,2.1428571,205.31571,122.66175)"
       sodipodi:type="arc"
       style="fill:#ff0000;fill-opacity:1;stroke:#ffffff;stroke-width:0;stroke-linecap:butt;stroke-miterlimit:4;stroke-opacity:1;stroke-dasharray:none;stroke-dashoffset:0"
       id="path4007-9-5"
       sodipodi:cx="3.4375"
       sodipodi:cy="5.9910717"
       sodipodi:rx="0.3125"
       sodipodi:ry="0.3125"
       d="m 3.75,5.9910717 c 0,0.172589 -0.139911,0.3125 -0.3125,0.3125 -0.172589,0 -0.3125,-0.139911 -0.3125,-0.3125 0,-0.172589 0.139911,-0.3125 0.3125,-0.3125 0.172589,0 0.3125,0.139911 0.3125,0.3125 z" />
    <path
       transform="matrix(2.1428571,0,0,2.1428571,208.08357,119.26889)"
       sodipodi:type="arc"
       style="fill:#ff0000;fill-opacity:1;stroke:#ffffff;stroke-width:0;stroke-linecap:butt;stroke-miterlimit:4;stroke-opacity:1;stroke-dasharray:none;stroke-dashoffset:0"
       id="path4007-9-2"
       sodipodi:cx="3.4375"
       sodipodi:cy="5.9910717"
       sodipodi:rx="0.3125"
       sodipodi:ry="0.3125"
       d="m 3.75,5.9910717 c 0,0.172589 -0.139911,0.3125 -0.3125,0.3125 -0.172589,0 -0.3125,-0.139911 -0.3125,-0.3125 0,-0.172589 0.139911,-0.3125 0.3125,-0.3125 0.172589,0 0.3125,0.139911 0.3125,0.3125 z" />
    <path
       transform="matrix(2.1428571,0,0,2.1428571,202.81571,117.92961)"
       sodipodi:type="arc"
       style="fill:#ff0000;fill-opacity:1;stroke:#ffffff;stroke-width:0;stroke-linecap:butt;stroke-miterlimit:4;stroke-opacity:1;stroke-dasharray:none;stroke-dashoffset:0"
       id="path4007-9-6"
       sodipodi:cx="3.4375"
       sodipodi:cy="5.9910717"
       sodipodi:rx="0.3125"
       sodipodi:ry="0.3125"
       d="m 3.75,5.9910717 c 0,0.172589 -0.139911,0.3125 -0.3125,0.3125 -0.172589,0 -0.3125,-0.139911 -0.3125,-0.3125 0,-0.172589 0.139911,-0.3125 0.3125,-0.3125 0.172589,0 0.3125,0.139911 0.3125,0.3125 z" />
    <path
       transform="matrix(2.1428571,0,0,2.1428571,205.85143,116.50104)"
       sodipodi:type="arc"
       style="fill:#ff0000;fill-opacity:1;stroke:#ffffff;stroke-width:0;stroke-linecap:butt;stroke-miterlimit:4;stroke-opacity:1;stroke-dasharray:none;stroke-dashoffset:0"
       id="path4007-9-02"
       sodipodi:cx="3.4375"
       sodipodi:cy="5.9910717"
       sodipodi:rx="0.3125"
       sodipodi:ry="0.3125"
       d="m 3.75,5.9910717 c 0,0.172589 -0.139911,0.3125 -0.3125,0.3125 -0.172589,0 -0.3125,-0.139911 -0.3125,-0.3125 0,-0.172589 0.139911,-0.3125 0.3125,-0.3125 0.172589,0 0.3125,0.139911 0.3125,0.3125 z" />
    <path
       transform="matrix(2.1428571,0,0,2.1428571,201.47643,120.16175)"
       sodipodi:type="arc"
       style="fill:#ff0000;fill-opacity:1;stroke:#ffffff;stroke-width:0;stroke-linecap:butt;stroke-miterlimit:4;stroke-opacity:1;stroke-dasharray:none;stroke-dashoffset:0"
       id="path4007-9-25"
       sodipodi:cx="3.4375"
       sodipodi:cy="5.9910717"
       sodipodi:rx="0.3125"
       sodipodi:ry="0.3125"
       d="m 3.75,5.9910717 c 0,0.172589 -0.139911,0.3125 -0.3125,0.3125 -0.172589,0 -0.3125,-0.139911 -0.3125,-0.3125 0,-0.172589 0.139911,-0.3125 0.3125,-0.3125 0.172589,0 0.3125,0.139911 0.3125,0.3125 z" />
    <path
       transform="matrix(2.1428571,0,0,2.1428571,198.17286,123.55461)"
       sodipodi:type="arc"
       style="fill:#ff0000;fill-opacity:1;stroke:#ffffff;stroke-width:0;stroke-linecap:butt;stroke-miterlimit:4;stroke-opacity:1;stroke-dasharray:none;stroke-dashoffset:0"
       id="path4007-9-50"
       sodipodi:cx="3.4375"
       sodipodi:cy="5.9910717"
       sodipodi:rx="0.3125"
       sodipodi:ry="0.3125"
       d="m 3.75,5.9910717 c 0,0.172589 -0.139911,0.3125 -0.3125,0.3125 -0.172589,0 -0.3125,-0.139911 -0.3125,-0.3125 0,-0.172589 0.139911,-0.3125 0.3125,-0.3125 0.172589,0 0.3125,0.139911 0.3125,0.3125 z" />
    <path
       transform="matrix(2.1428571,0,0,2.1428571,195.58357,127.30461)"
       sodipodi:type="arc"
       style="fill:#ff0000;fill-opacity:1;stroke:#ffffff;stroke-width:0;stroke-linecap:butt;stroke-miterlimit:4;stroke-opacity:1;stroke-dasharray:none;stroke-dashoffset:0"
       id="path4007-9-00"
       sodipodi:cx="3.4375"
       sodipodi:cy="5.9910717"
       sodipodi:rx="0.3125"
       sodipodi:ry="0.3125"
       d="m 3.75,5.9910717 c 0,0.172589 -0.139911,0.3125 -0.3125,0.3125 -0.172589,0 -0.3125,-0.139911 -0.3125,-0.3125 0,-0.172589 0.139911,-0.3125 0.3125,-0.3125 0.172589,0 0.3125,0.139911 0.3125,0.3125 z" />
    <path
       transform="matrix(2.1428571,0,0,2.1428571,199.06571,128.28675)"
       sodipodi:type="arc"
       style="fill:#ff0000;fill-opacity:1;stroke:#ffffff;stroke-width:0;stroke-linecap:butt;stroke-miterlimit:4;stroke-opacity:1;stroke-dasharray:none;stroke-dashoffset:0"
       id="path4007-9-7"
       sodipodi:cx="3.4375"
       sodipodi:cy="5.9910717"
       sodipodi:rx="0.3125"
       sodipodi:ry="0.3125"
       d="m 3.75,5.9910717 c 0,0.172589 -0.139911,0.3125 -0.3125,0.3125 -0.172589,0 -0.3125,-0.139911 -0.3125,-0.3125 0,-0.172589 0.139911,-0.3125 0.3125,-0.3125 0.172589,0 0.3125,0.139911 0.3125,0.3125 z" />
    <path
       transform="matrix(2.1428571,0,0,2.1428571,200.94071,126.41175)"
       sodipodi:type="arc"
       style="fill:#ff0000;fill-opacity:1;stroke:#ffffff;stroke-width:0;stroke-linecap:butt;stroke-miterlimit:4;stroke-opacity:1;stroke-dasharray:none;stroke-dashoffset:0"
       id="path4007-9-8"
       sodipodi:cx="3.4375"
       sodipodi:cy="5.9910717"
       sodipodi:rx="0.3125"
       sodipodi:ry="0.3125"
       d="m 3.75,5.9910717 c 0,0.172589 -0.139911,0.3125 -0.3125,0.3125 -0.172589,0 -0.3125,-0.139911 -0.3125,-0.3125 0,-0.172589 0.139911,-0.3125 0.3125,-0.3125 0.172589,0 0.3125,0.139911 0.3125,0.3125 z" />
    <path
       transform="matrix(2.1428571,0,0,2.1428571,202.63714,124.17961)"
       sodipodi:type="arc"
       style="fill:#ff0000;fill-opacity:1;stroke:#ffffff;stroke-width:0;stroke-linecap:butt;stroke-miterlimit:4;stroke-opacity:1;stroke-dasharray:none;stroke-dashoffset:0"
       id="path4007-9-16"
       sodipodi:cx="3.4375"
       sodipodi:cy="5.9910717"
       sodipodi:rx="0.3125"
       sodipodi:ry="0.3125"
       d="m 3.75,5.9910717 c 0,0.172589 -0.139911,0.3125 -0.3125,0.3125 -0.172589,0 -0.3125,-0.139911 -0.3125,-0.3125 0,-0.172589 0.139911,-0.3125 0.3125,-0.3125 0.172589,0 0.3125,0.139911 0.3125,0.3125 z" />
    <path
       transform="matrix(2.1428571,0,0,2.1428571,205.405,121.05461)"
       sodipodi:type="arc"
       style="fill:#ff0000;fill-opacity:1;stroke:#ffffff;stroke-width:0;stroke-linecap:butt;stroke-miterlimit:4;stroke-opacity:1;stroke-dasharray:none;stroke-dashoffset:0"
       id="path4007-9-48"
       sodipodi:cx="3.4375"
       sodipodi:cy="5.9910717"
       sodipodi:rx="0.3125"
       sodipodi:ry="0.3125"
       d="m 3.75,5.9910717 c 0,0.172589 -0.139911,0.3125 -0.3125,0.3125 -0.172589,0 -0.3125,-0.139911 -0.3125,-0.3125 0,-0.172589 0.139911,-0.3125 0.3125,-0.3125 0.172589,0 0.3125,0.139911 0.3125,0.3125 z" />
    <path
       transform="matrix(2.1428571,0,0,2.1428571,200.58357,121.59032)"
       sodipodi:type="arc"
       style="fill:#ff0000;fill-opacity:1;stroke:#ffffff;stroke-width:0;stroke-linecap:butt;stroke-miterlimit:4;stroke-opacity:1;stroke-dasharray:none;stroke-dashoffset:0"
       id="path4007-9-20"
       sodipodi:cx="3.4375"
       sodipodi:cy="5.9910717"
       sodipodi:rx="0.3125"
       sodipodi:ry="0.3125"
       d="m 3.75,5.9910717 c 0,0.172589 -0.139911,0.3125 -0.3125,0.3125 -0.172589,0 -0.3125,-0.139911 -0.3125,-0.3125 0,-0.172589 0.139911,-0.3125 0.3125,-0.3125 0.172589,0 0.3125,0.139911 0.3125,0.3125 z" />
    <path
       transform="matrix(2.1428571,0,0,2.1428571,197.28,118.37604)"
       sodipodi:type="arc"
       style="fill:#ff0000;fill-opacity:1;stroke:#ffffff;stroke-width:0;stroke-linecap:butt;stroke-miterlimit:4;stroke-opacity:1;stroke-dasharray:none;stroke-dashoffset:0"
       id="path4007-9-9"
       sodipodi:cx="3.4375"
       sodipodi:cy="5.9910717"
       sodipodi:rx="0.3125"
       sodipodi:ry="0.3125"
       d="m 3.75,5.9910717 c 0,0.172589 -0.139911,0.3125 -0.3125,0.3125 -0.172589,0 -0.3125,-0.139911 -0.3125,-0.3125 0,-0.172589 0.139911,-0.3125 0.3125,-0.3125 0.172589,0 0.3125,0.139911 0.3125,0.3125 z" />
    <path
       transform="matrix(2.1428571,0,0,2.1428571,204.42286,116.14389)"
       sodipodi:type="arc"
       style="fill:#ff0000;fill-opacity:1;stroke:#ffffff;stroke-width:0;stroke-linecap:butt;stroke-miterlimit:4;stroke-opacity:1;stroke-dasharray:none;stroke-dashoffset:0"
       id="path4007-9-3"
       sodipodi:cx="3.4375"
       sodipodi:cy="5.9910717"
       sodipodi:rx="0.3125"
       sodipodi:ry="0.3125"
       d="m 3.75,5.9910717 c 0,0.172589 -0.139911,0.3125 -0.3125,0.3125 -0.172589,0 -0.3125,-0.139911 -0.3125,-0.3125 0,-0.172589 0.139911,-0.3125 0.3125,-0.3125 0.172589,0 0.3125,0.139911 0.3125,0.3125 z" />
    <path
       transform="matrix(2.1428571,0,0,2.1428571,206.655,120.07247)"
       sodipodi:type="arc"
       style="fill:#ff0000;fill-opacity:1;stroke:#ffffff;stroke-width:0;stroke-linecap:butt;stroke-miterlimit:4;stroke-opacity:1;stroke-dasharray:none;stroke-dashoffset:0"
       id="path4007-9-77"
       sodipodi:cx="3.4375"
       sodipodi:cy="5.9910717"
       sodipodi:rx="0.3125"
       sodipodi:ry="0.3125"
       d="m 3.75,5.9910717 c 0,0.172589 -0.139911,0.3125 -0.3125,0.3125 -0.172589,0 -0.3125,-0.139911 -0.3125,-0.3125 0,-0.172589 0.139911,-0.3125 0.3125,-0.3125 0.172589,0 0.3125,0.139911 0.3125,0.3125 z" />
    <path
       transform="matrix(2.1428571,0,0,2.1428571,209.155,117.39389)"
       sodipodi:type="arc"
       style="fill:#ff0000;fill-opacity:1;stroke:#ffffff;stroke-width:0;stroke-linecap:butt;stroke-miterlimit:4;stroke-opacity:1;stroke-dasharray:none;stroke-dashoffset:0"
       id="path4007-9-84"
       sodipodi:cx="3.4375"
       sodipodi:cy="5.9910717"
       sodipodi:rx="0.3125"
       sodipodi:ry="0.3125"
       d="m 3.75,5.9910717 c 0,0.172589 -0.139911,0.3125 -0.3125,0.3125 -0.172589,0 -0.3125,-0.139911 -0.3125,-0.3125 0,-0.172589 0.139911,-0.3125 0.3125,-0.3125 0.172589,0 0.3125,0.139911 0.3125,0.3125 z" />
    <path
       transform="matrix(2.1428571,0,0,2.1428571,203.26214,119.71532)"
       sodipodi:type="arc"
       style="fill:#ff0000;fill-opacity:1;stroke:#ffffff;stroke-width:0;stroke-linecap:butt;stroke-miterlimit:4;stroke-opacity:1;stroke-dasharray:none;stroke-dashoffset:0"
       id="path4007-9-33"
       sodipodi:cx="3.4375"
       sodipodi:cy="5.9910717"
       sodipodi:rx="0.3125"
       sodipodi:ry="0.3125"
       d="m 3.75,5.9910717 c 0,0.172589 -0.139911,0.3125 -0.3125,0.3125 -0.172589,0 -0.3125,-0.139911 -0.3125,-0.3125 0,-0.172589 0.139911,-0.3125 0.3125,-0.3125 0.172589,0 0.3125,0.139911 0.3125,0.3125 z" />
    <path
       transform="matrix(2.1428571,0,0,2.1428571,204.60143,118.28675)"
       sodipodi:type="arc"
       style="fill:#ff0000;fill-opacity:1;stroke:#ffffff;stroke-width:0;stroke-linecap:butt;stroke-miterlimit:4;stroke-opacity:1;stroke-dasharray:none;stroke-dashoffset:0"
       id="path4007-9-52"
       sodipodi:cx="3.4375"
       sodipodi:cy="5.9910717"
       sodipodi:rx="0.3125"
       sodipodi:ry="0.3125"
       d="m 3.75,5.9910717 c 0,0.172589 -0.139911,0.3125 -0.3125,0.3125 -0.172589,0 -0.3125,-0.139911 -0.3125,-0.3125 0,-0.172589 0.139911,-0.3125 0.3125,-0.3125 0.172589,0 0.3125,0.139911 0.3125,0.3125 z" />
    <path
       transform="matrix(2.1428571,0,0,2.1428571,197.54786,125.25104)"
       sodipodi:type="arc"
       style="fill:#ff0000;fill-opacity:1;stroke:#ffffff;stroke-width:0;stroke-linecap:butt;stroke-miterlimit:4;stroke-opacity:1;stroke-dasharray:none;stroke-dashoffset:0"
       id="path4007-9-34"
       sodipodi:cx="3.4375"
       sodipodi:cy="5.9910717"
       sodipodi:rx="0.3125"
       sodipodi:ry="0.3125"
       d="m 3.75,5.9910717 c 0,0.172589 -0.139911,0.3125 -0.3125,0.3125 -0.172589,0 -0.3125,-0.139911 -0.3125,-0.3125 0,-0.172589 0.139911,-0.3125 0.3125,-0.3125 0.172589,0 0.3125,0.139911 0.3125,0.3125 z" />
    <path
       transform="matrix(2.1428571,0,0,2.1428571,201.29786,125.16175)"
       sodipodi:type="arc"
       style="fill:#ff0000;fill-opacity:1;stroke:#ffffff;stroke-width:0;stroke-linecap:butt;stroke-miterlimit:4;stroke-opacity:1;stroke-dasharray:none;stroke-dashoffset:0"
       id="path4007-9-62"
       sodipodi:cx="3.4375"
       sodipodi:cy="5.9910717"
       sodipodi:rx="0.3125"
       sodipodi:ry="0.3125"
       d="m 3.75,5.9910717 c 0,0.172589 -0.139911,0.3125 -0.3125,0.3125 -0.172589,0 -0.3125,-0.139911 -0.3125,-0.3125 0,-0.172589 0.139911,-0.3125 0.3125,-0.3125 0.172589,0 0.3125,0.139911 0.3125,0.3125 z" />
    <path
       transform="matrix(2.1428571,0,0,2.1428571,199.69072,123.10818)"
       sodipodi:type="arc"
       style="fill:#ff0000;fill-opacity:1;stroke:#ffffff;stroke-width:0;stroke-linecap:butt;stroke-miterlimit:4;stroke-opacity:1;stroke-dasharray:none;stroke-dashoffset:0"
       id="path4007-9-14"
       sodipodi:cx="3.4375"
       sodipodi:cy="5.9910717"
       sodipodi:rx="0.3125"
       sodipodi:ry="0.3125"
       d="m 3.75,5.9910717 c 0,0.172589 -0.139911,0.3125 -0.3125,0.3125 -0.172589,0 -0.3125,-0.139911 -0.3125,-0.3125 0,-0.172589 0.139911,-0.3125 0.3125,-0.3125 0.172589,0 0.3125,0.139911 0.3125,0.3125 z" />
    <path
       transform="matrix(2.1428571,0,0,2.1428571,201.92286,121.14389)"
       sodipodi:type="arc"
       style="fill:#ff0000;fill-opacity:1;stroke:#ffffff;stroke-width:0;stroke-linecap:butt;stroke-miterlimit:4;stroke-opacity:1;stroke-dasharray:none;stroke-dashoffset:0"
       id="path4007-9-03"
       sodipodi:cx="3.4375"
       sodipodi:cy="5.9910717"
       sodipodi:rx="0.3125"
       sodipodi:ry="0.3125"
       d="m 3.75,5.9910717 c 0,0.172589 -0.139911,0.3125 -0.3125,0.3125 -0.172589,0 -0.3125,-0.139911 -0.3125,-0.3125 0,-0.172589 0.139911,-0.3125 0.3125,-0.3125 0.172589,0 0.3125,0.139911 0.3125,0.3125 z" />
    <path
       transform="matrix(2.1428571,0,0,2.1428571,203.44072,123.01889)"
       sodipodi:type="arc"
       style="fill:#ff0000;fill-opacity:1;stroke:#ffffff;stroke-width:0;stroke-linecap:butt;stroke-miterlimit:4;stroke-opacity:1;stroke-dasharray:none;stroke-dashoffset:0"
       id="path4007-9-61"
       sodipodi:cx="3.4375"
       sodipodi:cy="5.9910717"
       sodipodi:rx="0.3125"
       sodipodi:ry="0.3125"
       d="m 3.75,5.9910717 c 0,0.172589 -0.139911,0.3125 -0.3125,0.3125 -0.172589,0 -0.3125,-0.139911 -0.3125,-0.3125 0,-0.172589 0.139911,-0.3125 0.3125,-0.3125 0.172589,0 0.3125,0.139911 0.3125,0.3125 z" />
    <path
       transform="matrix(2.1428571,0,0,2.1428571,207.72643,118.19746)"
       sodipodi:type="arc"
       style="fill:#ff0000;fill-opacity:1;stroke:#ffffff;stroke-width:0;stroke-linecap:butt;stroke-miterlimit:4;stroke-opacity:1;stroke-dasharray:none;stroke-dashoffset:0"
       id="path4007-9-98"
       sodipodi:cx="3.4375"
       sodipodi:cy="5.9910717"
       sodipodi:rx="0.3125"
       sodipodi:ry="0.3125"
       d="m 3.75,5.9910717 c 0,0.172589 -0.139911,0.3125 -0.3125,0.3125 -0.172589,0 -0.3125,-0.139911 -0.3125,-0.3125 0,-0.172589 0.139911,-0.3125 0.3125,-0.3125 0.172589,0 0.3125,0.139911 0.3125,0.3125 z" />
    <path
       transform="matrix(2.1428571,0,0,2.1428571,199.33357,127.21533)"
       sodipodi:type="arc"
       style="fill:#ff0000;fill-opacity:1;stroke:#ffffff;stroke-width:0;stroke-linecap:butt;stroke-miterlimit:4;stroke-opacity:1;stroke-dasharray:none;stroke-dashoffset:0"
       id="path4007-9-40"
       sodipodi:cx="3.4375"
       sodipodi:cy="5.9910717"
       sodipodi:rx="0.3125"
       sodipodi:ry="0.3125"
       d="m 3.75,5.9910717 c 0,0.172589 -0.139911,0.3125 -0.3125,0.3125 -0.172589,0 -0.3125,-0.139911 -0.3125,-0.3125 0,-0.172589 0.139911,-0.3125 0.3125,-0.3125 0.172589,0 0.3125,0.139911 0.3125,0.3125 z" />
    <path
       transform="matrix(2.1428571,0,0,2.1428571,197.28,129.35818)"
       sodipodi:type="arc"
       style="fill:#ff0000;fill-opacity:1;stroke:#ffffff;stroke-width:0;stroke-linecap:butt;stroke-miterlimit:4;stroke-opacity:1;stroke-dasharray:none;stroke-dashoffset:0"
       id="path4007-9-87"
       sodipodi:cx="3.4375"
       sodipodi:cy="5.9910717"
       sodipodi:rx="0.3125"
       sodipodi:ry="0.3125"
       d="m 3.75,5.9910717 c 0,0.172589 -0.139911,0.3125 -0.3125,0.3125 -0.172589,0 -0.3125,-0.139911 -0.3125,-0.3125 0,-0.172589 0.139911,-0.3125 0.3125,-0.3125 0.172589,0 0.3125,0.139911 0.3125,0.3125 z" />
    <path
       transform="matrix(2.1428571,0,0,2.1428571,206.74429,126.94747)"
       sodipodi:type="arc"
       style="fill:#ff0000;fill-opacity:1;stroke:#ffffff;stroke-width:0;stroke-linecap:butt;stroke-miterlimit:4;stroke-opacity:1;stroke-dasharray:none;stroke-dashoffset:0"
       id="path4007-9-42"
       sodipodi:cx="3.4375"
       sodipodi:cy="5.9910717"
       sodipodi:rx="0.3125"
       sodipodi:ry="0.3125"
       d="m 3.75,5.9910717 c 0,0.172589 -0.139911,0.3125 -0.3125,0.3125 -0.172589,0 -0.3125,-0.139911 -0.3125,-0.3125 0,-0.172589 0.139911,-0.3125 0.3125,-0.3125 0.172589,0 0.3125,0.139911 0.3125,0.3125 z" />
    <path
       transform="matrix(2.1428571,0,0,2.1428571,202.54785,128.46532)"
       sodipodi:type="arc"
       style="fill:#ff0000;fill-opacity:1;stroke:#ffffff;stroke-width:0;stroke-linecap:butt;stroke-miterlimit:4;stroke-opacity:1;stroke-dasharray:none;stroke-dashoffset:0"
       id="path4007-9-06"
       sodipodi:cx="3.4375"
       sodipodi:cy="5.9910717"
       sodipodi:rx="0.3125"
       sodipodi:ry="0.3125"
       d="m 3.75,5.9910717 c 0,0.172589 -0.139911,0.3125 -0.3125,0.3125 -0.172589,0 -0.3125,-0.139911 -0.3125,-0.3125 0,-0.172589 0.139911,-0.3125 0.3125,-0.3125 0.172589,0 0.3125,0.139911 0.3125,0.3125 z" />
  </g>
</svg>
