<?xml version="1.0" encoding="UTF-8" standalone="no"?>
<!-- Created with Inkscape (http://www.inkscape.org/) -->

<svg
   xmlns:dc="http://purl.org/dc/elements/1.1/"
   xmlns:cc="http://creativecommons.org/ns#"
   xmlns:rdf="http://www.w3.org/1999/02/22-rdf-syntax-ns#"
   xmlns:svg="http://www.w3.org/2000/svg"
   xmlns="http://www.w3.org/2000/svg"
   xmlns:sodipodi="http://sodipodi.sourceforge.net/DTD/sodipodi-0.dtd"
   xmlns:inkscape="http://www.inkscape.org/namespaces/inkscape"
   width="24.647392"
   height="23.09375"
   id="svg2"
   version="1.1"
   inkscape:version="0.48.3.1 r9886"
   sodipodi:docname="set.svg">
  <defs
     id="defs4" />
  <sodipodi:namedview
     id="base"
     pagecolor="#ffffff"
     bordercolor="#666666"
     borderopacity="1.0"
     inkscape:pageopacity="0.0"
     inkscape:pageshadow="2"
     inkscape:zoom="11.2"
     inkscape:cx="37.729826"
     inkscape:cy="19.396497"
     inkscape:document-units="px"
     inkscape:current-layer="layer1"
     showgrid="false"
     inkscape:window-width="1301"
     inkscape:window-height="704"
     inkscape:window-x="65"
     inkscape:window-y="24"
     inkscape:window-maximized="1"
     fit-margin-top="0"
     fit-margin-left="0"
     fit-margin-right="0"
     fit-margin-bottom="0"
     showborder="true" />
  <metadata
     id="metadata7">
    <rdf:RDF>
      <cc:Work
         rdf:about="">
        <dc:format>image/svg+xml</dc:format>
        <dc:type
           rdf:resource="http://purl.org/dc/dcmitype/StillImage" />
        <dc:title />
      </cc:Work>
    </rdf:RDF>
  </metadata>
  <g
     inkscape:label="Layer 1"
     inkscape:groupmode="layer"
     id="layer1"
     transform="translate(3.8022401,-1030.1184)">
    <path
       transform="matrix(1.2211561,0,0,1.2211561,-71.653905,1020.2289)"
       sodipodi:type="arc"
       style="fill:#ffffff;fill-opacity:1;stroke:#000000;stroke-width:1;stroke-miterlimit:4;stroke-opacity:1;stroke-dasharray:none"
       id="path4140-5"
       sodipodi:cx="61.619305"
       sodipodi:cy="14.154314"
       sodipodi:rx="5.5558391"
       sodipodi:ry="5.5558391"
       d="m 67.175144,14.154314 c 0,3.068405 -2.487434,5.555839 -5.555839,5.555839 -3.068406,0 -5.555839,-2.487434 -5.555839,-5.555839 0,-3.068405 2.487433,-5.555839 5.555839,-5.555839 3.068405,0 5.555839,2.487434 5.555839,5.555839 z" />
    <path
       transform="matrix(1.2211561,0,0,1.2211561,-61.796763,1023.3539)"
       sodipodi:type="arc"
       style="fill:#ffffff;fill-opacity:1;stroke:#000000;stroke-width:1;stroke-miterlimit:4;stroke-opacity:1;stroke-dasharray:none"
       id="path4140-8"
       sodipodi:cx="61.619305"
       sodipodi:cy="14.154314"
       sodipodi:rx="5.5558391"
       sodipodi:ry="5.5558391"
       d="m 67.175144,14.154314 c 0,3.068405 -2.487434,5.555839 -5.555839,5.555839 -3.068406,0 -5.555839,-2.487434 -5.555839,-5.555839 0,-3.068405 2.487433,-5.555839 5.555839,-5.555839 3.068405,0 5.555839,2.487434 5.555839,5.555839 z" />
    <path
       transform="matrix(1.2211561,0,0,1.2211561,-68.011048,1028.5324)"
       sodipodi:type="arc"
       style="fill:#ffffff;fill-opacity:1;stroke:#000000;stroke-width:1;stroke-miterlimit:4;stroke-opacity:1;stroke-dasharray:none"
       id="path4140-58"
       sodipodi:cx="61.619305"
       sodipodi:cy="14.154314"
       sodipodi:rx="5.5558391"
       sodipodi:ry="5.5558391"
       d="m 67.175144,14.154314 c 0,3.068405 -2.487434,5.555839 -5.555839,5.555839 -3.068406,0 -5.555839,-2.487434 -5.555839,-5.555839 0,-3.068405 2.487433,-5.555839 5.555839,-5.555839 3.068405,0 5.555839,2.487434 5.555839,5.555839 z" />
    <path
       d="m 67.175144,14.154314 c 0,3.068405 -2.487434,5.555839 -5.555839,5.555839 -3.068406,0 -5.555839,-2.487434 -5.555839,-5.555839 0,-3.068405 2.487433,-5.555839 5.555839,-5.555839 3.068405,0 5.555839,2.487434 5.555839,5.555839 z"
       sodipodi:ry="5.5558391"
       sodipodi:rx="5.5558391"
       sodipodi:cy="14.154314"
       sodipodi:cx="61.619305"
       id="path4207"
       style="fill:#ffffff;fill-opacity:1;stroke:#000000;stroke-width:1;stroke-miterlimit:4;stroke-opacity:1;stroke-dasharray:none"
       sodipodi:type="arc"
       transform="matrix(1.2211561,0,0,1.2211561,-71.653905,1020.2289)" />
    <path
       d="m 67.175144,14.154314 c 0,3.068405 -2.487434,5.555839 -5.555839,5.555839 -3.068406,0 -5.555839,-2.487434 -5.555839,-5.555839 0,-3.068405 2.487433,-5.555839 5.555839,-5.555839 3.068405,0 5.555839,2.487434 5.555839,5.555839 z"
       sodipodi:ry="5.5558391"
       sodipodi:rx="5.5558391"
       sodipodi:cy="14.154314"
       sodipodi:cx="61.619305"
       id="path4209"
       style="fill:#ffffff;fill-opacity:1;stroke:#000000;stroke-width:1;stroke-miterlimit:4;stroke-opacity:1;stroke-dasharray:none"
       sodipodi:type="arc"
       transform="matrix(1.2211561,0,0,1.2211561,-61.796763,1023.3539)" />
    <path
       d="m 67.175144,14.154314 c 0,3.068405 -2.487434,5.555839 -5.555839,5.555839 -3.068406,0 -5.555839,-2.487434 -5.555839,-5.555839 0,-3.068405 2.487433,-5.555839 5.555839,-5.555839 3.068405,0 5.555839,2.487434 5.555839,5.555839 z"
       sodipodi:ry="5.5558391"
       sodipodi:rx="5.5558391"
       sodipodi:cy="14.154314"
       sodipodi:cx="61.619305"
       id="path4211"
       style="fill:#ffffff;fill-opacity:1;stroke:#000000;stroke-width:1;stroke-miterlimit:4;stroke-opacity:1;stroke-dasharray:none"
       sodipodi:type="arc"
       transform="matrix(1.2211561,0,0,1.2211561,-68.011048,1028.5324)" />
    <path
       transform="matrix(1.2211561,0,0,1.2211561,-71.653905,1020.2289)"
       sodipodi:type="arc"
       style="fill:#ffffff;fill-opacity:1;stroke:#000000;stroke-width:1;stroke-miterlimit:4;stroke-opacity:1;stroke-dasharray:none"
       id="path4213"
       sodipodi:cx="61.619305"
       sodipodi:cy="14.154314"
       sodipodi:rx="5.5558391"
       sodipodi:ry="5.5558391"
       d="m 67.175144,14.154314 c 0,3.068405 -2.487434,5.555839 -5.555839,5.555839 -3.068406,0 -5.555839,-2.487434 -5.555839,-5.555839 0,-3.068405 2.487433,-5.555839 5.555839,-5.555839 3.068405,0 5.555839,2.487434 5.555839,5.555839 z" />
    <path
       transform="matrix(1.2211561,0,0,1.2211561,-61.796763,1023.3539)"
       sodipodi:type="arc"
       style="fill:#ffffff;fill-opacity:1;stroke:#000000;stroke-width:1;stroke-miterlimit:4;stroke-opacity:1;stroke-dasharray:none"
       id="path4215"
       sodipodi:cx="61.619305"
       sodipodi:cy="14.154314"
       sodipodi:rx="5.5558391"
       sodipodi:ry="5.5558391"
       d="m 67.175144,14.154314 c 0,3.068405 -2.487434,5.555839 -5.555839,5.555839 -3.068406,0 -5.555839,-2.487434 -5.555839,-5.555839 0,-3.068405 2.487433,-5.555839 5.555839,-5.555839 3.068405,0 5.555839,2.487434 5.555839,5.555839 z" />
    <path
       transform="matrix(1.2211561,0,0,1.2211561,-68.011048,1028.5324)"
       sodipodi:type="arc"
       style="fill:#ffffff;fill-opacity:1;stroke:#000000;stroke-width:1;stroke-miterlimit:4;stroke-opacity:1;stroke-dasharray:none"
       id="path4217"
       sodipodi:cx="61.619305"
       sodipodi:cy="14.154314"
       sodipodi:rx="5.5558391"
       sodipodi:ry="5.5558391"
       d="m 67.175144,14.154314 c 0,3.068405 -2.487434,5.555839 -5.555839,5.555839 -3.068406,0 -5.555839,-2.487434 -5.555839,-5.555839 0,-3.068405 2.487433,-5.555839 5.555839,-5.555839 3.068405,0 5.555839,2.487434 5.555839,5.555839 z" />
    <path
       d="m 67.175144,14.154314 c 0,3.068405 -2.487434,5.555839 -5.555839,5.555839 -3.068406,0 -5.555839,-2.487434 -5.555839,-5.555839 0,-3.068405 2.487433,-5.555839 5.555839,-5.555839 3.068405,0 5.555839,2.487434 5.555839,5.555839 z"
       sodipodi:ry="5.5558391"
       sodipodi:rx="5.5558391"
       sodipodi:cy="14.154314"
       sodipodi:cx="61.619305"
       id="path4219"
       style="fill:#ffffff;fill-opacity:1;stroke:#000000;stroke-width:1;stroke-miterlimit:4;stroke-opacity:1;stroke-dasharray:none"
       sodipodi:type="arc"
       transform="matrix(1.2211561,0,0,1.2211561,-71.653905,1020.2289)" />
    <path
       d="m 67.175144,14.154314 c 0,3.068405 -2.487434,5.555839 -5.555839,5.555839 -3.068406,0 -5.555839,-2.487434 -5.555839,-5.555839 0,-3.068405 2.487433,-5.555839 5.555839,-5.555839 3.068405,0 5.555839,2.487434 5.555839,5.555839 z"
       sodipodi:ry="5.5558391"
       sodipodi:rx="5.5558391"
       sodipodi:cy="14.154314"
       sodipodi:cx="61.619305"
       id="path4221"
       style="fill:#ffffff;fill-opacity:1;stroke:#000000;stroke-width:1;stroke-miterlimit:4;stroke-opacity:1;stroke-dasharray:none"
       sodipodi:type="arc"
       transform="matrix(1.2211561,0,0,1.2211561,-61.796763,1023.3539)" />
    <path
       d="m 67.175144,14.154314 c 0,3.068405 -2.487434,5.555839 -5.555839,5.555839 -3.068406,0 -5.555839,-2.487434 -5.555839,-5.555839 0,-3.068405 2.487433,-5.555839 5.555839,-5.555839 3.068405,0 5.555839,2.487434 5.555839,5.555839 z"
       sodipodi:ry="5.5558391"
       sodipodi:rx="5.5558391"
       sodipodi:cy="14.154314"
       sodipodi:cx="61.619305"
       id="path4223"
       style="fill:#ffffff;fill-opacity:1;stroke:#000000;stroke-width:1;stroke-miterlimit:4;stroke-opacity:1;stroke-dasharray:none"
       sodipodi:type="arc"
       transform="matrix(1.2211561,0,0,1.2211561,-68.011048,1028.5324)" />
    <path
       style="fill:#ffffff;fill-opacity:1;stroke:#000000;stroke-width:1.22115612;stroke-miterlimit:4;stroke-opacity:1;stroke-dasharray:none"
       d="m 7.2357427,1039.0448 c -3.0094933,0 -5.5495545,1.9435 -6.43749994,4.6562 0.85243504,0.386 1.78462804,0.5938 2.78124994,0.5938 3.0101183,0 5.5813115,-1.9427 6.4687503,-4.6563 -0.8541528,-0.3879 -1.8132998,-0.5937 -2.8125003,-0.5937 z"
       id="path4225"
       inkscape:connector-curvature="0" />
    <path
       style="fill:#ffffff;fill-opacity:1;stroke:#000000;stroke-width:1.22115612;stroke-miterlimit:4;stroke-opacity:1;stroke-dasharray:none"
       d="m 9.8294927,1034.8885 c -1.9093309,1.2005 -3.15625,3.3281 -3.15625,5.75 0,0.9263 0.1951408,1.8206 0.53125,2.625 1.9093309,-1.2005 3.1875003,-3.3281 3.1875003,-5.75 0,-0.9267 -0.226159,-1.8203 -0.5625003,-2.625 z"
       id="path4227"
       inkscape:connector-curvature="0" />
    <path
       style="fill:#ffffff;fill-opacity:1;stroke:#000000;stroke-width:1.22115612;stroke-miterlimit:4;stroke-opacity:1;stroke-dasharray:none"
       d="m 7.2357427,1039.0448 c -0.1279582,0 -0.2487893,0.024 -0.375,0.031 -0.1175521,0.5003 -0.1875,1.0264 -0.1875,1.5625 0,3.747 3.034248,6.7813 6.7812493,6.7813 0.127958,0 0.248789,-0.024 0.375,-0.031 0.121981,-0.509 0.1875,-1.0161 0.1875,-1.5625 0,-3.747 -3.034247,-6.7812 -6.7812493,-6.7812 z"
       id="path4233"
       inkscape:connector-curvature="0" />
    <path
       style="fill:#008000;fill-opacity:1;stroke:#008000;stroke-width:1.22115612;stroke-miterlimit:4;stroke-opacity:1;stroke-dasharray:none"
       d="m 7.2357427,1039.0448 c -0.1289522,0 -0.2478646,0.024 -0.375,0.031 -0.058776,0.2501 -0.092819,0.5202 -0.125,0.7813 -0.028269,0.2535 -0.0625,0.52 -0.0625,0.7812 0,0.4632 0.034201,0.9038 0.125,1.3438 0.00197,0.01 -0.00201,0.021 0,0.031 0.044283,0.2099 0.1248265,0.4229 0.1875,0.625 0.00287,0.01 -0.00291,0.022 0,0.031 0.060514,0.1922 0.1429028,0.3788 0.21875,0.5625 0.089436,-0.056 0.1946942,-0.096 0.28125,-0.1563 0.042386,-0.03 0.083322,-0.063 0.125,-0.094 0.096544,-0.071 0.1886771,-0.1435 0.28125,-0.2188 0.1773902,-0.1449 0.3380704,-0.3069 0.5,-0.4687 0.2204067,-0.2199 0.4366288,-0.4391 0.625,-0.6875 0.022654,-0.03 0.040328,-0.064 0.0625,-0.094 0.1981108,-0.2705 0.3747891,-0.5759 0.53125,-0.875 0.00632,-0.012 0.025005,-0.019 0.03125,-0.031 0.150422,-0.2921 0.268182,-0.5911 0.3750003,-0.9063 0.0045,-0.013 0.02682,-0.018 0.03125,-0.031 -0.063662,-0.029 -0.1227913,-0.066 -0.1875003,-0.094 -0.161782,-0.068 -0.3008294,-0.1316 -0.46875,-0.1875 -0.04079,-0.013 -0.083853,-0.019 -0.125,-0.031 -0.070794,-0.022 -0.1469806,-0.043 -0.21875,-0.063 -0.1464042,-0.039 -0.2873032,-0.095 -0.4375,-0.125 -0.4415675,-0.09 -0.9066248,-0.125 -1.375,-0.125 z"
       id="path4241"
       inkscape:connector-curvature="0" />
  </g>
</svg>
