<?xml version="1.0" encoding="UTF-8" standalone="no"?>
<svg
   xmlns:dc="http://purl.org/dc/elements/1.1/"
   xmlns:cc="http://creativecommons.org/ns#"
   xmlns:rdf="http://www.w3.org/1999/02/22-rdf-syntax-ns#"
   xmlns:svg="http://www.w3.org/2000/svg"
   xmlns="http://www.w3.org/2000/svg"
   xmlns:sodipodi="http://sodipodi.sourceforge.net/DTD/sodipodi-0.dtd"
   xmlns:inkscape="http://www.inkscape.org/namespaces/inkscape"
   width="758pt"
   height="752pt"
   viewBox="0 0 758 752"
   version="1.1"
   id="svg22"
   sodipodi:docname="heartX3.svg"
   inkscape:version="0.92.2 5c3e80d, 2017-08-06">
  <metadata
     id="metadata28">
    <rdf:RDF>
      <cc:Work
         rdf:about="">
        <dc:format>image/svg+xml</dc:format>
        <dc:type
           rdf:resource="http://purl.org/dc/dcmitype/StillImage" />
        <dc:title />
      </cc:Work>
    </rdf:RDF>
  </metadata>
  <defs
     id="defs26" />
  <sodipodi:namedview
     pagecolor="#ffffff"
     bordercolor="#666666"
     borderopacity="1"
     objecttolerance="10"
     gridtolerance="10"
     guidetolerance="10"
     inkscape:pageopacity="0"
     inkscape:pageshadow="2"
     inkscape:window-width="1110"
     inkscape:window-height="809"
     id="namedview24"
     showgrid="false"
     inkscape:zoom="0.66573351"
     inkscape:cx="450.62878"
     inkscape:cy="547.016"
     inkscape:window-x="0"
     inkscape:window-y="0"
     inkscape:window-maximized="0"
     inkscape:current-layer="svg22" />
  <g
     id="#4e98d7ff"
     style="fill:#0000ff;fill-opacity:1">
    <path
       fill="#4e98d7"
       opacity="1.00"
       d=" M 169.37 24.28 C 174.80 22.91 180.45 23.20 185.92 22.11 C 194.95 22.01 204.00 21.76 213.01 22.30 C 217.38 23.28 221.89 23.13 226.32 23.72 C 229.54 25.16 233.28 24.30 236.47 25.80 C 243.23 26.75 249.76 28.89 256.42 30.35 C 257.46 30.90 258.51 31.45 259.56 32.01 C 258.50 39.63 258.99 47.33 258.88 54.99 C 258.82 86.32 258.82 117.65 258.66 148.98 C 258.75 152.64 258.99 156.30 258.99 159.97 C 258.97 216.99 258.99 274.01 258.98 331.03 C 259.18 349.02 258.42 367.01 258.91 385.00 C 258.79 398.64 258.64 412.29 258.88 425.93 C 259.50 433.97 258.86 442.03 258.98 450.08 C 258.97 464.04 259.01 478.00 258.96 491.97 C 258.16 508.31 259.15 524.67 258.67 541.02 L 258.41 542.11 C 244.67 531.06 231.08 519.82 216.98 509.25 C 213.04 507.20 210.65 503.09 206.49 501.38 C 201.47 496.08 195.04 492.32 189.56 487.50 C 172.38 474.34 155.87 460.32 139.09 446.67 L 139.12 446.21 C 139.62 420.14 139.20 394.04 139.34 367.96 C 139.36 256.00 139.34 144.04 139.32 32.08 C 149.06 28.53 159.12 25.81 169.37 24.28 Z"
       id="path2"
       style="fill:#0000ff;fill-opacity:1" />
  </g>
  <g
     id="#ffcc01ff"
     style="fill:#ff0000;fill-opacity:1">
    <path
       fill="#ffcc01"
       opacity="1.00"
       d=" M 537.51 23.09 C 537.86 21.09 541.74 21.62 543.18 22.44 C 541.37 23.20 539.42 23.42 537.51 23.09 Z"
       id="path5"
       style="fill:#ff0000;fill-opacity:1" />
    <path
       fill="#ffcc01"
       opacity="1.00"
       d=" M 503.58 29.55 C 504.15 29.54 505.30 29.52 505.88 29.51 C 503.05 30.55 500.22 31.60 497.41 32.68 C 497.65 98.77 497.41 164.87 497.50 230.96 C 497.49 331.67 497.53 432.38 497.48 533.08 C 497.53 534.74 497.87 536.38 498.17 538.02 C 498.15 538.44 498.11 539.27 498.08 539.69 C 492.82 543.85 487.94 548.48 482.70 552.70 C 480.73 554.73 478.65 556.70 476.29 558.28 C 475.29 559.28 474.29 560.28 473.30 561.30 C 468.33 565.70 463.38 570.15 458.86 575.02 C 451.14 582.55 443.28 590.03 436.39 598.34 C 435.67 598.97 434.95 599.60 434.23 600.23 C 428.76 606.71 423.31 613.23 417.91 619.79 C 414.97 623.83 412.08 627.93 408.89 631.79 C 408.35 632.64 407.81 633.50 407.26 634.35 C 405.84 636.26 404.60 638.29 403.13 640.17 C 401.50 643.46 398.69 646.09 397.52 649.63 C 397.05 650.92 396.66 652.31 395.63 653.31 C 394.19 655.61 393.58 658.66 391.13 660.18 C 389.30 661.51 388.97 663.98 387.85 665.85 C 384.54 671.60 381.33 677.46 379.11 683.73 C 378.65 683.76 377.74 683.82 377.28 683.84 C 377.36 683.53 377.52 682.90 377.61 682.59 C 378.36 680.11 378.06 677.50 378.00 674.97 C 377.76 669.31 377.89 663.64 378.23 657.98 C 378.64 651.32 377.91 644.67 377.91 638.01 C 377.96 592.33 377.85 546.63 378.00 500.96 C 378.76 477.66 378.12 454.33 378.33 431.02 C 378.29 416.67 378.39 402.33 378.29 387.99 C 377.58 377.32 377.97 366.63 377.89 355.96 C 377.95 280.01 377.76 204.07 377.97 128.13 C 378.67 126.29 379.91 124.74 381.10 123.20 C 381.63 122.33 382.17 121.46 382.71 120.59 C 384.07 118.66 385.48 116.77 386.85 114.83 C 391.11 108.86 395.60 102.98 400.69 97.69 C 402.18 95.25 404.32 93.32 406.27 91.27 C 407.29 90.28 408.29 89.28 409.29 88.27 C 410.08 87.49 410.88 86.69 411.67 85.90 C 412.80 84.63 414.04 83.45 415.28 82.29 C 416.29 81.30 417.28 80.29 418.26 79.26 C 420.21 77.18 422.59 75.59 424.73 73.72 C 428.26 70.72 431.77 67.67 435.51 64.91 C 436.39 64.29 437.29 63.68 438.20 63.08 C 440.68 60.87 443.56 59.18 446.17 57.12 C 452.17 53.37 458.17 49.59 464.42 46.24 C 466.46 45.33 468.45 44.31 470.43 43.25 C 472.46 42.32 474.45 41.30 476.43 40.25 C 484.31 36.51 492.44 33.21 500.85 30.82 C 501.79 30.49 502.70 30.07 503.58 29.55 Z"
       id="path7"
       style="fill:#ff0000;fill-opacity:1" />
  </g>
  <g
     id="#ff6d0aff"
     style="fill:#ffff00;fill-opacity:1">
    <path
       fill="#ff6d0a"
       opacity="1.00"
       d=" M 543.18 22.44 C 557.08 20.50 571.30 21.51 585.18 23.34 C 595.08 24.94 604.98 27.03 614.35 30.67 C 614.04 70.13 614.56 109.60 614.04 149.05 C 614.77 159.71 613.60 170.36 613.89 181.01 C 613.77 228.01 614.47 275.00 614.26 321.99 C 614.25 363.50 614.29 405.01 614.25 446.52 C 614.05 446.92 613.65 447.73 613.45 448.13 C 607.29 452.74 601.47 457.79 595.34 462.44 C 588.83 468.36 581.38 473.11 574.83 478.98 C 570.20 482.21 566.07 486.10 561.41 489.29 C 556.79 492.81 552.09 496.21 547.61 499.90 C 547.42 500.24 547.04 500.92 546.85 501.26 C 544.03 501.93 542.17 504.38 539.94 506.04 C 532.02 511.60 524.78 518.09 517.15 524.05 C 510.72 528.81 504.80 534.22 498.38 539.01 L 498.17 538.02 C 497.87 536.38 497.53 534.74 497.48 533.08 C 497.53 432.38 497.49 331.67 497.50 230.96 C 497.41 164.87 497.65 98.77 497.41 32.68 C 500.22 31.60 503.05 30.55 505.88 29.51 C 508.34 28.64 510.77 27.60 513.39 27.30 C 514.14 26.83 514.95 26.51 515.82 26.33 C 519.73 25.94 523.40 24.19 527.38 24.43 L 527.31 23.43 C 530.73 23.71 534.09 22.65 537.51 23.09 C 539.42 23.42 541.37 23.20 543.18 22.44 Z"
       id="path10"
       style="fill:#ffff00;fill-opacity:1" />
  </g>
  <g
     id="#f00001ff"
     style="fill:#ffff00;fill-opacity:1">
    <path
       fill="#f00001"
       opacity="1.00"
       d=" M 614.35 30.67 C 649.65 42.70 679.70 68.07 699.45 99.49 C 704.86 108.03 709.86 116.88 713.88 126.17 C 725.93 159.55 734.40 194.60 735.15 230.20 C 736.14 237.14 734.64 244.07 734.81 251.02 C 733.35 270.21 730.20 289.44 723.71 307.60 C 720.69 317.11 716.49 326.22 711.85 335.04 C 706.00 347.70 697.67 358.98 689.90 370.50 C 685.85 375.45 682.10 380.66 677.90 385.50 C 658.72 407.80 637.42 428.41 614.25 446.52 C 614.29 405.01 614.25 363.50 614.26 321.99 C 614.47 275.00 613.77 228.01 613.89 181.01 C 613.60 170.36 614.77 159.71 614.04 149.05 C 614.56 109.60 614.04 70.13 614.35 30.67 Z"
       id="path13"
       style="fill:#ffff00;fill-opacity:1" />
  </g>
  <g
     id="#ad3f98ff"
     style="fill:#0000ff;fill-opacity:1">
    <path
       d=" M 136.40 33.26 C 137.37 32.85 138.34 32.46 139.32 32.08 C 139.34 144.04 139.36 256.00 139.34 367.96 C 139.20 394.04 139.62 420.14 139.12 446.21 C 135.82 443.76 133.06 440.60 129.40 438.63 C 125.97 437.09 124.58 433.38 121.90 430.99 C 102.62 413.59 84.77 394.64 68.64 374.29 C 62.77 366.00 56.75 357.77 51.58 349.01 C 50.72 347.43 49.75 345.91 48.59 344.53 C 42.50 332.35 35.95 320.32 31.59 307.37 C 24.69 288.68 20.82 268.95 19.49 249.11 C 17.23 212.78 24.35 176.40 36.32 142.21 C 44.20 118.46 56.86 96.33 73.18 77.37 C 81.90 68.29 90.76 59.23 101.21 52.12 C 110.91 45.08 121.52 39.36 132.54 34.68 C 133.78 34.10 135.08 33.65 136.40 33.26 Z"
       id="path16"
       fill="#ad3f98"
       opacity="1.00"
       style="fill:#0000ff;fill-opacity:1" />
  </g>
  <g
     id="#67c926ff"
     style="fill:#ff0000;fill-opacity:1">
    <path
       fill="#67c926"
       opacity="1.00"
       d=" M 259.56 32.01 C 263.32 32.71 266.81 34.31 270.41 35.56 C 285.82 41.67 300.79 49.14 314.37 58.71 C 328.03 67.59 340.12 78.69 351.33 90.47 C 361.51 101.49 370.20 113.79 377.98 126.58 C 377.98 126.97 377.97 127.74 377.97 128.13 C 377.76 204.07 377.95 280.01 377.89 355.96 C 377.97 366.63 377.58 377.32 378.29 387.99 C 378.39 402.33 378.29 416.67 378.33 431.02 C 378.12 454.33 378.76 477.66 378.00 500.96 C 377.85 546.63 377.96 592.33 377.91 638.01 C 377.91 644.67 378.64 651.32 378.23 657.98 C 377.89 663.64 377.76 669.31 378.00 674.97 C 378.06 677.50 378.36 680.11 377.61 682.59 C 375.87 680.11 374.78 677.29 373.46 674.61 C 366.22 658.91 356.72 644.42 346.72 630.37 C 335.97 616.23 324.14 602.97 311.80 590.20 C 308.65 586.64 304.31 584.48 301.24 580.81 C 296.93 577.42 294.14 572.55 289.73 569.30 C 279.62 560.03 269.23 551.06 258.61 542.36 L 258.67 541.02 C 259.15 524.67 258.16 508.31 258.96 491.97 C 259.01 478.00 258.97 464.04 258.98 450.08 C 258.86 442.03 259.50 433.97 258.88 425.93 C 258.64 412.29 258.79 398.64 258.91 385.00 C 258.42 367.01 259.18 349.02 258.98 331.03 C 258.99 274.01 258.97 216.99 258.99 159.97 C 258.99 156.30 258.75 152.64 258.66 148.98 C 258.82 117.65 258.82 86.32 258.88 54.99 C 258.99 47.33 258.50 39.63 259.56 32.01 Z"
       id="path19"
       style="fill:#ff0000;fill-opacity:1" />
  </g>
</svg>
