<?xml version="1.0" encoding="UTF-8" standalone="no"?>
<svg
   xmlns:dc="http://purl.org/dc/elements/1.1/"
   xmlns:cc="http://creativecommons.org/ns#"
   xmlns:rdf="http://www.w3.org/1999/02/22-rdf-syntax-ns#"
   xmlns:svg="http://www.w3.org/2000/svg"
   xmlns="http://www.w3.org/2000/svg"
   xmlns:sodipodi="http://sodipodi.sourceforge.net/DTD/sodipodi-0.dtd"
   xmlns:inkscape="http://www.inkscape.org/namespaces/inkscape"
   width="1034pt"
   height="1034pt"
   viewBox="0 0 1034 1034"
   version="1.1"
   id="svg23"
   sodipodi:docname="heartYgrey.svg"
   inkscape:version="0.92.2 5c3e80d, 2017-08-06">
  <metadata
     id="metadata29">
    <rdf:RDF>
      <cc:Work
         rdf:about="">
        <dc:format>image/svg+xml</dc:format>
        <dc:type
           rdf:resource="http://purl.org/dc/dcmitype/StillImage" />
        <dc:title></dc:title>
      </cc:Work>
    </rdf:RDF>
  </metadata>
  <defs
     id="defs27" />
  <sodipodi:namedview
     pagecolor="#ffffff"
     bordercolor="#666666"
     borderopacity="1"
     objecttolerance="10"
     gridtolerance="10"
     guidetolerance="10"
     inkscape:pageopacity="0"
     inkscape:pageshadow="2"
     inkscape:window-width="1234"
     inkscape:window-height="807"
     id="namedview25"
     showgrid="false"
     inkscape:zoom="0.48416983"
     inkscape:cx="689.33331"
     inkscape:cy="689.33331"
     inkscape:window-x="10"
     inkscape:window-y="0"
     inkscape:window-maximized="0"
     inkscape:current-layer="svg23"
     inkscape:snap-object-midpoints="true" />
  <g
     id="#ed1b24ff"
     style="fill:#808080">
    <path
       fill="#ed1b24"
       opacity="1.00"
       d=" M 316.18 122.27 C 327.40 122.37 338.67 121.68 349.83 123.07 C 353.87 123.50 358.01 122.76 361.97 123.89 C 365.27 124.78 368.66 125.23 372.07 125.37 C 378.87 126.47 385.54 128.25 392.27 129.71 C 394.59 130.50 396.90 131.43 399.40 131.50 C 400.51 132.10 401.64 132.68 402.77 133.27 C 404.18 133.48 405.87 133.08 407.01 134.21 C 409.70 135.19 412.65 135.53 415.00 137.29 C 415.58 137.35 416.73 137.48 417.31 137.54 C 418.71 138.37 420.21 139.02 421.77 139.54 C 428.17 141.77 434.05 145.21 440.31 147.79 C 441.54 148.59 442.81 149.34 444.24 149.76 C 444.74 150.02 445.74 150.55 446.24 150.81 C 448.65 152.32 451.17 153.64 453.74 154.86 C 453.70 155.35 453.61 156.34 453.56 156.84 L 454.01 155.33 C 455.09 156.01 456.19 156.69 457.28 157.40 C 459.19 158.80 461.57 159.54 463.24 161.27 C 464.27 161.91 465.28 162.59 466.26 163.32 C 467.26 163.99 468.24 164.66 469.24 165.35 C 471.33 166.88 473.36 168.50 475.26 170.26 C 489.41 180.63 501.61 193.81 511.74 208.18 C 513.43 210.31 514.39 213.02 516.48 214.84 C 517.01 215.86 517.53 216.90 518.13 217.91 C 521.55 215.34 523.24 211.12 525.82 207.78 C 530.42 201.47 535.17 195.21 540.87 189.83 C 550.01 180.18 559.75 170.96 570.84 163.58 L 571.13 164.83 C 570.90 162.13 574.18 161.55 575.69 159.90 C 576.55 160.15 577.41 160.42 578.30 160.58 L 576.61 159.20 C 579.86 157.82 582.88 155.98 585.70 153.86 C 588.23 152.88 590.44 151.27 592.71 149.79 C 594.33 149.51 595.96 149.06 597.24 147.92 C 598.68 147.54 600.04 146.92 601.17 145.90 C 601.99 145.48 602.81 145.06 603.64 144.64 C 605.80 143.77 608.05 142.99 609.92 141.54 C 610.58 141.51 611.92 141.47 612.59 141.45 C 613.18 140.77 613.79 140.09 614.40 139.42 C 615.06 139.43 616.39 139.44 617.05 139.44 C 617.90 138.78 618.76 138.13 619.63 137.48 C 621.78 137.61 623.79 136.93 625.36 135.43 C 626.09 135.41 627.55 135.37 628.28 135.36 C 630.68 132.88 634.32 133.27 637.40 132.39 C 637.43 132.12 637.49 131.57 637.52 131.30 C 638.39 131.29 640.12 131.27 640.99 131.25 C 644.58 129.24 648.80 129.58 652.53 128.01 C 654.89 126.88 657.63 127.59 660.07 126.73 C 665.09 124.73 670.61 125.22 675.79 123.84 C 680.30 122.57 685.04 123.73 689.62 122.91 C 696.33 121.67 703.17 122.68 709.92 121.83 C 716.25 122.49 722.66 121.95 728.97 122.98 C 733.27 123.61 737.69 122.68 741.92 123.89 C 747.20 125.24 752.85 124.59 757.94 126.69 C 760.84 127.85 764.23 126.55 766.99 128.17 C 769.05 128.90 771.20 129.24 773.37 129.51 C 775.13 130.52 777.27 130.36 779.13 131.15 C 780.38 131.26 781.64 131.36 782.92 131.45 C 790.69 134.03 798.61 136.27 806.47 138.64 L 806.58 139.50 C 807.23 139.49 808.55 139.46 809.21 139.44 C 810.90 140.75 812.87 141.60 815.03 141.71 C 816.62 142.67 818.26 143.65 820.19 143.71 C 821.74 144.64 823.38 145.43 825.19 145.73 C 825.93 146.29 826.69 146.85 827.45 147.42 C 828.79 147.59 830.28 147.42 831.47 148.25 C 833.28 149.57 835.92 149.40 837.19 151.47 C 837.74 151.51 838.83 151.61 839.38 151.66 C 840.57 152.54 841.82 153.39 843.27 153.81 C 847.34 155.64 851.24 157.84 855.15 160.00 C 858.33 161.99 862.40 162.99 864.45 166.38 C 864.71 166.44 865.21 166.56 865.47 166.62 C 866.16 167.95 867.43 167.34 868.44 166.81 L 868.30 167.71 C 886.13 177.41 901.78 190.69 917.01 204.03 C 922.94 210.06 929.06 215.93 934.72 222.22 C 938.69 226.63 942.75 231.02 946.01 236.01 C 949.65 240.76 953.77 245.14 957.32 249.98 C 909.89 249.38 862.45 249.84 815.01 249.69 C 635.01 249.69 455.01 249.69 275.01 249.69 C 210.01 249.72 145.00 249.54 80.01 250.03 C 80.01 249.32 80.01 247.90 80.01 247.18 C 81.69 245.82 83.46 244.43 84.29 242.36 C 86.40 239.98 88.70 237.79 90.99 235.59 C 91.01 235.04 91.05 233.94 91.07 233.39 C 92.32 232.92 93.48 232.23 94.09 230.99 C 95.42 229.03 97.61 227.92 99.31 226.33 C 100.48 224.85 101.84 223.54 103.33 222.40 C 103.40 222.00 103.52 221.18 103.59 220.78 C 104.53 219.92 105.47 219.06 106.42 218.22 C 107.00 217.49 107.59 216.77 108.17 216.06 C 108.89 215.41 109.61 214.77 110.33 214.14 C 112.37 211.29 115.20 209.20 117.61 206.69 C 118.28 206.03 118.97 205.37 119.65 204.72 C 122.71 202.86 124.54 199.52 127.73 197.87 C 130.05 195.74 132.05 192.60 135.35 192.09 C 135.33 191.75 135.30 191.08 135.28 190.74 C 136.67 189.70 137.95 188.46 139.63 187.89 C 142.32 185.46 145.00 182.87 148.49 181.63 C 148.75 181.30 149.27 180.63 149.53 180.29 C 157.35 175.37 164.54 169.39 172.91 165.41 C 175.70 163.26 178.85 161.65 181.95 159.99 C 185.90 157.91 189.81 155.82 193.85 153.90 C 195.23 153.27 196.61 152.61 197.98 151.95 C 199.43 151.27 200.87 150.57 202.32 149.88 C 204.96 149.17 207.30 147.71 209.89 146.85 C 210.40 146.57 211.41 146.02 211.91 145.74 C 214.56 145.57 216.74 143.97 219.19 143.17 C 223.76 141.13 228.48 139.36 233.40 138.35 L 233.50 137.51 C 236.58 137.87 239.05 135.72 242.00 135.40 C 243.80 135.33 245.31 134.35 246.82 133.48 C 249.66 133.72 252.18 132.43 254.78 131.56 C 257.46 131.44 260.04 130.73 262.52 129.72 C 265.71 129.06 269.04 128.85 272.04 127.45 C 275.13 127.29 278.13 126.52 281.18 126.02 C 287.04 124.86 293.07 124.51 298.95 123.31 C 304.74 123.60 310.39 122.06 316.18 122.27 Z"
       id="path2"
       style="fill:#808080" />
  </g>
  <g
     id="#f7941dff"
     style="fill:#b3b3b3">
    <path
       fill="#f7941d"
       opacity="1.00"
       d=" M 77.65 252.58 C 78.26 251.64 78.58 249.95 80.01 250.03 C 145.00 249.54 210.01 249.72 275.01 249.69 C 455.01 249.69 635.01 249.69 815.01 249.69 C 862.45 249.84 909.89 249.38 957.32 249.98 C 959.75 252.35 961.31 255.77 963.34 258.60 C 963.78 259.53 964.23 260.47 964.70 261.40 C 965.67 264.14 967.75 266.17 969.37 268.51 C 969.60 269.04 970.05 270.10 970.27 270.63 C 971.11 272.20 971.89 273.81 972.72 275.40 C 973.36 276.74 974.02 278.07 974.70 279.41 C 975.35 280.74 976.04 282.07 976.77 283.39 C 977.46 285.04 978.07 286.74 978.74 288.41 C 979.46 290.05 980.07 291.74 980.75 293.41 C 981.40 294.77 981.97 296.19 982.18 297.71 C 982.61 298.11 983.47 298.92 983.90 299.33 C 983.99 300.74 983.99 302.21 984.66 303.52 C 984.97 304.51 985.30 305.50 985.66 306.50 C 986.05 307.90 986.64 309.25 987.30 310.57 C 987.89 312.19 988.04 313.96 988.79 315.54 C 988.89 316.02 989.10 316.98 989.21 317.46 C 989.61 318.45 990.00 319.46 990.37 320.47 C 990.85 321.75 991.01 323.11 991.26 324.46 C 992.40 326.34 991.58 328.74 992.79 330.60 C 992.90 331.06 993.10 331.99 993.21 332.46 C 994.51 334.27 993.41 336.82 994.90 338.56 C 994.98 340.51 995.00 342.48 995.10 344.44 C 996.93 346.43 995.04 349.58 996.92 351.56 C 997.04 354.04 997.00 356.53 996.90 359.02 C 796.61 358.97 596.33 359.02 396.04 358.99 C 277.38 359.08 158.73 358.85 40.08 359.11 C 40.02 357.26 40.01 355.41 40.06 353.56 C 41.72 351.62 40.75 348.87 41.10 346.56 C 42.63 344.83 41.37 342.19 42.88 340.44 C 43.10 338.44 42.60 336.25 43.76 334.46 C 44.03 333.10 43.96 331.61 44.84 330.45 C 44.95 329.48 45.05 328.51 45.16 327.55 C 45.99 326.38 46.00 324.93 46.29 323.59 C 46.86 321.92 47.15 320.17 47.63 318.49 C 47.99 317.47 48.38 316.46 48.80 315.47 C 48.90 314.99 49.12 314.02 49.22 313.54 C 50.04 311.54 50.19 309.33 51.25 307.41 C 51.79 306.13 52.22 304.81 52.71 303.51 C 53.00 302.49 53.32 301.49 53.66 300.49 C 53.99 299.50 54.35 298.53 54.73 297.56 C 55.75 295.25 56.53 292.85 57.67 290.59 C 58.55 288.87 59.44 287.16 60.31 285.43 C 60.90 283.74 61.50 282.05 62.29 280.44 C 62.65 279.45 62.97 278.46 63.25 277.45 C 64.00 276.46 64.73 275.48 65.38 274.43 C 65.79 273.48 66.21 272.53 66.64 271.59 C 67.96 269.59 69.34 267.61 70.30 265.41 C 71.11 263.80 71.91 262.19 72.64 260.55 C 73.76 258.75 75.25 257.22 76.38 255.43 C 76.80 254.48 77.22 253.53 77.65 252.58 Z"
       id="path5"
       style="fill:#b3b3b3" />
  </g>
  <g
     id="#f5ed30ff"
     style="fill:#e6e6e6">
    <path
       fill="#f5ed30"
       opacity="1.00"
       d=" M 40.08 359.11 C 158.73 358.85 277.38 359.08 396.04 358.99 C 596.33 359.02 796.61 358.97 996.90 359.02 C 998.15 361.91 997.97 365.05 998.10 368.13 C 999.62 372.60 998.80 377.38 999.02 382.01 C 998.86 383.86 999.49 386.01 998.08 387.54 C 997.83 391.38 998.48 395.33 997.15 399.04 C 997.24 405.62 995.09 411.92 994.85 418.47 C 993.29 422.65 994.03 427.55 991.72 431.59 C 990.35 436.08 990.95 441.26 988.24 445.39 C 986.82 448.66 986.17 452.22 985.86 455.75 C 985.40 455.75 984.49 455.74 984.03 455.74 C 983.99 457.31 983.97 458.90 983.91 460.48 C 981.79 464.23 980.77 468.50 979.83 472.67 C 979.36 473.44 978.82 474.14 978.20 474.77 C 978.27 474.38 978.42 473.61 978.49 473.23 C 972.35 472.42 966.15 473.00 959.98 472.95 C 887.99 472.79 816.00 473.06 744.02 472.99 C 719.68 473.19 695.34 472.50 671.01 473.24 C 643.68 473.10 616.36 473.62 589.03 473.24 C 566.02 473.49 543.01 473.38 520.01 473.22 C 488.02 474.03 456.02 473.38 424.02 473.71 C 321.01 473.61 218.00 473.29 114.98 473.44 C 100.32 473.01 85.65 473.16 70.99 473.18 C 67.02 473.16 63.02 473.41 59.08 472.81 C 58.03 471.26 57.22 469.56 56.18 468.01 C 56.15 465.27 54.98 462.80 53.64 460.49 C 52.83 459.03 53.04 457.32 52.90 455.73 C 52.44 455.73 51.53 455.75 51.07 455.75 C 51.30 452.15 50.27 448.66 48.72 445.45 C 47.62 443.58 48.24 441.36 47.75 439.36 C 47.00 436.70 46.23 434.04 45.18 431.49 C 45.06 430.50 44.95 429.51 44.84 428.53 C 43.43 424.69 43.98 420.32 42.27 416.50 C 41.94 413.96 40.88 411.53 41.00 408.95 C 40.86 407.09 41.42 405.01 40.08 403.46 C 39.85 399.63 40.47 395.69 39.14 392.00 C 38.79 383.01 39.12 374.00 38.98 365.01 C 38.82 362.96 39.45 361.02 40.08 359.11 Z"
       id="path8"
       style="fill:#e6e6e6" />
  </g>
  <g
     id="#3ab54aff"
     style="fill:#cccccc">
    <path
       fill="#3ab54a"
       opacity="1.00"
       d=" M 57.43 472.55 L 59.08 472.81 C 63.02 473.41 67.02 473.16 70.99 473.18 C 85.65 473.16 100.32 473.01 114.98 473.44 C 218.00 473.29 321.01 473.61 424.02 473.71 C 456.02 473.38 488.02 474.03 520.01 473.22 C 543.01 473.38 566.02 473.49 589.03 473.24 C 616.36 473.62 643.68 473.10 671.01 473.24 C 695.34 472.50 719.68 473.19 744.02 472.99 C 816.00 473.06 887.99 472.79 959.98 472.95 C 966.15 473.00 972.35 472.42 978.49 473.23 C 978.42 473.61 978.27 474.38 978.20 474.77 C 971.76 487.49 965.64 500.38 958.28 512.61 C 953.42 519.96 948.76 527.44 943.82 534.76 C 940.57 540.14 936.19 544.75 933.17 550.27 C 928.44 555.79 924.66 562.06 919.86 567.51 C 915.76 573.63 910.37 578.75 906.69 585.17 C 892.48 584.29 878.22 584.99 863.99 584.76 C 842.99 584.63 822.01 585.72 801.01 585.20 C 669.68 585.11 538.35 585.17 407.02 585.17 C 400.67 585.49 394.37 584.56 388.04 584.40 C 307.36 584.44 226.69 584.40 146.01 584.42 C 141.40 584.43 136.78 584.22 132.19 584.68 L 131.00 584.80 C 126.07 580.38 122.62 574.65 118.32 569.66 C 115.25 565.44 112.50 560.98 109.05 557.04 C 104.23 550.71 99.96 543.98 95.11 537.67 C 94.01 536.19 93.52 534.13 91.71 533.32 C 88.33 526.25 83.19 520.22 79.54 513.29 C 75.64 507.91 73.21 501.69 69.56 496.15 C 66.62 491.72 64.50 486.84 62.04 482.16 C 60.32 479.03 59.72 475.36 57.43 472.55 Z"
       id="path11"
       style="fill:#cccccc" />
  </g>
  <g
     id="#23aae1ff"
     style="fill:#999999">
    <path
       fill="#23aae1"
       opacity="1.00"
       d=" M 132.19 584.68 C 136.78 584.22 141.40 584.43 146.01 584.42 C 226.69 584.40 307.36 584.44 388.04 584.40 C 394.37 584.56 400.67 585.49 407.02 585.17 C 538.35 585.17 669.68 585.11 801.01 585.20 C 822.01 585.72 842.99 584.63 863.99 584.76 C 878.22 584.99 892.48 584.29 906.69 585.17 C 903.87 587.25 902.39 590.54 899.82 592.86 C 896.81 595.54 894.96 599.23 891.78 601.74 C 889.97 603.12 889.18 605.49 887.18 606.61 C 884.23 610.31 880.62 613.46 877.51 616.98 C 875.45 620.15 872.35 622.40 869.92 625.25 C 869.04 627.16 866.78 627.75 865.67 629.48 C 864.05 631.96 862.10 634.37 859.39 635.72 C 857.13 639.56 852.82 641.66 850.81 645.67 C 850.47 645.66 849.78 645.63 849.44 645.61 C 849.35 646.06 849.16 646.95 849.06 647.40 C 846.81 648.03 845.47 649.97 844.41 651.92 C 840.55 653.92 838.09 657.70 834.76 660.38 C 834.63 660.76 834.36 661.51 834.22 661.88 C 829.94 664.36 826.44 668.23 823.49 672.18 C 820.04 674.06 817.93 677.54 814.85 679.90 C 812.23 681.79 809.70 683.92 807.77 686.53 C 806.18 687.42 804.98 688.78 803.84 690.16 C 801.98 691.90 799.42 692.32 796.98 692.23 C 722.00 691.57 647.01 692.25 572.03 691.82 C 544.69 691.79 517.34 691.85 490.00 691.79 C 474.66 690.73 459.30 691.85 443.95 691.84 C 394.99 692.09 346.02 691.65 297.06 691.79 C 283.71 691.79 270.36 691.84 257.01 691.66 C 249.25 691.52 241.42 692.20 233.71 691.00 C 230.04 685.63 224.89 681.53 220.22 677.11 C 219.34 676.59 218.52 675.99 217.76 675.33 C 204.16 661.87 190.33 648.60 176.86 635.05 C 172.66 629.07 166.28 625.01 161.85 619.21 C 158.74 614.65 153.84 611.68 150.89 606.98 C 144.24 600.74 139.00 593.24 132.66 586.70 C 132.54 586.19 132.31 585.18 132.19 584.68 Z"
       id="path14"
       style="fill:#999999" />
  </g>
  <g
     id="#283890ff"
     style="fill:#666666">
    <path
       fill="#283890"
       opacity="1.00"
       d=" M 796.98 692.23 C 799.42 692.32 801.98 691.90 803.84 690.16 C 803.40 691.09 802.82 691.94 801.91 692.47 C 797.54 695.50 794.73 700.26 790.31 703.21 C 786.31 705.81 783.74 710.04 779.81 712.71 C 777.18 714.51 775.24 717.13 772.53 718.82 C 769.87 720.60 768.26 723.69 765.23 724.94 C 761.88 727.79 759.24 731.43 755.53 733.84 C 752.90 735.67 751.27 738.70 748.29 740.03 C 745.13 743.00 741.47 745.35 738.43 748.44 C 735.36 750.20 733.52 753.51 730.29 754.98 C 723.93 761.32 716.02 765.87 709.75 772.33 C 707.78 773.32 706.26 774.99 704.32 776.03 C 699.15 781.06 692.91 784.78 687.48 789.50 C 685.06 791.14 683.16 793.45 680.61 794.89 C 677.21 798.98 671.87 800.75 668.64 805.01 C 661.80 806.19 654.91 804.74 648.04 805.13 C 554.97 805.09 461.90 805.30 368.84 805.17 C 362.54 799.88 356.06 794.75 349.36 789.99 C 348.12 788.87 346.93 787.73 345.71 786.61 C 340.18 782.84 334.69 778.74 330.31 773.66 C 327.29 771.06 323.40 769.70 320.75 766.66 C 314.20 761.89 308.31 756.20 301.78 751.35 C 297.10 746.56 291.29 743.09 286.61 738.31 C 280.07 733.23 274.21 727.36 267.66 722.30 C 263.66 717.56 258.20 714.44 254.27 709.64 C 247.07 703.82 239.90 697.94 233.71 691.00 C 241.42 692.20 249.25 691.52 257.01 691.66 C 270.36 691.84 283.71 691.79 297.06 691.79 C 346.02 691.65 394.99 692.09 443.95 691.84 C 459.30 691.85 474.66 690.73 490.00 691.79 C 517.34 691.85 544.69 691.79 572.03 691.82 C 647.01 692.25 722.00 691.57 796.98 692.23 Z"
       id="path17"
       style="fill:#666666" />
  </g>
  <g
     id="#662e93ff"
     style="fill:#4d4d4d">
    <path
       fill="#662e93"
       opacity="1.00"
       d=" M 368.84 805.17 C 461.90 805.30 554.97 805.09 648.04 805.13 C 654.91 804.74 661.80 806.19 668.64 805.01 L 668.88 805.58 C 666.46 806.62 664.64 808.61 662.32 809.82 C 661.78 810.26 661.24 810.71 660.72 811.18 C 660.18 811.50 659.10 812.16 658.55 812.49 C 653.27 817.24 647.05 820.77 641.38 825.01 C 636.64 828.84 631.64 832.37 626.58 835.78 C 621.35 839.19 616.49 843.18 611.08 846.34 C 603.42 852.80 594.70 857.85 586.62 863.76 C 582.15 866.61 578.10 870.06 573.60 872.87 C 563.26 879.82 553.05 886.95 542.72 893.92 C 540.92 895.17 539.22 896.57 537.37 897.77 C 534.93 899.26 532.77 901.16 530.31 902.63 C 529.91 902.93 529.11 903.52 528.71 903.82 C 525.60 905.78 522.72 908.09 519.55 909.95 C 519.05 909.95 518.06 909.94 517.56 909.94 C 514.29 907.39 510.70 905.30 507.40 902.79 C 506.36 902.14 505.31 901.52 504.25 900.94 C 503.88 900.63 503.13 900.02 502.76 899.71 C 490.63 891.49 478.93 882.59 466.45 874.88 C 454.81 866.27 442.63 858.40 430.84 850.00 C 428.38 848.71 426.81 846.27 424.33 845.04 C 415.65 839.20 406.86 833.51 398.65 827.02 C 396.62 825.88 394.98 824.18 392.96 823.04 C 388.17 818.97 382.48 816.11 377.76 811.94 C 374.67 809.86 371.56 807.73 368.84 805.17 Z"
       id="path20"
       style="fill:#4d4d4d" />
  </g>
</svg>
